SplineFontDB: 3.2
FontName: RoutedGothicWide
FullName: Routed Gothic Wide
FamilyName: Routed Gothic Wide
Weight: Regular

StartChar: exclam
Encoding: 33 33 0
Width: 360
Flags: HW
LayerCount: 2
Back
SplineSet
208.396484375 72 m 1
 203.26953125 59.068359375 186.634765625 48 170 48 c 0
 160 48 150 56 150 64 c 0
 150 66.6923828125 150.56640625 69.3837890625 151.603515625 72 c 1025
151.603515625 72 m 1
 156.73046875 84.931640625 173.365234375 96 190 96 c 0
 200 96 210 88 210 80 c 0
 210 77.3076171875 209.43359375 74.6162109375 208.396484375 72 c 1025
180 688 m 0
 180 288 l 1024
EndSplineSet
Fore
SplineSet
70.0132321434 87.797494689 m 0
 70.1023672297 90.3746932003 70.7465372678 93.3067385199 71.4797651964 95.2969286119 c 0
 81.3563239074 122.104730828 102.450638079 139.372034864 123.524383082 151.079670977 c 0
 141.562025629 160.699747002 163.437934652 168 190 168 c 0
 224.692121386 168 250.055091742 153.6109418 266.211669128 138.697178059 c 0
 279.775691838 126.366248323 294 106.759952572 294 80 c 0
 294 70.5014496172 291.533876944 61.3273041638 289.986767857 56.202505311 c 0
 289.89763277 53.6253067997 289.253462732 50.6932614801 288.520234804 48.7030713881 c 0
 278.643676093 21.8952691725 257.549361921 4.62796513579 236.475616918 -7.07967097683 c 0
 218.437974371 -16.6997470021 196.562065348 -24 170 -24 c 0
 142.07771677 -24 119.632669734 -13.9328566933 104.687195291 -3.96920706411 c 0
 85.5494197489 8.78930996366 66 31.6277803977 66 64 c 0
 66 73.4985503828 68.4661230558 82.6726958362 70.0132321434 87.797494689 c 0
117.916852869 82.0037245579 m 0
 117.811480677 80.760718132 117.347041958 78.146462031 116.768399153 76.4105336156 c 0
 115.011195647 71.1389230973 114 66.4827463614 114 64 c 0
 114 52.3722196023 120.450580251 43.2106900363 131.312804709 35.9692070641 c 0
 140.367330266 29.9328566933 153.92228323 24 170 24 c 0
 187.437934652 24 201.562025629 28.6997470021 213.524383082 35.0796709768 c 0
 226.819344661 42.4657607433 236.716779523 51.2649451581 242.083147131 61.9962754421 c 0
 242.188519323 63.239281868 242.652958042 65.853537969 243.231600847 67.5894663844 c 0
 244.988804353 72.8610769027 246 77.5172536386 246 80 c 0
 246 89.2400474283 242.224308162 95.6337516768 233.788330872 103.302821941 c 0
 223.944908258 112.3890582 211.307878614 120 190 120 c 0
 172.562065348 120 158.437974371 115.300252998 146.475616918 108.920329023 c 0
 133.180655339 101.534239257 123.283220477 92.7350548419 117.916852869 82.0037245579 c 0
96 688 m 2
 96 731.799285431 138.143726756 760 180 760 c 0
 221.860378097 760 264 731.801597083 264 688 c 2
 264 288 l 2
 264 244.200714569 221.856273244 216 180 216 c 0
 138.139621903 216 96 244.198402917 96 288 c 2
 96 688 l 2
144 688 m 2
 144 288 l 2
 144 279.801597083 155.860378097 264 180 264 c 0
 204.143726756 264 216 279.799285431 216 288 c 2
 216 688 l 2
 216 696.198402917 204.139621903 712 180 712 c 0
 155.856273244 712 144 696.200714569 144 688 c 2
EndSplineSet
EndChar

StartChar: quotedbl
Encoding: 34 34 1
Width: 480
Flags: HW
LayerCount: 2
Back
SplineSet
340 688 m 0
 340 480 l 1024
140 688 m 0
 140 480 l 1024
EndSplineSet
Fore
SplineSet
56 688 m 2
 56 731.799285431 98.1437267555 760 140 760 c 0
 181.860378097 760 224 731.801597083 224 688 c 2
 224 480 l 2
 224 436.200714569 181.856273244 408 140 408 c 0
 98.1396219031 408 56 436.198402917 56 480 c 2
 56 688 l 2
104 688 m 2
 104 480 l 2
 104 471.801597083 115.860378097 456 140 456 c 0
 164.143726756 456 176 471.799285431 176 480 c 2
 176 688 l 2
 176 696.198402917 164.139621903 712 140 712 c 0
 115.856273244 712 104 696.200714569 104 688 c 2
256 688 m 2
 256 731.799285431 298.143726756 760 340 760 c 0
 381.860378097 760 424 731.801597083 424 688 c 2
 424 480 l 2
 424 436.200714569 381.856273244 408 340 408 c 0
 298.139621903 408 256 436.198402917 256 480 c 2
 256 688 l 2
304 688 m 2
 304 480 l 2
 304 471.801597083 315.860378097 456 340 456 c 0
 364.143726756 456 376 471.799285431 376 480 c 2
 376 688 l 2
 376 696.198402917 364.139621903 712 340 712 c 0
 315.856273244 712 304 696.200714569 304 688 c 2
EndSplineSet
EndChar

StartChar: numbersign
Encoding: 35 35 2
Width: 840
Flags: HW
LayerCount: 2
Back
SplineSet
420 48 m 0
 640 688 l 1024
200 48 m 0
 420 688 l 1024
140 448 m 0
 700 448 l 1024
140 288 m 0
 700 288 l 1024
EndSplineSet
Fore
SplineSet
400.128386474 376 m 1
 394.628386474 360 l 1
 439.871613526 360 l 1
 445.371613526 376 l 1
 400.128386474 376 l 1
360.303521617 407.801914444 m 2
 363.180262521 416.170615257 372.35504671 424 383 424 c 2
 479 424 l 2
 479.700507403 424 483.132725413 423.719785543 484.997165436 423.238631774 c 0
 495.78598318 420.454374702 502.966163972 410.42942265 502.966163972 399.802532078 c 0
 502.966163972 397.27196831 502.559011071 394.707271556 501.696478383 392.198085556 c 2
 479.696478383 328.198085556 l 2
 476.819737479 319.829384743 467.64495329 312 457 312 c 2
 361 312 l 2
 360.299492597 312 356.867274587 312.280214457 355.002834564 312.761368226 c 0
 344.21401682 315.545625298 337.033836028 325.57057735 337.033836028 336.197467922 c 0
 337.033836028 338.72803169 337.440988929 341.292728444 338.303521617 343.801914444 c 2
 360.303521617 407.801914444 l 2
336 48 m 0
 336 55.776897771 337.477603088 61.864947366 338.716579997 66.8208550009 c 0
 338.880477289 67.4764441713 339.156912599 68.3788407982 339.32184092 68.855004821 c 2
 390.288263831 216 l 1
 345.16547788 216 l 1
 280.682828257 27.1579546752 l 2
 269.418691552 -5.02529305275 235.790400491 -24 200 -24 c 0
 158.139621903 -24 116 4.19840291703 116 48 c 0
 116 55.776897771 117.477603088 61.864947366 118.716579997 66.8208550009 c 0
 118.880477289 67.4764441713 119.156912599 68.3788407982 119.32184092 68.855004821 c 2
 170.288263831 216 l 1
 140 216 l 2
 98.1396219031 216 56 244.198402917 56 288 c 0
 56 331.799285431 98.1437267555 360 140 360 c 2
 219.871613526 360 l 1
 225.371613526 376 l 1
 140 376 l 2
 98.1396219031 376 56 404.198402917 56 448 c 0
 56 491.799285431 98.1437267555 520 140 520 c 2
 274.83452212 520 l 1
 339.317171743 708.842045325 l 2
 350.581308448 741.025293053 384.209599509 760 420 760 c 0
 461.860378097 760 504 731.801597083 504 688 c 0
 504 680.223102229 502.522396912 674.135052634 501.283420003 669.179144999 c 0
 501.119522711 668.523555829 500.843087401 667.621159202 500.67815908 667.144995179 c 2
 449.711736169 520 l 1
 494.83452212 520 l 1
 559.317171743 708.842045325 l 2
 570.581308448 741.025293053 604.209599509 760 640 760 c 0
 681.860378097 760 724 731.801597083 724 688 c 0
 724 680.223102229 722.522396912 674.135052634 721.283420003 669.179144999 c 0
 721.119522711 668.523555829 720.843087401 667.621159202 720.67815908 667.144995179 c 2
 669.711736169 520 l 1
 700 520 l 2
 741.860378097 520 784 491.801597083 784 448 c 0
 784 404.200714569 741.856273244 376 700 376 c 2
 620.128386474 376 l 1
 614.628386474 360 l 1
 700 360 l 2
 741.860378097 360 784 331.801597083 784 288 c 0
 784 244.200714569 741.856273244 216 700 216 c 2
 565.16547788 216 l 1
 500.682828257 27.1579546752 l 2
 489.418691552 -5.02529305275 455.790400491 -24 420 -24 c 0
 378.139621903 -24 336 4.19840291703 336 48 c 0
384 48 m 0
 384 39.801597083 395.860378097 24 420 24 c 0
 440.209599509 24 452.581308448 35.0252930527 455.317171743 42.8420453248 c 2
 525.287603454 247.755452479 l 2
 528.165775071 256.184383641 537.35164914 264 548 264 c 2
 700 264 l 2
 724.143726756 264 736 279.799285431 736 288 c 0
 736 296.198402917 724.139621903 312 700 312 c 2
 581 312 l 2
 580.299492597 312 576.867274587 312.280214457 575.002834564 312.761368226 c 0
 564.21401682 315.545625298 557.033836028 325.57057735 557.033836028 336.197467922 c 0
 557.033836028 338.72803169 557.440988929 341.292728444 558.303521617 343.801914444 c 2
 580.303521617 407.801914444 l 2
 583.180262521 416.170615257 592.35504671 424 603 424 c 2
 700 424 l 2
 724.143726756 424 736 439.799285431 736 448 c 0
 736 456.198402917 724.139621903 472 700 472 c 2
 636 472 l 2
 635.171079001 472 631.838745768 472.28292385 629.948470559 472.775465744 c 0
 619.184873829 475.580095614 612.034299138 485.591923792 612.034299138 496.198334957 c 0
 612.034299138 498.746807687 612.447122258 501.329607393 613.32184092 503.855004821 c 2
 674.956377509 681.799876587 l 2
 675.483273873 684.099060719 676 687.971070924 676 688 c 0
 676 696.198402917 664.139621903 712 640 712 c 0
 619.790400491 712 607.418691552 700.974706947 604.682828257 693.157954675 c 2
 534.712396546 488.244547521 l 2
 531.834224929 479.815616359 522.64835086 472 512 472 c 2
 416 472 l 2
 415.171079001 472 411.838745768 472.28292385 409.948470559 472.775465744 c 0
 399.184873829 475.580095614 392.034299138 485.591923792 392.034299138 496.198334957 c 0
 392.034299138 498.746807687 392.447122258 501.329607393 393.32184092 503.855004821 c 2
 454.956377509 681.799876587 l 2
 455.483273873 684.099060719 456 687.971070924 456 688 c 0
 456 696.198402917 444.139621903 712 420 712 c 0
 399.790400491 712 387.418691552 700.974706947 384.682828257 693.157954675 c 2
 314.712396546 488.244547521 l 2
 311.834224929 479.815616359 302.64835086 472 292 472 c 2
 140 472 l 2
 115.856273244 472 104 456.200714569 104 448 c 0
 104 439.801597083 115.860378097 424 140 424 c 2
 259 424 l 2
 259.700507403 424 263.132725413 423.719785543 264.997165436 423.238631774 c 0
 275.78598318 420.454374702 282.966163972 410.42942265 282.966163972 399.802532078 c 0
 282.966163972 397.27196831 282.559011071 394.707271556 281.696478383 392.198085556 c 2
 259.696478383 328.198085556 l 2
 256.819737479 319.829384743 247.64495329 312 237 312 c 2
 140 312 l 2
 115.856273244 312 104 296.200714569 104 288 c 0
 104 279.801597083 115.860378097 264 140 264 c 2
 204 264 l 2
 204.828920999 264 208.161254232 263.71707615 210.051529441 263.224534256 c 0
 220.815126171 260.419904386 227.965700862 250.408076208 227.965700862 239.801665043 c 0
 227.965700862 237.253192313 227.552877742 234.670392607 226.67815908 232.144995179 c 2
 165.043622491 54.2001234132 l 2
 164.516726127 51.9009392806 164 48.0289290764 164 48 c 0
 164 39.801597083 175.860378097 24 200 24 c 0
 220.209599509 24 232.581308448 35.0252930527 235.317171743 42.8420453248 c 2
 305.287603454 247.755452479 l 2
 308.165775071 256.184383641 317.35164914 264 328 264 c 2
 424 264 l 2
 424.828920999 264 428.161254232 263.71707615 430.051529441 263.224534256 c 0
 440.815126171 260.419904386 447.965700862 250.408076208 447.965700862 239.801665043 c 0
 447.965700862 237.253192313 447.552877742 234.670392607 446.67815908 232.144995179 c 2
 385.043622491 54.2001234132 l 2
 384.516726127 51.9009392806 384 48.0289290764 384 48 c 0
EndSplineSet
EndChar

StartChar: dollar
Encoding: 36 36 3
Width: 630
Flags: HW
LayerCount: 2
Back
SplineSet
480 536 m 0
 480 536 425 592 315 592 c 0
 221.25 592 150 545 150 492 c 0
 150 450.420898438 180.263671875 390.134765625 315 380 c 0
 462.735351562 368.887695312 490 316.170898438 490 264 c 0
 490 200 429.375 144 315 144 c 0
 210 144 140 216 140 216 c 1024
320 688 m 0
 320 48 l 1024
EndSplineSet
Fore
SplineSet
404 252.068632558 m 2
 405.408436575 256.010560325 406 259.413586225 406 264 c 0
 406 273.055783755 404.698819648 277.909700685 404 279.569712085 c 2
 404 252.068632558 l 2
389.454063166 179.94051928 m 0
 388.679620294 179.608615192 384.369312829 178.269654569 381.882970051 178.073980193 c 0
 381.266711785 178.025480866 380.653712538 178.001668106 380.044917584 178.001668106 c 0
 367.067208887 178.001668106 356 188.822576046 356 202 c 2
 356 321 l 1
 356 321 356.169844841 324.24404258 356.477267328 325.762462351 c 0
 358.774232618 337.107623004 369.080302085 344.975999315 380.173866765 344.975999315 c 0
 382.301694879 344.975999315 384.458495013 344.686521045 386.59330707 344.076574743 c 0
 403.772706177 339.168174998 416.216249513 331.700243861 423.312804709 326.969207064 c 0
 444.936191347 312.553615972 454 290.22388479 454 264 c 0
 454 232.958731311 437.260522941 207.077644026 410.490806726 190.505914941 c 0
 403.955666944 186.584831071 397.312831469 183.308562838 389.454063166 179.94051928 c 0
236 494.6507546 m 2
 234.311526641 492.269336573 234.232412413 491.860813354 234.011919117 491.345596176 c 0
 234.187325261 488.662063011 234.908515136 485.993871098 236 483.470698297 c 2
 236 494.6507546 l 2
252.410533616 558.768399153 m 0
 252.587403606 558.827355817 256.310499536 559.783846445 258.117029949 559.926019807 c 0
 258.733288215 559.974519134 259.346287462 559.998331894 259.955082416 559.998331894 c 0
 272.932791113 559.998331894 284 549.177423954 284 536 c 2
 284 439 l 2
 284 437.993571504 283.713227735 434.798894902 283.204813685 432.873286212 c 0
 280.372161488 422.144669085 270.37858589 415.034943384 259.800491933 415.034943384 c 0
 257.22722413 415.034943384 254.61936611 415.455677741 252.071589807 416.347399447 c 0
 230.32210503 423.959719119 214.893743641 432.579121256 204.966753334 444.160609947 c 0
 192.346837517 458.182738633 186 475.90573462 186 492 c 0
 186 506.235775905 192.831254906 518.396219822 201.938159327 528.804110589 c 0
 202.18638654 529.087798832 202.670366699 529.611492196 203.029437252 529.970562748 c 0
 214.362654965 541.303780462 231.13904661 551.677903485 252.410533616 558.768399153 c 0
564 536 m 0
 564 492.200714569 521.856273244 464 480 464 c 0
 455.215933102 464 432.110619715 472.948254788 416.029437252 489.029437252 c 2
 416.029437252 489.029437252 411.257861197 493.567040149 404 498.013167156 c 1
 404 440.581330004 l 1
 441.734580557 431.935331738 473.605051087 419.093299875 500.394644347 400.914647305 c 0
 559.195956699 361.713772405 574 305.262956185 574 264 c 0
 574 206.132797099 542.812894072 150.396850156 484.578338216 114.560200399 c 0
 461.148324002 100.141730114 432.532268252 88.3580395855 404 81.4483756094 c 1
 404 48 l 2
 404 4.20071456879 361.856273244 -24 320 -24 c 0
 278.139621903 -24 236 4.19840291703 236 48 c 2
 236 81.6283335006 l 1
 202.750146387 89.8982423068 177.301755576 101.072201717 154.816403719 112.764584683 c 0
 108.406036622 137.516780468 82.1235470249 162.661739264 75.071990999 170.979100903 c 0
 62.4792719349 184.578267423 56 198.104297477 56 216 c 0
 56 259.799285431 98.1437267555 288 140 288 c 0
 165.663655119 288 188.666647955 277.274477542 203.797376254 262.143749243 c 2
 203.797376254 262.143749243 216.277308887 250.516594314 236 239.157802723 c 1
 236 319.44980732 l 1
 179.125658772 332.900818524 137.779912967 355.204462629 108.454673562 386.624361991 c 0
 75.9503597519 421.450412502 66 460.177979731 66 492 c 0
 66 528.429978843 82.3112956143 561.084762245 106.704661066 586.639716528 c 0
 139.065084051 620.011402732 185.377570118 644.208405379 236 655.782944506 c 1
 236 688 l 2
 236 731.799285431 278.143726756 760 320 760 c 0
 361.860378097 760 404 731.801597083 404 688 c 2
 404 654.718388925 l 1
 494.113679103 633.985005312 538.542783151 588.398342346 543.970562748 582.970562748 c 0
 556.074945366 570.866180131 564 554.230754399 564 536 c 0
516 536 m 0
 516 539.769245601 513.925054634 545.133819869 510.029437252 549.029437252 c 0
 507.529855279 551.529019224 464.32860893 596.459279296 376.014031722 611.333313352 c 0
 365.502262948 613.103716514 356 622.998980407 356 635 c 2
 356 688 l 2
 356 696.198402917 344.139621903 712 320 712 c 0
 295.856273244 712 284 696.200714569 284 688 c 2
 284 636 l 2
 284 625.076135772 275.634122848 614.204653893 263.808274289 612.304071089 c 0
 212.224784835 604.013867427 168.894134107 581.821540995 141.295338934 553.360283472 c 0
 123.688704386 534.915237755 114 513.570021157 114 492 c 0
 114 469.822020269 120.049640248 444.549587498 143.545326438 419.375638009 c 0
 166.93938784 394.31057222 206.834998595 372.97422735 264.259172666 362.619048419 c 0
 274.354745915 360.79853521 284 351.031450078 284 339 c 2
 284 202 l 2
 284 201.439179426 283.722665122 197.898027604 283.253806852 196.06194755 c 0
 280.491807281 185.245774219 270.452655632 178.033335103 259.803492559 178.033335103 c 0
 257.292383639 178.033335103 254.747356104 178.43437013 252.255825733 179.283755484 c 0
 202.714863999 196.172719711 171.804770963 226.318202313 170.202623746 227.856250757 c 0
 163.333352045 234.725522458 152.336344881 240 140 240 c 0
 115.856273244 240 104 224.200714569 104 216 c 0
 104 212.554834677 105.422079898 208.519045599 109.970562748 203.970562748 c 0
 110.423261998 203.517863499 111.405554227 202.434150156 112.016806687 201.641079996 c 0
 115.588132315 197.803079606 139.733718371 175.208683536 177.183596281 155.235415317 c 0
 200.549116056 143.085345034 229.342102138 131.051312663 264.347898307 124.602876526 c 0
 274.309518857 122.767841162 284 113.039895147 284 101 c 2
 284 48 l 2
 284 39.801597083 295.860378097 24 320 24 c 0
 344.143726756 24 356 39.7992854312 356 48 c 2
 356 101 l 2
 356 111.557672111 364.108177122 122.625787033 375.944868437 124.654934116 c 0
 408.016514103 130.152930515 436.110096815 141.094221158 459.421661784 155.439799601 c 0
 505.187105928 183.603149844 526 223.867202901 526 264 c 0
 526 294.737043815 516.804043301 332.286227595 473.605355653 361.085352695 c 0
 448.990981156 377.78796396 417.492067315 389.789791643 375.706749483 397.387122158 c 0
 365.662695453 399.213313799 356 408.965223493 356 421 c 2
 356 534 l 1
 356 534 356.169844841 537.24404258 356.477267328 538.762462351 c 0
 358.774232618 550.107623004 369.080302085 557.975999315 380.173866765 557.975999315 c 0
 382.301694879 557.975999315 384.458495013 557.686521045 386.59330707 557.076574743 c 0
 393.584381843 555.079124808 400.47778074 553.373469905 409.960752455 548.849030106 c 0
 433.472169993 538.411834933 447.843011295 525.098114202 449.970562748 522.970562748 c 0
 455.889380285 517.051745212 466.784066898 512 480 512 c 0
 504.143726756 512 516 527.799285431 516 536 c 0
EndSplineSet
EndChar

StartChar: percent
Encoding: 37 37 5
Width: 1080
Flags: HW
LayerCount: 2
Back
SplineSet
940 168 m 0
 940 101.725585938 868.365234375 48 780 48 c 0
 691.634765625 48 620 101.725585938 620 168 c 0
 620 234.274414062 691.634765625 288 780 288 c 0
 868.365234375 288 940 234.274414062 940 168 c 0
460 568 m 0
 460 501.725585938 388.365234375 448 300 448 c 0
 211.634765625 448 140 501.725585938 140 568 c 0
 140 634.274414062 211.634765625 688 300 688 c 0
 388.365234375 688 460 634.274414062 460 568 c 0
320 48 m 0
 760 688 l 1024
EndSplineSet
Fore
SplineSet
320 -24 m 0
 278.139621903 -24 236 4.19840291703 236 48 c 0
 236 59.8754422168 239.247372303 73.4374825062 247.345109942 84.7743152004 c 2
 687.125879547 724.455434626 l 2
 702.359418568 747.305743157 730.436184557 760 760 760 c 0
 801.860378097 760 844 731.801597083 844 688 c 0
 844 676.124557783 840.752627697 662.562517494 832.654890058 651.2256848 c 2
 392.874120453 11.5445653739 l 2
 377.640581432 -11.305743157 349.563815443 -24 320 -24 c 0
320 24 m 0
 336.436184557 24 348.359418568 31.305743157 353.125879547 38.4554346261 c 2
 793.345109942 678.7743152 l 2
 795.247372303 681.437482506 796 683.875442217 796 688 c 0
 796 696.198402917 784.139621903 712 760 712 c 0
 743.563815443 712 731.640581432 704.694256843 726.874120453 697.544565374 c 2
 286.654890058 57.2256847996 l 2
 284.752627697 54.5625174938 284 52.1245577832 284 48 c 0
 284 39.801597083 295.860378097 24 320 24 c 0
544 568 m 0
 544 453.934779203 425.357879489 376 300 376 c 0
 174.639197029 376 56 453.932804864 56 568 c 0
 56 682.065220797 174.642120511 760 300 760 c 0
 425.360802971 760 544 682.067195136 544 568 c 0
496 568 m 0
 496 643.932804864 410.639197029 712 300 712 c 0
 189.357879489 712 104 643.934779203 104 568 c 0
 104 492.067195136 189.360802971 424 300 424 c 0
 410.642120511 424 496 492.065220797 496 568 c 0
376 568 m 0
 376 586.077282392 351.559158176 616 300 616 c 0
 248.489819729 616 224 586.059001477 224 568 c 0
 224 549.922717608 248.440841824 520 300 520 c 0
 351.510180271 520 376 549.940998523 376 568 c 0
424 568 m 0
 424 512.059001477 366.489819729 472 300 472 c 0
 233.559158176 472 176 512.077282392 176 568 c 0
 176 623.940998523 233.510180271 664 300 664 c 0
 366.440841824 664 424 623.922717608 424 568 c 0
1024 168 m 0
 1024 53.9347792027 905.357879489 -24 780 -24 c 0
 654.639197029 -24 536 53.932804864 536 168 c 0
 536 282.065220797 654.642120511 360 780 360 c 0
 905.360802971 360 1024 282.067195136 1024 168 c 0
976 168 m 0
 976 243.932804864 890.639197029 312 780 312 c 0
 669.357879489 312 584 243.934779203 584 168 c 0
 584 92.067195136 669.360802971 24 780 24 c 0
 890.642120511 24 976 92.0652207973 976 168 c 0
856 168 m 0
 856 186.077282392 831.559158176 216 780 216 c 0
 728.489819729 216 704 186.059001477 704 168 c 0
 704 149.922717608 728.440841824 120 780 120 c 0
 831.510180271 120 856 149.940998523 856 168 c 0
904 168 m 0
 904 112.059001477 846.489819729 72 780 72 c 0
 713.559158176 72 656 112.077282392 656 168 c 0
 656 223.940998523 713.510180271 264 780 264 c 0
 846.440841824 264 904 223.922717608 904 168 c 0
EndSplineSet
EndChar

StartChar: ampersand
Encoding: 38 38 6
Width: 980
Flags: HW
LayerCount: 2
Back
SplineSet
845 48 m 0
 845 288 645 414 375 414 c 0
 245 414 165 464 165 552 c 0
 165 616 235 696 425 696 c 0
 605 696 690 624 690 552 c 0
 690 480 616.337890625 414.848632812 485 406.75 c 1024
835 372 m 0
 835 372 735 320 685 192 c 0
 635 64 511.46484375 40 395 40 c 0
 225 40 135 128 135 224 c 0
 135 344 276.944335938 409.096679688 375 414 c 1024
EndSplineSet
Fore
SplineSet
376 486 m 2
 413.739191153 486 451.497981253 483.857963229 486.526227249 479.151619116 c 1
 528.199690986 483.329319829 555.493218789 494.041241473 574.202025536 505.306738296 c 0
 599.115218817 521.902063403 606 537.006003166 606 552 c 0
 606 559.276411227 602.713028659 569.345845844 591.029437252 581.029437252 c 0
 582.800973744 589.257900759 567.037117931 599.022739408 542.521057221 607.194759645 c 0
 514.109247426 616.359859579 475.515870106 624 425 624 c 0
 352.931369666 624 308.961359599 610.430275373 284.624668282 597.003135336 c 0
 254.54486996 580.292136268 249 561.943151166 249 552 c 0
 249 538.886077286 251.529511224 530.431763119 254.579830217 525.34789813 c 0
 254.762063273 525.044176371 255.007031469 524.609192049 255.131306398 524.378395753 c 0
 259.618998883 516.04410971 264.40971734 511.12795706 277.918166443 504.373732508 c 0
 296.871936299 494.484809105 327.785064908 486 374 486 c 2
 375 486 l 1
 376 486 l 2
376 438 m 2
 375 438 l 1
 374 438 l 2
 322.214935092 438 283.128063701 447.515190895 256.081833557 461.626267492 c 0
 237.756418321 470.788975109 223.393357898 482.673855436 213.135825817 501.123275174 c 0
 204.965812489 515.28463161 201 533.169569339 201 552 c 0
 201 582.051052915 219.482714866 615.723188635 261.344569652 638.979774627 c 0
 295.066709048 657.585092914 347.0575139 672 425 672 c 0
 480.484129894 672 523.890752574 663.640140421 557.478942779 652.805240355 c 0
 586.962882069 642.977260592 609.199026256 630.742099241 624.970562748 614.970562748 c 0
 643.286971341 596.654154156 654 574.723588773 654 552 c 0
 654 516.953171087 633.799589381 486.96949237 599.819213554 464.706487517 c 0
 572.607946349 448.143107479 536.470526004 435.391640716 488.124954967 431.094256623 c 0
 486.744189497 430.971521915 484.441396107 430.986096969 482.698359089 431.228185444 c 0
 447.999184875 436.047515196 413.162236565 438 376 438 c 2
637.08589529 279.269372047 m 1
 633.443048031 281.546151584 l 2
 570.843797308 319.289817462 481.614584322 341.845262773 377.977059047 341.999376522 c 0
 355.094466646 339.969081325 323.42050943 332.511525162 297.267702967 320.306882146 c 0
 274.057002581 309.165745961 254.755471089 296.475121239 241.888611981 281.999904742 c 0
 227.010516322 265.468687343 219 247.803382744 219 224 c 0
 219 192.575533005 233.815583931 164.446383196 266.981543594 143.186152643 c 0
 293.512625151 126.069325832 334.707850996 112 395 112 c 0
 440.814916184 112 484.120971496 116.116118652 516.064550676 127.651300023 c 0
 562.945789573 143.573230214 587.6989084 169.869248686 605.716559419 214.913376232 c 0
 614.905654296 237.886113426 626.41079965 260.828523899 637.08589529 279.269372047 c 1
682.71997456 307.351959296 m 2
 689.086169858 303.373087235 693.781434797 295.049408263 693.781434797 286.36249354 c 0
 693.781434797 282.138127538 692.671104823 277.827864031 690.102654324 273.889573267 c 0
 675.965425571 252.212489179 661.634877402 225.465215819 650.283440581 197.086623768 c 0
 628.3010916 142.130751314 591.054210427 102.426769786 531.935449324 82.3486999774 c 0
 491.879028504 67.8838813476 443.185083816 64 395 64 c 0
 327.277626823 64 276.519667705 79.9098400679 240.988955124 102.832880443 c 0
 196.211102973 131.536631822 171 175.430861271 171 224 c 0
 171 260.196617256 184.989483678 290.531312657 206.111388019 314.000095258 c 0
 225.244528911 335.524878761 249.942997419 350.834254039 276.732297033 363.693117854 c 0
 310.241547162 379.330767914 346.91848739 387.670156503 375.086114665 389.923566685 c 0
 375.538279684 389.959739886 376.390521644 390 377 390 c 0
 489.371631017 390 585.423597961 366.54895892 658.556951969 322.453848416 c 2
 682.71997456 307.351959296 l 2
774 552 m 0
 774 498.736386058 747.865746755 449.52976355 706.401804118 412.784099318 c 1
 715.197241249 408.334307055 723.22330759 403.896900277 729.912299368 399.846182405 c 0
 734.223861393 397.30095858 734.678861106 396.943343915 736.233387139 395.930232426 c 0
 764.171897308 418.496847774 785.170006571 429.906822989 789.007277605 432.17902959 c 0
 789.807821566 432.691472614 790.721628256 433.193629858 791.266873708 433.466252584 c 0
 804.126869106 439.896250283 818.94717854 444 835 444 c 0
 876.860378097 444 919 415.801597083 919 372 c 0
 919 344.081927663 900.649939374 323.561541891 881.407359424 312.022414872 c 0
 875.061047503 307.808617452 873.552967286 307.491343623 864.539698221 301.182055277 c 0
 860.390432872 298.415878378 856.423278247 295.408081567 851.569268459 291.381799505 c 1
 901.434896629 223.976165761 929 141.646992896 929 48 c 0
 929 4.20071456879 886.856273244 -24 845 -24 c 0
 803.139621903 -24 761 4.19840291703 761 48 c 0
 761 80.4408455436 756.58067798 109.497371015 748.991278351 135.480489117 c 1
 735.425257562 109.74475757 719.437715425 87.4965899283 699.970562748 68.0294372515 c 0
 664.931211363 32.9900858662 622.624587825 9.26730820658 578.730207164 -5.72101689713 c 0
 516.054726224 -26.9669426395 452.411080761 -32 395 -32 c 0
 304.178458783 -32 225.68587357 -10.1566084556 166.096017401 27.7642091064 c 0
 91.0282893334 75.6334849757 51 148.270516677 51 224 c 0
 51 303.679015232 96.0535940741 365.286830931 150.745005134 407.202932416 c 1
 109.24683087 441.290948997 81 489.880729819 81 552 c 0
 81 613.196094289 118.395778217 675.65553549 192.318410372 716.965241694 c 0
 250.869734315 749.493754996 327.989101235 768 425 768 c 0
 552.560831112 768 655.097678031 736.603496766 717.679191651 676.257037203 c 0
 753.676290751 641.38484745 774 597.322599868 774 552 c 0
726 552 m 0
 726 582.685225259 712.343318801 614.596155797 684.30091482 641.762234653 c 0
 634.921926132 689.377688031 545.431093965 720 425 720 c 0
 333.997386921 720 265.159808118 702.522657467 215.655430348 675.020225373 c 0
 153.624920327 640.356116832 129 592.799935268 129 552 c 0
 129 494.9116566 159.41231101 454.601816474 205.168483038 427.686421164 c 0
 207.022340531 426.595916756 210.537979034 423.706028618 212.451562953 421.058332002 c 0
 215.470307769 416.881499017 216.906010008 412.005252039 216.906010008 407.160780554 c 0
 216.906010008 399.036960593 212.868699517 391.002495884 205.488884144 386.505420892 c 0
 145.382168955 349.877891323 99 294.452214965 99 224 c 0
 99 165.729483323 128.971710667 108.366515024 191.903982599 68.2357908936 c 0
 242.31412643 36.1566084556 311.821541217 16 395 16 c 0
 449.603877845 16 507.914137015 20.9563878051 563.295057252 39.729581106 c 0
 601.346762554 52.7228463308 637.077589118 73.0187146152 666.029437252 101.970562748 c 0
 688.242666331 124.183791828 706.204129978 152.496191589 719.408014159 186.124277993 c 0
 721.865639241 193.137737713 725.681545767 201.028722995 728.533747416 206.733126292 c 0
 729.806653945 209.27893935 733.39079254 213.855664842 737.028155835 216.192356449 c 0
 740.96470612 218.721249843 745.40543192 219.915662605 749.810003389 219.915662605 c 0
 758.392282 219.915662605 766.837296112 215.380923242 771.147846434 207.347624916 c 0
 795.077360021 162.75171323 809 109.607379679 809 48 c 0
 809 39.801597083 820.860378097 24 845 24 c 0
 869.143726756 24 881 39.7992854312 881 48 c 0
 881 139.78178756 851.978323652 216.936813173 800.56268929 278.635574408 c 0
 796.986199479 282.92736218 795.143902372 288.446074374 795.143902372 294.005038545 c 0
 795.143902372 300.143815396 797.390553374 306.331678871 802.029437252 310.970562748 c 0
 814.862463839 323.803589336 827.302717812 334.046222078 837.460301779 340.817944723 c 0
 844.762935104 345.929788051 850.71841073 349.436414221 853.533509309 351.149952486 c 0
 853.887582643 351.417564295 855.371477586 352.432795768 856.233730249 352.917812891 c 0
 867.5184721 359.265480182 871 366.315675042 871 372 c 0
 871 380.198402917 859.139621903 396 835 396 c 0
 827.313151516 396 821.158943766 394.51737619 813.623274763 390.971179012 c 0
 808.069133137 387.682342452 784.470190951 374.996189995 753.87891929 348.003891471 c 0
 747.192289968 342.103924422 735.338554276 339.878799563 726.092665479 345.162164589 c 0
 716.499671625 350.643875363 711.105723119 355.297560223 705.786292966 358.337234597 c 0
 688.890669176 368.662338024 670.336998226 377.030296159 650.151247744 386.113883876 c 0
 647.797689112 387.17298526 643.206741415 390.379921668 640.77630857 393.631642829 c 0
 637.607455838 397.871309646 636.096486828 402.875453128 636.096486828 407.849412099 c 0
 636.096486828 415.83936955 639.995368842 423.751439337 647.184168207 428.291733673 c 0
 699.084693824 461.07101301 726 506.007719081 726 552 c 0
EndSplineSet
EndChar

StartChar: quotesingle
Encoding: 39 39 7
Width: 280
Flags: HW
LayerCount: 2
Back
SplineSet
140 688 m 0
 140 480 l 1024
EndSplineSet
Fore
SplineSet
56 688 m 2
 56 731.799285431 98.1437267555 760 140 760 c 0
 181.860378097 760 224 731.801597083 224 688 c 2
 224 480 l 2
 224 436.200714569 181.856273244 408 140 408 c 0
 98.1396219031 408 56 436.198402917 56 480 c 2
 56 688 l 2
104 688 m 2
 104 480 l 2
 104 471.801597083 115.860378097 456 140 456 c 0
 164.143726756 456 176 471.799285431 176 480 c 2
 176 688 l 2
 176 696.198402917 164.139621903 712 140 712 c 0
 115.856273244 712 104 696.200714569 104 688 c 2
EndSplineSet
EndChar

StartChar: parenleft
Encoding: 40 40 8
Width: 430
Flags: HW
LayerCount: 2
Back
SplineSet
290 768 m 0
 290 768 140 600 140 368 c 0
 140 136 290 -32 290 -32 c 1024
EndSplineSet
Fore
SplineSet
290 840 m 0
 331.860378097 840 374 811.801597083 374 768 c 0
 374 751.538700844 367.646022816 736.292097574 356.97064894 724.091670287 c 0
 355.653812965 722.625916955 318.369333693 680.909905783 280.641467622 602.624583686 c 0
 250.704495967 539.853514085 224 459.266772356 224 368 c 0
 224 276.732649954 250.704138499 196.147235444 280.641467622 133.375416314 c 0
 318.610873962 54.5888981597 356.201865242 12.7640530433 356.97064894 11.9083297127 c 0
 367.646022816 -0.292097574447 374 -15.5387008442 374 -32 c 0
 374 -75.7992854312 331.856273244 -104 290 -104 c 0
 263.371307026 -104 240.014920191 -93.8422459541 223.080435837 -75.9932274345 c 0
 219.087236549 -71.8551144724 170.464108366 -14.6621387848 125.375940417 78.588390382 c 0
 89.3141614561 153.802957929 56 252.315377008 56 368 c 0
 56 483.684349289 89.3143356158 582.197405319 125.375940417 657.411609618 c 0
 170.712431799 751.175716795 219.735266377 808.526661379 223.080435837 811.993227434 c 0
 241.378018007 831.278956849 263.75708498 840 290 840 c 0
290 792 m 0
 276.11324449 792 264.92985948 786.587874496 258.336772378 779.395415839 c 0
 254.893104928 775.504523564 209.502822358 721.133104303 168.606824148 636.552744368 c 0
 134.70528807 565.843826262 104 474.296607079 104 368 c 0
 104 261.665421544 134.665957072 170.238509141 168.641177311 99.3759069297 c 0
 209.242021958 15.4059782278 254.288552705 -38.8214588932 258.336772378 -43.395415839 c 0
 264.913322722 -50.5698343959 276.126234828 -56 290 -56 c 0
 314.143726756 -56 326 -40.2007145688 326 -32 c 0
 326 -28.4401439005 324.737281056 -24.3324129958 321.086351315 -19.9725106602 c 0
 318.466590462 -17.0564882606 277.82518747 28.6562743696 237.379732287 112.580593873 c 0
 205.271886318 179.903496711 176 267.243957656 176 368 c 0
 176 468.709472809 205.319946242 556.197735706 237.337511651 623.331340597 c 0
 277.622165509 706.921997352 317.808838028 752.324352414 321.086351315 755.97251066 c 0
 324.242779489 759.741884365 326 764.414418891 326 768 c 0
 326 776.198402917 314.139621903 792 290 792 c 0
EndSplineSet
EndChar

StartChar: parenright
Encoding: 41 41 9
Width: 430
Flags: HW
LayerCount: 2
Back
SplineSet
100 768 m 0
 100 768 250 600 250 368 c 0
 250 136 100 -32 100 -32 c 1024
EndSplineSet
Fore
SplineSet
16 768 m 0
 16 811.799285431 58.1437267555 840 100 840 c 0
 126.628692974 840 149.985079809 829.842245954 166.919564163 811.993227434 c 0
 170.912763451 807.855114472 219.535891634 750.662138785 264.624059583 657.411609618 c 0
 300.685838544 582.197042071 334 483.684622992 334 368 c 0
 334 252.315650711 300.685664384 153.802594681 264.624059583 78.588390382 c 0
 219.287568201 -15.1757167949 170.264733623 -72.5266613794 166.919564163 -75.9932274345 c 0
 148.621981993 -95.2789568486 126.24291502 -104 100 -104 c 0
 58.1396219031 -104 16 -75.801597083 16 -32 c 0
 16 -15.5387008442 22.3539771842 -0.292097574445 33.0293510604 11.9083297127 c 0
 34.3461870354 13.3740830446 71.6306663066 55.0900942166 109.358532378 133.375416314 c 0
 139.295504033 196.146485915 166 276.733227644 166 368 c 0
 166 459.267350046 139.295861501 539.852764556 109.358532378 602.624583686 c 0
 71.3891260382 681.41110184 33.7981347581 723.235946957 33.0293510604 724.091670287 c 0
 22.3539771842 736.292097574 16 751.538700844 16 768 c 0
64 768 m 0
 64 764.4401439 65.2627189438 760.332412996 68.9136486846 755.97251066 c 0
 71.533409538 753.056488261 112.17481253 707.34372563 152.620267713 623.419406127 c 0
 184.728113682 556.096503289 214 468.756042344 214 368 c 0
 214 267.290527191 184.680053758 179.802264294 152.662488349 112.668659403 c 0
 112.377834491 29.0780026484 72.1911619716 -16.3243524143 68.9136486846 -19.9725106602 c 0
 65.7572205114 -23.7418843654 64 -28.4144188909 64 -32 c 0
 64 -40.198402917 75.8603780969 -56 100 -56 c 0
 113.88675551 -56 125.07014052 -50.5878744956 131.663227622 -43.395415839 c 0
 135.106895072 -39.5045235645 180.497177642 14.866895697 221.393175852 99.447255632 c 0
 255.29471193 170.156173738 286 261.703392921 286 368 c 0
 286 474.334578456 255.334042928 565.761490859 221.358822689 636.62409307 c 0
 180.757978042 720.594021772 135.711447295 774.821458893 131.663227622 779.395415839 c 0
 125.086677278 786.569834396 113.873765172 792 100 792 c 0
 75.8562732445 792 64 776.200714569 64 768 c 0
EndSplineSet
EndChar

StartChar: asterisk
Encoding: 42 42 10
Width: 640
Flags: HW
LayerCount: 2
Back
SplineSet
410 684.708007812 m 0
 230 435.291992188 l 1024
230 684.708007812 m 0
 410 435.291992188 l 1024
140 560 m 0
 500 560 l 1024
EndSplineSet
Fore
SplineSet
410 757 m 0
 451.860378097 757 494 728.801597083 494 685 c 0
 494 670.49595881 488.934846659 657.417624041 481.517170416 647.032877301 c 2
 470.738881031 632 l 1
 500 632 l 2
 541.860378097 632 584 603.801597083 584 560 c 0
 584 516.200714569 541.856273244 488 500 488 c 2
 470.738881031 488 l 1
 481.517170416 472.967122699 l 2
 488.934846659 462.582375959 494 449.50404119 494 435 c 0
 494 391.200714569 451.856273244 363 410 363 c 0
 381.137418147 363 353.877033555 375.480991742 338.482829584 397.032877301 c 2
 320 422.811560668 l 1
 301.517170416 397.032877301 l 2
 286.123100822 375.481179869 258.862195209 363 230 363 c 0
 188.139621903 363 146 391.198402917 146 435 c 0
 146 449.50404119 151.065153341 462.582375959 158.482829584 472.967122699 c 2
 169.261118969 488 l 1
 140 488 l 2
 98.1396219031 488 56 516.198402917 56 560 c 0
 56 603.799285431 98.1437267555 632 140 632 c 2
 169.261118969 632 l 1
 158.482829584 647.032877301 l 2
 151.065153341 657.417624041 146 670.49595881 146 685 c 0
 146 728.799285431 188.143726756 757 230 757 c 0
 258.862581853 757 286.122966445 744.519008258 301.517170416 722.967122699 c 2
 320 697.188439332 l 1
 338.482829584 722.967122699 l 2
 353.876899178 744.518820131 381.137804791 757 410 757 c 0
410 709 m 0
 394.866701935 709 382.111570089 701.465036842 377.529603309 695.050283351 c 2
 339.504706517 642.015493441 l 2
 339.236258269 641.64107878 336.903531868 638.860026735 335.471681631 637.652600524 c 0
 331.032967498 633.90959749 325.55887359 632.104113615 320.10789881 632.104113615 c 0
 312.607361399 632.104113615 305.150597146 635.522569911 300.495293483 642.015493441 c 2
 262.495293483 695.015493441 l 2
 257.865795722 701.496790307 245.141694618 709 230 709 c 0
 205.856273244 709 194 693.200714569 194 685 c 0
 194 681.496040315 194.921701215 678.60077958 197.529603309 674.949716649 c 2
 235.504706517 621.984506559 l 2
 237.7614025 618.83700953 239.998331894 613.423999604 239.998331894 608.044917584 c 0
 239.998331894 595.067208887 229.177423954 584 216 584 c 2
 140 584 l 2
 115.856273244 584 104 568.200714569 104 560 c 0
 104 551.801597083 115.860378097 536 140 536 c 2
 216 536 l 2
 219.328864034 536 224.661673035 534.807140723 228.411116779 532.541766728 c 0
 235.836122781 528.055657144 239.906623778 519.992395296 239.906623778 511.836912535 c 0
 239.906623778 507.02300311 238.488401358 502.176962562 235.504706517 498.015493441 c 2
 197.504706517 445.015493441 l 2
 194.947974627 441.436068796 194 438.487919687 194 435 c 0
 194 426.801597083 205.860378097 411 230 411 c 0
 245.133298065 411 257.888429911 418.534963158 262.470396691 424.949716649 c 2
 300.495293483 477.984506559 l 2
 300.763741731 478.35892122 303.096468132 481.139973265 304.528318369 482.347399476 c 0
 308.967032502 486.09040251 314.44112641 487.895886385 319.89210119 487.895886385 c 0
 327.392638601 487.895886385 334.849402854 484.477430089 339.504706517 477.984506559 c 2
 377.504706517 424.984506559 l 2
 382.134204278 418.503209693 394.858305382 411 410 411 c 0
 434.143726756 411 446 426.799285431 446 435 c 0
 446 438.503959685 445.078298785 441.39922042 442.470396691 445.050283351 c 2
 404.495293483 498.015493441 l 2
 402.2385975 501.16299047 400.001668106 506.576000396 400.001668106 511.955082416 c 0
 400.001668106 524.932791113 410.822576046 536 424 536 c 2
 500 536 l 2
 524.143726756 536 536 551.799285431 536 560 c 0
 536 568.198402917 524.139621903 584 500 584 c 2
 424 584 l 2
 420.671135966 584 415.338326965 585.192859277 411.588883221 587.458233272 c 0
 404.163877219 591.944342856 400.093376222 600.007604704 400.093376222 608.163087465 c 0
 400.093376222 612.97699689 401.511598642 617.823037438 404.495293483 621.984506559 c 2
 442.495293483 674.984506559 l 2
 445.052025373 678.563931204 446 681.512080313 446 685 c 0
 446 693.198402917 434.139621903 709 410 709 c 0
EndSplineSet
EndChar

StartChar: plus
Encoding: 43 43 11
Width: 800
Flags: HW
LayerCount: 2
Back
SplineSet
670 368 m 0
 130 368 l 1024
400 584 m 0
 400 152 l 1024
EndSplineSet
Fore
SplineSet
670 440 m 2
 711.860378097 440 754 411.801597083 754 368 c 0
 754 324.200714569 711.856273244 296 670 296 c 2
 484 296 l 1
 484 152 l 2
 484 108.200714569 441.856273244 80 400 80 c 0
 358.139621903 80 316 108.198402917 316 152 c 2
 316 296 l 1
 130 296 l 2
 88.1396219031 296 46 324.198402917 46 368 c 0
 46 411.799285431 88.1437267555 440 130 440 c 2
 316 440 l 1
 316 584 l 2
 316 627.799285431 358.143726756 656 400 656 c 0
 441.860378097 656 484 627.801597083 484 584 c 2
 484 440 l 1
 670 440 l 2
670 392 m 2
 460 392 l 2
 449.699291841 392 436 401.472763659 436 416 c 2
 436 584 l 2
 436 592.198402917 424.139621903 608 400 608 c 0
 375.856273244 608 364 592.200714569 364 584 c 2
 364 416 l 2
 364 405.699291841 354.527236341 392 340 392 c 2
 130 392 l 2
 105.856273244 392 94 376.200714569 94 368 c 0
 94 359.801597083 105.860378097 344 130 344 c 2
 340 344 l 2
 350.300708159 344 364 334.527236341 364 320 c 2
 364 152 l 2
 364 143.801597083 375.860378097 128 400 128 c 0
 424.143726756 128 436 143.799285431 436 152 c 2
 436 320 l 2
 436 330.300708159 445.472763659 344 460 344 c 2
 670 344 l 2
 694.143726756 344 706 359.799285431 706 368 c 0
 706 376.198402917 694.139621903 392 670 392 c 2
EndSplineSet
EndChar

StartChar: comma
Encoding: 44 44 12
Width: 370
Flags: HW
LayerCount: 2
Back
SplineSet
190 96 m 0
 200 96 210 88.0009765625 210 79.9990234375 c 0
 210 64 190 48 170 48 c 0
 160.000976562 48 150 56 150 64 c 0
 150 80 170 96 190 96 c 0
 200 96 220 88 220 64 c 0
 220 24 177.5 -56 177.5 -56 c 1024
EndSplineSet
Fore
SplineSet
304 64 m 0
 304 47.1617457323 300.324187012 33.3422130312 297.237947349 20.9972543814 c 0
 292.884132195 4.67044755294 287.602013323 -11.1881537604 281.096410091 -26.3678946341 c 0
 269.68080639 -53.5897188441 257.635640784 -78.4820584426 255.665465769 -82.9003799258 c 0
 255.022241516 -84.6573289615 254.722180194 -85.2635726862 254.210909992 -86.2293052901 c 0
 239.938738145 -113.187852112 208.990218463 -128 177 -128 c 0
 135.139621903 -128 93 -99.801597083 93 -56 c 0
 93 -44.0250501375 96.3490012031 -34.6363661338 100.75986909 -25.8146303595 c 0
 100.80690516 -25.7297011865 105.684109685 -16.7576610549 110.241001464 -7.47206026663 c 1
 102.591475071 -2.42427423736 98.8142360381 0.897106028457 94.0244316923 5.08818483106 c 0
 79.9940292934 17.8430961028 66 37.1546605433 66 64 c 0
 66 101.611264178 88.9361024584 128.23676433 112.737903752 144.007838836 c 0
 132.748117798 157.567520224 157.701036083 168 190 168 c 0
 203.450632794 168 214.295860539 165.664668619 224.299079609 163.163863851 c 0
 266.413452049 150.777283722 304 116.178689975 304 64 c 0
256 64 m 0
 256 89.6915505072 238.502641296 108.696085774 211.686320279 116.839289187 c 0
 205.70943142 118.305883977 196.550264904 120 190 120 c 0
 168.401106756 120 152.82264247 113.31583494 139.340445278 104.04682437 c 0
 123.082963521 93.4794612279 114 80.5782182474 114 64 c 0
 114 54.8312665011 117.376186282 48.8856122667 125.961668495 40.9232064873 c 0
 133.046687004 34.7623997727 140.001124015 29.5314841875 148.59330707 27.0765747434 c 0
 156.714358969 24.7562742006 165.894991302 14.8953634901 165.894991302 3.33617138385 c 0
 165.894991302 0.443473907313 165.320049792 -2.55557925752 164.00968135 -5.56942667395 c 0
 154.442058981 -27.5749581225 145.051900866 -44.8799877138 143.269528421 -48.1297086364 c 0
 141.657088789 -51.4700602819 141 -53.9136808158 141 -56 c 0
 141 -64.198402917 152.860378097 -80 177 -80 c 0
 193.8475252 -80 206.588291275 -72.0345030474 211.195394146 -64.8038160966 c 0
 213.699211034 -58.8789186355 225.071924168 -35.846077518 236.903589909 -7.63210536586 c 0
 242.397986677 5.18815376036 247.115867805 19.3295524471 250.762052651 33.0027456186 c 0
 253.675812988 44.6577869688 256 54.8382542677 256 64 c 0
EndSplineSet
EndChar

StartChar: hyphen
Encoding: 45 45 13
Width: 520
Flags: HW
LayerCount: 2
Back
SplineSet
100 264 m 0
 420 264 l 1024
EndSplineSet
Fore
SplineSet
100 192 m 2
 58.1396219031 192 16 220.198402917 16 264 c 0
 16 307.799285431 58.1437267555 336 100 336 c 2
 420 336 l 2
 461.860378097 336 504 307.801597083 504 264 c 0
 504 220.200714569 461.856273244 192 420 192 c 2
 100 192 l 2
100 240 m 2
 420 240 l 2
 444.143726756 240 456 255.799285431 456 264 c 0
 456 272.198402917 444.139621903 288 420 288 c 2
 100 288 l 2
 75.8562732445 288 64 272.200714569 64 264 c 0
 64 255.801597083 75.8603780969 240 100 240 c 2
EndSplineSet
EndChar

StartChar: period
Encoding: 46 46 14
Width: 360
Flags: HW
LayerCount: 2
Back
SplineSet
208.396484375 72 m 1
 203.26953125 59.068359375 186.634765625 48 170 48 c 0
 160 48 150 56 150 64 c 0
 150 66.6923828125 150.56640625 69.3837890625 151.603515625 72 c 1025
151.603515625 72 m 1
 156.73046875 84.931640625 173.365234375 96 190 96 c 0
 200 96 210 88 210 80 c 0
 210 77.3076171875 209.43359375 74.6162109375 208.396484375 72 c 1025
EndSplineSet
Fore
SplineSet
70.0132321434 87.797494689 m 0
 70.1023672297 90.3746932003 70.7465372678 93.3067385199 71.4797651964 95.2969286119 c 0
 81.3563239074 122.104730828 102.450638079 139.372034864 123.524383082 151.079670977 c 0
 141.562025629 160.699747002 163.437934652 168 190 168 c 0
 224.692121386 168 250.055091742 153.6109418 266.211669128 138.697178059 c 0
 279.775691838 126.366248323 294 106.759952572 294 80 c 0
 294 70.5014496172 291.533876944 61.3273041638 289.986767857 56.202505311 c 0
 289.89763277 53.6253067997 289.253462732 50.6932614801 288.520234804 48.7030713881 c 0
 278.643676093 21.8952691725 257.549361921 4.62796513579 236.475616918 -7.07967097683 c 0
 218.437974371 -16.6997470021 196.562065348 -24 170 -24 c 0
 142.07771677 -24 119.632669734 -13.9328566933 104.687195291 -3.96920706411 c 0
 85.5494197489 8.78930996366 66 31.6277803977 66 64 c 0
 66 73.4985503828 68.4661230558 82.6726958362 70.0132321434 87.797494689 c 0
117.916852869 82.0037245579 m 0
 117.811480677 80.760718132 117.347041958 78.146462031 116.768399153 76.4105336156 c 0
 115.011195647 71.1389230973 114 66.4827463614 114 64 c 0
 114 52.3722196023 120.450580251 43.2106900363 131.312804709 35.9692070641 c 0
 140.367330266 29.9328566933 153.92228323 24 170 24 c 0
 187.437934652 24 201.562025629 28.6997470021 213.524383082 35.0796709768 c 0
 226.819344661 42.4657607433 236.716779523 51.2649451581 242.083147131 61.9962754421 c 0
 242.188519323 63.239281868 242.652958042 65.853537969 243.231600847 67.5894663844 c 0
 244.988804353 72.8610769027 246 77.5172536386 246 80 c 0
 246 89.2400474283 242.224308162 95.6337516768 233.788330872 103.302821941 c 0
 223.944908258 112.3890582 211.307878614 120 190 120 c 0
 172.562065348 120 158.437974371 115.300252998 146.475616918 108.920329023 c 0
 133.180655339 101.534239257 123.283220477 92.7350548419 117.916852869 82.0037245579 c 0
EndSplineSet
EndChar

StartChar: slash
Encoding: 47 47 15
Width: 720
Flags: HW
LayerCount: 2
Back
SplineSet
140 48 m 0
 580 688 l 1024
EndSplineSet
Fore
SplineSet
140 -24 m 0
 98.1396219031 -24 56 4.19840291703 56 48 c 0
 56 59.8754422168 59.2473723031 73.4374825062 67.3451099418 84.7743152004 c 2
 507.125879547 724.455434626 l 2
 522.359418568 747.305743157 550.436184557 760 580 760 c 0
 621.860378097 760 664 731.801597083 664 688 c 0
 664 676.124557783 660.752627697 662.562517494 652.654890058 651.2256848 c 2
 212.874120453 11.5445653739 l 2
 197.640581432 -11.305743157 169.563815443 -24 140 -24 c 0
140 24 m 0
 156.436184557 24 168.359418568 31.305743157 173.125879547 38.4554346261 c 2
 613.345109942 678.7743152 l 2
 615.247372303 681.437482506 616 683.875442217 616 688 c 0
 616 696.198402917 604.139621903 712 580 712 c 0
 563.563815443 712 551.640581432 704.694256843 546.874120453 697.544565374 c 2
 106.654890058 57.2256847996 l 2
 104.752627697 54.5625174938 104 52.1245577832 104 48 c 0
 104 39.801597083 115.860378097 24 140 24 c 0
EndSplineSet
EndChar

StartChar: zero
Encoding: 48 48 16
Width: 840
Flags: HW
LayerCount: 2
Back
SplineSet
730 368 m 0
 730 186.850585938 591.208984375 40 420 40 c 0
 248.791015625 40 110 186.850585938 110 368 c 0
 110 549.149414062 248.791015625 696 420 696 c 0
 591.208984375 696 730 549.149414062 730 368 c 0
EndSplineSet
Fore
SplineSet
814 368 m 0
 814 226.854101458 742.744203456 98.9899500748 625.619730341 26.5857303309 c 0
 567.091108585 -9.59559948171 496.708679468 -32 420 -32 c 0
 343.29133438 -32 272.908881045 -9.595593071 214.380269659 26.5857303309 c 0
 97.2558004642 98.9899476514 26 226.854098885 26 368 c 0
 26 509.145898542 97.2557965439 637.010049925 214.380269659 709.414269669 c 0
 272.908891415 745.595599482 343.291320532 768 420 768 c 0
 496.70866562 768 567.091118955 745.595593071 625.619730341 709.414269669 c 0
 742.744199536 637.010052349 814 509.145901115 814 368 c 0
766 368 m 0
 766 492.854098885 703.255800464 604.989947651 600.380269659 668.585730331 c 0
 548.908881045 700.404406929 487.29133438 720 420 720 c 0
 352.708679468 720 291.091108585 700.404400518 239.619730341 668.585730331 c 0
 136.744203456 604.989950075 74 492.854101458 74 368 c 0
 74 243.145901115 136.744199536 131.010052349 239.619730341 67.4142696691 c 0
 291.091118955 35.595593071 352.70866562 16 420 16 c 0
 487.291320532 16 548.908891415 35.5955994817 600.380269659 67.4142696691 c 0
 703.255796544 131.010049925 766 243.145898542 766 368 c 0
646 368 m 0
 646 467.679842433 594.107553617 551.106520624 527.329581093 592.617152193 c 0
 493.912760777 613.389770227 457.389680934 624 420 624 c 0
 382.610333984 624 346.087234922 613.389767554 312.670418907 592.617152193 c 0
 245.892666331 551.106657349 194 467.679730085 194 368 c 0
 194 268.320157567 245.892446383 184.893479376 312.670418907 143.382847807 c 0
 346.087239223 122.610229773 382.610319066 112 420 112 c 0
 457.389666016 112 493.912765078 122.610232446 527.329581093 143.382847807 c 0
 594.107333669 184.893342651 646 268.320269915 646 368 c 0
694 368 m 0
 694 251.679730085 633.892666331 153.106657349 552.670418907 102.617152193 c 0
 512.087234922 77.3897675538 466.610333984 64 420 64 c 0
 373.389680934 64 327.912760777 77.3897702271 287.329581093 102.617152193 c 0
 206.107553617 153.106520624 146 251.679842433 146 368 c 0
 146 484.320269915 206.107333669 582.893342651 287.329581093 633.382847807 c 0
 327.912765078 658.610232446 373.389666016 672 420 672 c 0
 466.610319066 672 512.087239223 658.610229773 552.670418907 633.382847807 c 0
 633.892446383 582.893479376 694 484.320157567 694 368 c 0
EndSplineSet
Substitution2: "(ss01) Slashed Zero subtable" zero.ss01
Substitution2: "(ss02) Dotted Zero subtable" zero.ss02
EndChar

StartChar: one
Encoding: 49 49 17
Width: 440
Flags: HW
LayerCount: 2
Back
SplineSet
220 688 m 0
 220 48 l 1024
EndSplineSet
Fore
SplineSet
136 688 m 2
 136 731.799285431 178.143726756 760 220 760 c 0
 261.860378097 760 304 731.801597083 304 688 c 2
 304 48 l 2
 304 4.20071456879 261.856273244 -24 220 -24 c 0
 178.139621903 -24 136 4.19840291703 136 48 c 2
 136 688 l 2
184 688 m 2
 184 48 l 2
 184 39.801597083 195.860378097 24 220 24 c 0
 244.143726756 24 256 39.7992854312 256 48 c 2
 256 688 l 2
 256 696.198402917 244.139621903 712 220 712 c 0
 195.856273244 712 184 696.200714569 184 688 c 2
EndSplineSet
Substitution2: "(ss03) Serifed One subtable" one.ss03
Substitution2: "Tabular Figures subtable" one.tnum
EndChar

StartChar: two
Encoding: 50 50 18
Width: 840
Flags: HW
LayerCount: 2
Back
SplineSet
160 536 m 0
 160 642.828125 267.803710938 696 402.5 696 c 0
 542.5 696 645 624 645 528 c 0
 645 466.232421875 611.278320312 435.219726562 500 382 c 0
 270 272 170 232 170 48 c 0
 680 48 l 1024
EndSplineSet
Fore
SplineSet
244 536 m 0
 244 492.200714569 201.856273244 464 160 464 c 0
 118.139621903 464 76 492.198402917 76 536 c 0
 76 628.245683916 133.997768127 691.831699794 203.266873708 726.466252584 c 0
 261.615521285 755.640576373 330.289969641 768 402 768 c 0
 459.597494665 768 514.561189624 758.624315225 562.913376232 739.283440581 c 0
 658.732285436 700.9558769 729 623.877148913 729 528 c 0
 729 489.741473824 718.426147782 450.257492721 689.186451256 416.339444751 c 0
 654.19385527 375.70288167 605.442776124 349.389155738 541.328932843 319.335791699 c 0
 475.773893317 287.551530111 400.259411908 251.203293177 359.158166907 227.307220502 c 0
 329.103787783 209.462432898 308.466199386 192.32038096 293.73673335 176.826200536 c 0
 278.833867916 159.754559315 268.757064162 142.518451922 262.343216395 120 c 1
 680 120 l 2
 721.860378097 120 764 91.801597083 764 48 c 0
 764 4.20071456879 721.856273244 -24 680 -24 c 2
 170 -24 l 2
 128.139621903 -24 86 4.19840291703 86 48 c 0
 86 135.753847769 107.521956801 207.933116249 160.170601595 266.065994876 c 0
 188.381558271 297.532061938 223.867978743 323.12924883 262.842292983 345.693325495 c 0
 316.250662321 377.532930293 389.882911203 411.764972385 458.600465973 444.629889884 c 0
 517.507616487 473.101679299 546.993390305 493.848531264 553.631644338 501.449954104 c 0
 559.612087701 508.914165255 561 510.368283737 561 528 c 0
 561 560.715310669 540.580688877 589.856565993 492.122515177 608.701411321 c 0
 468.38956939 618.370389235 437.601031105 624 402 624 c 0
 353.648301778 624 314.33138328 615.33287591 288.526739097 602.430553819 c 0
 270.753697926 593.96720088 261.022129651 584.552298008 253.396125342 572.350691113 c 0
 247.806329624 563.267273072 244 551.911069831 244 536 c 0
196 536 m 0
 196 560.088930169 202.193670376 580.732726928 212.603874658 597.649308887 c 0
 224.977870349 617.447701992 243.246302074 634.03279912 267.473260903 645.569446181 c 0
 301.66861672 662.66712409 348.351698222 672 402 672 c 0
 442.398968895 672 479.61043061 665.629610765 509.877484823 653.298588679 c 0
 569.419311123 630.143434007 609 585.284689331 609 528 c 0
 609 503.739929426 602.764720941 485.700871185 590.400978445 470.589630357 c 0
 572.89672284 450.167998817 540.502622386 430.903269489 479.444047853 401.391625132 c 0
 410.058979749 368.207462126 337.77649181 334.483257746 287.157707017 304.306674505 c 0
 250.132021257 282.87075117 219.618441729 260.467938062 195.829398405 233.934005124 c 0
 152.478043199 186.066883751 134 128.246152231 134 48 c 0
 134 39.801597083 145.860378097 24 170 24 c 2
 680 24 l 2
 704.143726756 24 716 39.7992854312 716 48 c 0
 716 56.198402917 704.139621903 72 680 72 c 2
 233 72 l 2
 222.981006579 72 209.00382089 81.6008555192 209.00382089 96.0945359738 c 0
 209.00382089 143.760222082 235.54272649 183.354900041 258.261792295 209.172020274 c 0
 277.60102932 229.648859477 300.869683124 248.521815454 334.841833093 268.692779498 c 0
 379.740588092 294.796706823 454.226106683 330.448469889 520.671067157 362.664208301 c 0
 584.557223876 392.610844262 625.80614473 416.29711833 652.813548744 447.660555249 c 0
 673.573852218 471.742507279 681 498.258526176 681 528 c 0
 681 598.122851087 629.267714564 661.0441231 545.086623768 694.716559419 c 0
 503.438810376 711.375684775 454.402505335 720 402 720 c 0
 335.710030359 720 274.384478715 708.359423627 224.733126292 683.533747416 c 0
 166.002231873 654.168300206 124 605.754316084 124 536 c 0
 124 527.801597083 135.860378097 512 160 512 c 0
 184.143726756 512 196 527.799285431 196 536 c 0
EndSplineSet
EndChar

StartChar: three
Encoding: 51 51 19
Width: 840
Flags: HW
LayerCount: 2
Back
SplineSet
305 422 m 0
 573.830078125 512.845703125 605 688 605 688 c 0
 145 688 l 1024
169.3046875 153.767578125 m 0
 213.583984375 86.4765625 308.078125 40 417.5 40 c 0
 569.37890625 40 695 129.54296875 695 240 c 0
 695 350.45703125 595 444 430 444 c 0
 389.705078125 444 339.484375 433.32421875 305 422 c 1024
EndSplineSet
Fore
SplineSet
605 760 m 2
 649.066256126 760 689 731.0486568 689 688 c 0
 689 681.18616242 687.943425577 679.338450727 687.943425577 679.338450727 c 2
 687.834075927 677.947393644 687.669465822 676.970860783 687.533936217 676.293212757 c 0
 686.086673822 669.056900783 667.025705662 581.660611674 575.346295503 493.403662872 c 1
 625.402429195 476.711372525 668.662646848 451.278478649 701.877320713 418.063804784 c 0
 752.000181923 369.030570991 779 305.59968212 779 240 c 0
 779 79.161588501 604.536351676 -32 418 -32 c 0
 281.846920103 -32 156.717648734 25.000311092 95.9211553129 117.853137407 c 0
 95.668139278 118.239561897 95.3321029502 118.795273347 95.162164589 119.092665479 c 0
 89.8965125931 128.307556472 85 140.001711646 85 154 c 0
 85 197.799285431 127.143726756 226 169 226 c 0
 199.439655607 226 226.917128148 211.890923084 242.000023577 189.266579941 c 0
 269.238934312 147.995503069 336.304799455 112 418 112 c 0
 535.306479274 112 611 180.903760177 611 240 c 0
 611 272.106008291 598.124963016 299.933911487 575.15607619 322.902798313 c 0
 546.537988064 350.679177965 500.041400308 372 430 372 c 0
 406.26943569 372 361.123546645 363.437526559 334.970626782 355.031230889 c 0
 326.556696627 352.627250844 317.182856446 350 305 350 c 0
 263.139621903 350 221 378.198402917 221 422 c 0
 221 450.266136369 240.91339711 471.706812493 258.761349448 482.073411052 c 0
 267.89397953 487.565125486 271.998453199 488.187061832 275.178907362 489.030174353 c 0
 380.48732564 524.997679411 437.532148656 571.808446285 472.849841284 612.702616696 c 0
 473.744152873 613.734514683 475.591169833 615.922196079 475.656330132 616 c 2
 145 616 l 2
 103.139621903 616 61 644.198402917 61 688 c 0
 61 731.799285431 103.143726756 760 145 760 c 2
 605 760 l 2
605 712 m 2
 145 712 l 2
 120.856273244 712 109 696.200714569 109 688 c 0
 109 679.801597083 120.860378097 664 145 664 c 2
 522 664 l 2
 524.219874233 664 529.580313783 663.0813661 532.935918283 661.36365351 c 0
 541.199703674 657.133474355 545.919422649 648.546668775 545.919422649 639.801941286 c 0
 545.919422649 635.55180471 544.804539498 631.264364116 542.439799601 627.421661784 c 0
 534.075826179 613.830204974 523.330019686 597.658761346 509.136537987 581.281667078 c 0
 468.516062464 534.247432262 402.348710868 481.507292093 289.714451031 443.273644259 c 0
 289.271496422 443.12328352 288.430284474 442.868937365 287.820855001 442.716579997 c 0
 286.251156214 442.3241553 285.501191828 442.074972345 285.211574434 441.96358104 c 0
 284.787616304 441.685588782 284.250399779 441.354510249 283.766269751 441.082187109 c 0
 272.4815279 434.734519818 269 427.684324958 269 422 c 0
 269 413.801597083 280.860378097 398 305 398 c 0
 309.125995601 398 313.917056053 398.964655081 321.015579764 400.96466603 c 0
 350.963287269 410.47340215 397.670029466 420 430 420 c 0
 509.958599692 420 569.462011936 395.320822035 608.84392381 357.097201687 c 0
 639.875036984 326.066088513 659 285.893991709 659 240 c 0
 659 141.096239823 548.693520726 64 418 64 c 0
 323.695200545 64 240.761065688 104.004496931 201.999976423 162.733420059 c 0
 197.082871852 170.109076916 184.560344393 178 169 178 c 0
 144.856273244 178 133 162.200714569 133 154 c 0
 133 151.897300661 133.557584325 149.014816518 136.486675812 143.524101387 c 0
 186.19818984 68.8100119044 294.253748559 16 418 16 c 0
 591.463648324 16 731 118.838411499 731 240 c 0
 731 292.40031788 709.999818077 342.969429009 668.122679287 383.936195216 c 0
 632.861336746 419.197537757 582.351246668 445.312432715 520.946654177 458.538037252 c 0
 516.90783242 459.407937323 511.872398311 461.994544323 508.527403419 465.54678242 c 0
 504.217063087 470.124175103 502.108793442 476.038268687 502.108793442 481.937820309 c 0
 502.108793442 488.982827394 505.115222865 496.007097385 510.968348599 500.709608659 c 0
 615.688088458 584.84341675 637.620747375 672.811690952 640.177782199 684.339651163 c 2
 640.177782199 684.339651163 640.378956651 686.228897028 640.958337843 689.174084753 c 0
 640.301372704 697.531387143 630.180215955 712 605 712 c 2
EndSplineSet
EndChar

StartChar: four
Encoding: 52 52 20
Width: 840
Flags: HW
LayerCount: 2
Back
SplineSet
740 270 m 0
 140 270 l 0
 140 332 l 0
 522.5 686 l 0
 600 686 l 0
 600 46 l 1024
EndSplineSet
Fore
SplineSet
600 -26 m 0
 558.139621903 -26 516 2.19840291703 516 46 c 2
 516 198 l 1
 140 198 l 2
 98.1396219031 198 56 226.198402917 56 270 c 2
 56 332 l 2
 56 352.77052158 66.417811662 368.358937159 78.3521301524 380.293255649 c 2
 460.138903737 734.095658395 l 2
 478.828831057 752.024221489 500.862850845 758 523 758 c 2
 600 758 l 2
 641.860378097 758 684 729.801597083 684 686 c 2
 684 342 l 1
 740 342 l 2
 781.860378097 342 824 313.801597083 824 270 c 0
 824 226.200714569 781.856273244 198 740 198 c 2
 684 198 l 1
 684 46 l 2
 684 2.20071456879 641.856273244 -26 600 -26 c 0
600 22 m 0
 624.143726756 22 636 37.7992854312 636 46 c 2
 636 222 l 2
 636 232.300708159 645.472763659 246 660 246 c 2
 740 246 l 2
 764.143726756 246 776 261.799285431 776 270 c 0
 776 278.198402917 764.139621903 294 740 294 c 2
 660 294 l 2
 649.699291841 294 636 303.472763659 636 318 c 2
 636 686 l 2
 636 694.198402917 624.139621903 710 600 710 c 2
 523 710 l 2
 511.020176402 710 499.33357065 705.392445153 493.647869848 699.706744351 c 2
 111.661517534 345.719391683 l 2
 105.616856942 339.520511703 104 335.31567631 104 332 c 2
 104 270 l 2
 104 261.801597083 115.860378097 246 140 246 c 2
 540 246 l 2
 550.300708159 246 564 236.527236341 564 222 c 2
 564 46 l 2
 564 37.801597083 575.860378097 22 600 22 c 0
516 342 m 1
 516 574.082893462 l 1
 265.260925391 342 l 1
 516 342 l 1
564 318 m 2
 564 307.699291841 554.527236341 294 540 294 c 2
 204 294 l 2
 198.075512145 294 192.131701642 296.293053753 187.720192104 300.365719327 c 0
 182.647760313 305.048542327 180.110963286 311.524485635 180.110963286 318.000589837 c 0
 180.110963286 324.465976982 182.639371163 330.931524489 187.697343418 335.613159523 c 2
 523.697343418 646.613159523 l 2
 526.812606912 649.496632578 532.666673939 652.497078545 538.117029949 652.926019807 c 0
 538.733288215 652.974519134 539.346287462 652.998331894 539.955082416 652.998331894 c 0
 552.932791113 652.998331894 564 642.177423954 564 629 c 2
 564 318 l 2
EndSplineSet
EndChar

StartChar: five
Encoding: 53 53 21
Width: 840
Flags: HW
LayerCount: 2
Back
SplineSet
160 155.704101562 m 0
 207.294921875 86.712890625 297.90234375 40 402.5 40 c 0
 555.759765625 40 680 140.288085938 680 264 c 0
 680 387.711914062 555.759765625 488 402.5 488 c 0
 312.235351562 488 230 456 170 400 c 0
 210 688 l 0
 610 688 l 1024
EndSplineSet
Fore
SplineSet
170 328 m 0
 132.686996666 328 86 351.991741862 86 400 c 2
 86 405 l 2
 86 406.059155212 86.1179239431 407.507758106 86.2281854437 408.301640911 c 2
 126.205649696 696.139383525 l 2
 131.220149305 736.255380398 171.786704923 760 210 760 c 2
 610 760 l 2
 651.860378097 760 694 731.801597083 694 688 c 0
 694 644.200714569 651.856273244 616 610 616 c 2
 284.815089641 616 l 1
 274.290734705 542.329515454 l 1
 315.597929705 554.221552875 357.36711135 560 402 560 c 0
 597.809764844 560 764 431.630628922 764 264 c 0
 764 96.3702090248 597.808811388 -32 402 -32 c 0
 268.138103703 -32 149.231015126 28.0222741744 87.302640858 119.285141517 c 0
 79.2922517747 130.499686234 76 144.151863025 76 156 c 0
 76 199.799285431 118.143726756 228 160 228 c 0
 189.573783505 228 217.625618049 215.328188232 232.884595198 192.439722509 c 0
 264.665309878 146.057057841 327.103975556 112 402 112 c 0
 513.24624246 112 596 183.644790708 596 264 c 0
 596 344.36052912 513.252274387 416 402 416 c 0
 335.518903723 416 276.959737507 393.308995832 232.242600853 351.329643055 c 0
 217.827221969 338.355802059 196.606048489 328 170 328 c 0
170 376 m 0
 183.393951511 376 194.172778031 381.644197941 199.757399147 386.670356945 c 0
 253.040262493 436.691004168 324.481096277 464 402 464 c 0
 530.747725613 464 644 379.63947088 644 264 c 0
 644 148.355209292 530.75375754 64 402 64 c 0
 312.896024444 64 235.334690122 103.942942159 193.115404802 165.560277491 c 0
 188.374381951 172.671811768 176.426216495 180 160 180 c 0
 135.856273244 180 124 164.200714569 124 156 c 0
 124 151.848136975 124.707748225 149.500313766 126.697359142 146.714858483 c 0
 178.768984874 69.9777258256 281.861896297 16 402 16 c 0
 580.191188612 16 716 131.629790975 716 264 c 0
 716 396.369371078 580.190235156 512 402 512 c 0
 348.85578243 512 298.886197482 502.518134172 253.833162824 484.684641286 c 0
 252.008771733 483.96248648 246.95669644 482.82760556 243.480395078 483.048156629 c 0
 229.712488572 483.921650087 219.290221427 496.737177477 221.241212152 510.39411255 c 2
 240.241212152 643.39411255 l 2
 241.874417068 654.826546958 252.088284343 664 264 664 c 2
 610 664 l 2
 634.143726756 664 646 679.799285431 646 688 c 0
 646 696.198402917 634.139621903 712 610 712 c 2
 210 712 l 2
 188.213295077 712 174.779850695 697.744619602 173.794350304 689.860616475 c 2
 134 403.341294284 l 1
 134 400 l 2
 134 390.008258138 147.313003334 376 170 376 c 0
EndSplineSet
EndChar

StartChar: six
Encoding: 54 54 22
Width: 840
Flags: HW
LayerCount: 2
Back
SplineSet
647.5 624 m 4
 647.5 624 587.5 696 447.5 696 c 4
 347.5 696 147.5 624.52734375 147.5 368 c 4
 147.5 101.782226562 339.995117188 40 447.5 40 c 4
 611.03515625 40 702.5 131.782226562 702.5 222 c 4
 702.5 318 587.5 404 437.5 404 c 4
 287.984375 404 185.883789062 340.1796875 185.883789062 204 c 1028
EndSplineSet
Fore
SplineSet
732 624 m 0
 732 580.200714569 689.856273244 552 648 552 c 0
 620.963775149 552 595.65750969 563.246244175 580.486072849 580.559063605 c 0
 577.450656675 583.42708647 566.088117699 593.62312542 546.266873708 603.533747416 c 0
 525.434690974 613.949838783 494.447368476 624 448 624 c 0
 415.48463475 624 349.970973207 609.141522788 302.781330882 562.842251074 c 0
 273.926098712 534.708399708 248.178338934 492.948004971 237.265141259 432.869097524 c 1
 295.826580384 463.877181392 365.366451202 476 438 476 c 0
 562.717503381 476 672.768855741 429.126948509 735.326790471 354.496429884 c 0
 767.53175241 316.7388883 786 270.141150699 786 222 c 0
 786 148.804237446 744.809550307 76.6399084849 672.243707934 28.9847284192 c 0
 613.75617265 -10.0069617703 536.871028917 -32 448 -32 c 0
 384.254118865 -32 300.83657831 -16.328961961 226.920994498 31.8768535688 c 0
 132.010599882 93.352904627 64 203.107434357 64 368 c 0
 64 496.633864758 108.545777696 592.633586051 176.278245718 658.215816993 c 0
 259.848266658 739.643016884 369.725742482 768 448 768 c 0
 625.994353441 768 707.687649842 675.664018633 715.43731071 666.364425592 c 0
 715.687331291 666.064400895 716.026474712 665.631367051 716.2 665.4 c 0
 723.302929765 655.92942698 732 642.226682466 732 624 c 0
684 624 m 0
 684 625.753176234 682.893250467 629.676651419 678.193800483 636.070580746 c 0
 672.355540494 642.837191586 603.540718531 720 448 720 c 0
 380.285329977 720 282.124970117 694.330906128 209.748753446 623.810489885 c 0
 151.42894566 567.342104568 112 485.375628202 112 368 c 0
 112 216.899698709 172.018058995 124.628532237 253.047520365 72.1435402131 c 0
 317.197093117 30.3068623317 391.731119799 16 448 16 c 0
 529.128971083 16 596.24382735 36.0069617703 645.756292066 69.0152715808 c 0
 707.190449693 109.360091515 738 167.195762554 738 222 c 0
 738 257.858849301 724.46824759 293.2611117 698.673209529 323.503570116 c 0
 647.231144259 384.873051491 551.282496619 428 438 428 c 0
 364.766801464 428 298.297188008 414.353282398 247.401771662 383.452493902 c 0
 237.868450521 377.732501218 230.225097551 372.556522919 223.804110589 366.938159327 c 0
 219.845749337 363.474593231 214.373992822 361.216523632 208.874783602 361.015947931 c 0
 208.588574918 361.005508883 208.303288091 361.000334748 208.019013389 361.000334748 c 0
 194.938223224 361.000334748 184.000450774 371.955761355 184.000450774 385.022267236 c 0
 184.000450774 484.428460773 226.95140231 555.947163789 269.245596733 597.184003351 c 0
 328.003232794 654.83300477 404.525744843 672 448 672 c 0
 501.552631524 672 540.565309026 660.050161217 567.733126292 646.466252584 c 0
 596.747961287 631.958835087 612.887269039 616.053856458 614.970562748 613.970562748 c 0
 615.304935278 613.636190219 615.911158574 612.987291939 616.321270849 612.502613795 c 0
 622.062612427 605.717391931 632.980667817 600 648 600 c 0
 672.143726756 600 684 615.799285431 684 624 c 0
270.027926006 207.658218057 m 1
 288.340123784 178.582362043 308.471360275 159.312707817 328.969092464 146.194159216 c 0
 368.998859241 120.397198404 415.698346763 112 448 112 c 0
 504.347999254 112 543.181022124 125.014207596 569.613236279 142.919901056 c 0
 603.199951205 165.31104434 618 195.127572756 618 222 c 0
 618 237.923566232 612.786523193 252.899888718 598.599255617 269.59079175 c 0
 571.111634466 302.909120417 513.2036057 332 438 332 c 0
 384.006557177 332 344.132362169 321.290848206 319.431554594 306.470363661 c 0
 290.700722563 288.912632975 271.150674092 262.96031779 270.027926006 207.658218057 c 1
222 204 m 2
 222 275.932585855 251.657217324 321.306108067 294.568445406 347.529636339 c 0
 329.867637831 368.709151794 377.993442823 380 438 380 c 0
 524.7963943 380 596.888365534 347.090879583 635.400744383 300.40920825 c 0
 655.213476807 277.100111282 666 250.076433768 666 222 c 0
 666 176.872427244 640.800048795 132.68895566 596.386763721 103.080098944 c 0
 560.818977876 78.9857924038 511.652000746 64 448 64 c 0
 408.286254928 64 353.035778277 73.5804796398 302.999167991 105.826295158 c 0
 274.719465341 123.925304854 247.120568991 151.759633699 225.313578836 188.831516962 c 0
 223.167644451 192.479605417 222 196.738527245 222 201 c 2
 222 204 l 2
EndSplineSet
EndChar

StartChar: seven
Encoding: 55 55 23
Width: 840
Flags: HW
LayerCount: 2
Back
SplineSet
130 688 m 0
 690 688 l 0
 690 630 l 0
 690 630 350 480 350 80 c 0
 350 48 l 1024
EndSplineSet
Fore
SplineSet
690 760 m 2
 734.860657719 760 774 728.951799096 774 688 c 2
 774 630 l 2
 774 601.613777625 754.825597185 577.043682154 728.285394372 565.868859917 c 0
 727.457933733 565.513345142 705.221318746 555.867393904 665.723023881 528.310443998 c 0
 634.068077737 506.247905776 595.74730157 474.633456728 559.303362688 431.476160684 c 0
 493.146120491 353.813311148 434 241.804164758 434 80 c 2
 434 48 l 2
 434 4.20071456879 391.856273244 -24 350 -24 c 0
 308.139621903 -24 266 4.19840291703 266 48 c 2
 266 80 l 2
 266 357.346735472 416.920132013 528.356804697 527.817631204 616 c 1
 130 616 l 2
 88.1396219031 616 46 644.198402917 46 688 c 0
 46 731.799285431 88.1437267555 760 130 760 c 2
 690 760 l 2
690 712 m 2
 130 712 l 2
 105.856273244 712 94 696.200714569 94 688 c 0
 94 679.801597083 105.860378097 664 130 664 c 2
 603 664 l 2
 610.094046771 664 617.640486001 660.472768687 622.192501058 654.409993169 c 0
 625.381876435 650.162101475 626.903188302 645.140650113 626.903188302 640.149157333 c 0
 626.903188302 632.17729105 623.0227805 624.281840074 615.859786554 619.736093916 c 0
 514.905776668 555.669126104 314 390.30737487 314 80 c 2
 314 48 l 2
 314 39.801597083 325.860378097 24 350 24 c 0
 374.143726756 24 386 39.7992854312 386 48 c 2
 386 80 l 2
 386 254.195835242 450.853879509 378.186688852 522.696637312 462.523839316 c 0
 562.25269843 509.366543272 603.931922263 543.752094224 638.276976119 567.689556002 c 0
 682.265151492 598.378980681 707.162163785 609.059254189 709.955404568 610.232131436 c 0
 720.947961682 615.096709943 726 624.248287966 726 630 c 2
 726 688 l 2
 726 695.048200904 715.139342281 712 690 712 c 2
EndSplineSet
EndChar

StartChar: eight
Encoding: 56 56 24
Width: 840
Flags: HW
LayerCount: 2
Back
SplineSet
525 380 m 0
 525 380 675 451.756835938 675 544 c 0
 675 628.595703125 558.09375 696 420 696 c 0
 271.90625 696 165 628.333007812 165 544 c 0
 165 456 275.233398438 386 432.5 386 c 0
 611.336914062 386 695 297.151367188 695 216 c 0
 695 125.171875 597.651367188 40 420 40 c 0
 255 40 145 136 145 228 c 0
 145 352 305 400 305 400 c 1024
EndSplineSet
Fore
SplineSet
201 544 m 0
 201 559.186500249 204.994208296 575.304628986 213.343951094 589.220866981 c 0
 241.040562044 636.700771468 316.574843516 672 420 672 c 0
 501.973650917 672 572.590921258 645.350204239 609.970562748 607.970562748 c 0
 628.348061142 589.593064355 639 567.378618374 639 544 c 0
 639 509.375662033 613.539952028 477.424377885 583.652989409 451.806981354 c 0
 559.913740429 431.304902689 535.564039659 416.537424668 520.907334521 408.162164589 c 0
 516.379973058 405.575100896 510.507703955 404.624763761 506.02316637 405.185330959 c 0
 482.837155532 408.083582314 457.815490109 410 432 410 c 0
 320.390658481 410 243.102672765 447.996339462 214.612119385 496.320676676 c 0
 204.212359594 513.263954579 201 527.932561394 201 544 c 0
249 544 m 0
 249 535.797488977 250.577929133 529.223499283 255.518071772 521.460417993 c 0
 271.24174413 494.301347557 329.307900997 458 432 458 c 0
 457.368780959 458 479.921776825 456.477706813 503.865002876 453.78261381 c 1
 516.851074751 461.52679953 535.280745284 473.453971335 552.313123112 488.163752186 c 0
 578.491729308 510.602557497 591 534.613882125 591 544 c 0
 591 552.621381626 587.651938858 562.406935645 576.029437252 574.029437252 c 0
 551.409078742 598.649795761 492.026349083 624 420 624 c 0
 325.425156484 624 268.959437956 589.299228532 254.656048906 564.779133019 c 0
 251.005791704 558.695371014 249 550.813499751 249 544 c 0
659 216 m 0
 659 161.732861603 621.767574639 114.039557119 552.640406987 86.6081413841 c 0
 517.541673175 73.4461162046 473.957906142 64 420 64 c 0
 277.014426867 64 181 146.206012616 181 228 c 0
 181 296.203586135 234.715165241 338.131918547 276.675051919 360.160859053 c 0
 289.028574732 366.899144224 300.039689018 370.852660239 303.266873708 372.466252584 c 0
 308.167420563 374.916526012 314.221664661 375.506658319 319.071987021 374.457939971 c 0
 354.686869448 366.757424851 391.910712827 362 432 362 c 0
 503.493417649 362 555.926996464 346.290667658 591.559923997 324.451131428 c 0
 636.648836427 296.704108394 659 255.273435974 659 216 c 0
611 216 m 0
 611 236.73068696 599.367911014 263.285585489 566.421661784 283.560200399 c 0
 540.09017921 299.698851009 496.4997061 314 432 314 c 0
 391.034055691 314 352.825625483 318.556669883 316.689154403 325.912824139 c 0
 312.757779396 324.249919796 305.727452392 321.331416026 299.324948081 317.839140947 c 0
 261.284834759 297.868081453 229 267.796413865 229 228 c 0
 229 185.793987384 290.985573133 112 420 112 c 0
 468.042093858 112 506.458326825 120.553883795 535.359593013 131.391858616 c 0
 592.232425361 153.960442881 611 186.267138397 611 216 c 0
205.143820193 380.919163595 m 1
 153.420899308 347.064160834 109 296.526871366 109 228 c 0
 109 125.610533513 232.911383291 16 420 16 c 0
 506.471517814 16 578.361991824 35.3099932454 630.94108004 65.7505180021 c 0
 697.357677761 104.493533339 731 160.274883883 731 216 c 0
 731 266.467184146 702.511857558 320.242672016 639.478444782 359.524364035 c 2
 624.65210187 368.420169783 l 2
 617.190429342 372.8971733 613.092871936 380.983755872 613.092871936 389.164929217 c 0
 613.092871936 393.954060081 614.497001766 398.775604823 617.452387374 402.924469133 c 0
 618.958359412 405.038600575 622.873848816 408.403578641 623.050283351 408.529603309 c 0
 628.139925818 412.165062214 632.589967219 416.544124327 640.340603337 423.187526714 c 0
 676.027379324 454.051765405 711 495.738372855 711 544 c 0
 711 576.532765659 696.515302773 607.54357173 670.029437252 634.029437252 c 0
 617.189341866 686.869532637 523.381909014 720 420 720 c 0
 293.200783345 720 188.221245666 674.347596606 146.73242445 605.906821987 c 0
 134.973747752 584.851560444 129 565.046838171 129 544 c 0
 129 521.040324703 134.688664763 499.884320522 146.647462761 480.23772381 c 0
 159.552758371 457.868544754 179.371977683 438.572885399 205.47603404 420.859418585 c 0
 212.274177667 416.246392553 215.898931604 408.588072557 215.898931604 400.872364443 c 0
 215.898931604 395.631773946 214.226734757 390.364708761 210.740911414 386.007393843 c 0
 208.982486504 383.809344677 205.143820193 380.919163595 205.143820193 380.919163595 c 1
151.768993825 401.430071902 m 1
 134.658674583 416.028086205 116.980182813 435.607690527 105.352537239 455.76227619 c 0
 89.3113352368 482.115679478 81 512.959675297 81 544 c 0
 81 575.185969271 90.3546869798 603.710027045 105.259834508 630.080672671 c 0
 160.149906837 721.564126553 284.523449811 768 420 768 c 0
 532.618090986 768 638.810658134 733.130467363 703.970562748 667.970562748 c 0
 737.484697227 634.45642827 759 591.467234341 759 544 c 0
 759 475.877105825 715.13799581 425.732970981 677.49612038 391.946706479 c 1
 742.966478168 346.352454859 779 281.648964722 779 216 c 0
 779 139.73187971 732.61179211 69.4886574186 655.092904613 24.2693063784 c 0
 593.603354655 -11.3299067548 513.543242264 -32 420 -32 c 0
 219.088616709 -32 61 86.3894664874 61 228 c 0
 61 305.11191213 103.612203254 362.652441841 151.768993825 401.430071902 c 1
EndSplineSet
EndChar

StartChar: nine
Encoding: 57 57 25
Width: 840
Flags: HW
LayerCount: 2
Back
SplineSet
192.5 112 m 0
 192.5 112 252.5 40 392.5 40 c 0
 492.5 40 692.5 111.47265625 692.5 368 c 0
 692.5 634.217773438 500.004882812 696 392.5 696 c 0
 228.96484375 696 137.5 604.217773438 137.5 514 c 0
 137.5 418 252.5 332 402.5 332 c 0
 552.015625 332 654.116210938 395.8203125 654.116210938 532 c 1024
EndSplineSet
Fore
SplineSet
108 112 m 0
 108 155.799285431 150.143726756 184 192 184 c 0
 219.036224851 184 244.34249031 172.753755825 259.513927151 155.440936395 c 0
 262.549343325 152.57291353 273.911882301 142.37687458 293.733126292 132.466252584 c 0
 314.565309026 122.050161217 345.552631524 112 392 112 c 0
 424.51536525 112 490.029026793 126.858477212 537.218669118 173.157748926 c 0
 566.073901288 201.291600292 591.821661066 243.051995029 602.734858741 303.130902476 c 1
 544.173419616 272.122818608 474.633548798 260 402 260 c 0
 277.282496619 260 167.231144259 306.873051491 104.673209529 381.503570116 c 0
 72.4682475898 419.2611117 54 465.858849301 54 514 c 0
 54 587.195762554 95.1904496929 659.360091515 167.756292066 707.015271581 c 0
 226.24382735 746.00696177 303.128971083 768 392 768 c 0
 455.745881135 768 539.16342169 752.328961961 613.079005502 704.123146431 c 0
 707.989400118 642.647095373 776 532.892565643 776 368 c 0
 776 239.366135242 731.454222304 143.366413949 663.721754282 77.7841830068 c 0
 580.151733342 -3.64301688376 470.274257518 -32 392 -32 c 0
 214.005646559 -32 132.312350158 60.3359813665 124.56268929 69.6355744081 c 0
 124.312668709 69.9355991047 123.973525288 70.3686329494 123.8 70.6 c 0
 116.697070235 80.0705730204 108 93.7733175336 108 112 c 0
156 112 m 0
 156 110.246823766 157.106749533 106.323348581 161.806199517 99.9294192543 c 0
 167.644459506 93.1628084142 236.459281469 16 392 16 c 0
 459.714670023 16 557.875029883 41.6690938719 630.251246554 112.189510115 c 0
 688.57105434 168.657895432 728 250.624371798 728 368 c 0
 728 519.100301291 667.981941005 611.371467763 586.952479635 663.856459787 c 0
 522.802906883 705.693137668 448.268880201 720 392 720 c 0
 310.871028917 720 243.75617265 699.99303823 194.243707934 666.984728419 c 0
 132.809550307 626.639908485 102 568.804237446 102 514 c 0
 102 478.141150699 115.53175241 442.7388883 141.326790471 412.496429884 c 0
 192.768855741 351.126948509 288.717503381 308 402 308 c 0
 475.233198536 308 541.702811992 321.646717602 592.598228338 352.547506098 c 0
 602.131549479 358.267498782 609.774902449 363.443477081 616.195889411 369.061840673 c 0
 620.154250663 372.525406769 625.626007178 374.783476368 631.125216398 374.984052069 c 0
 631.411425082 374.994491117 631.696711909 374.999665252 631.980986611 374.999665252 c 0
 645.061776776 374.999665252 655.999549226 364.044238645 655.999549226 350.977732764 c 0
 655.999549226 251.571539227 613.04859769 180.052836211 570.754403267 138.815996649 c 0
 511.996767206 81.1669952305 435.474255157 64 392 64 c 0
 338.447368476 64 299.434690974 75.9498387828 272.266873708 89.533747416 c 0
 243.252038713 104.041164913 227.112730961 119.946143542 225.029437252 122.029437252 c 0
 224.695064722 122.363809781 224.088841426 123.012708061 223.678729151 123.497386205 c 0
 217.937387573 130.282608069 207.019332183 136 192 136 c 0
 167.856273244 136 156 120.200714569 156 112 c 0
569.972073994 528.341781943 m 1
 551.659876216 557.417637957 531.528639725 576.687292183 511.030907536 589.805840784 c 0
 471.001140759 615.602801596 424.301653237 624 392 624 c 0
 335.652000746 624 296.818977876 610.985792404 270.386763721 593.080098944 c 0
 236.800048795 570.68895566 222 540.872427244 222 514 c 0
 222 498.076433768 227.213476807 483.100111282 241.400744383 466.40920825 c 0
 268.888365534 433.090879583 326.7963943 404 402 404 c 0
 455.993442823 404 495.867637831 414.709151794 520.568445406 429.529636339 c 0
 549.299277437 447.087367025 568.849325908 473.03968221 569.972073994 528.341781943 c 1
618 532 m 2
 618 460.067414145 588.342782676 414.693891933 545.431554594 388.470363661 c 0
 510.132362169 367.290848206 462.006557177 356 402 356 c 0
 315.2036057 356 243.111634466 388.909120417 204.599255617 435.59079175 c 0
 184.786523193 458.899888718 174 485.923566232 174 514 c 0
 174 559.127572756 199.199951205 603.31104434 243.613236279 632.919901056 c 0
 279.181022124 657.014207596 328.347999254 672 392 672 c 0
 431.713745072 672 486.964221723 662.41952036 537.000832009 630.173704842 c 0
 565.280534659 612.074695146 592.879431009 584.240366301 614.686421164 547.168483038 c 0
 616.832355549 543.520394583 618 539.261472755 618 535 c 2
 618 532 l 2
EndSplineSet
EndChar

StartChar: colon
Encoding: 58 58 26
Width: 360
Flags: HW
LayerCount: 2
Back
SplineSet
208.396484375 456 m 1
 203.26953125 443.068359375 186.634765625 432 170 432 c 0
 160 432 150 440 150 448 c 0
 150 450.692382812 150.56640625 453.383789062 151.603515625 456 c 1025
151.603515625 456 m 1
 156.73046875 468.931640625 173.365234375 480 190 480 c 0
 200 480 210 472 210 464 c 0
 210 461.307617188 209.43359375 458.616210938 208.396484375 456 c 1025
208.396484375 72 m 1
 203.26953125 59.068359375 186.634765625 48 170 48 c 0
 160 48 150 56 150 64 c 0
 150 66.6923828125 150.56640625 69.3837890625 151.603515625 72 c 1025
151.603515625 72 m 1
 156.73046875 84.931640625 173.365234375 96 190 96 c 0
 200 96 210 88 210 80 c 0
 210 77.3076171875 209.43359375 74.6162109375 208.396484375 72 c 1025
EndSplineSet
Fore
SplineSet
70.0132321434 87.797494689 m 0
 70.1023672297 90.3746932003 70.7465372678 93.3067385199 71.4797651964 95.2969286119 c 0
 81.3563239074 122.104730828 102.450638079 139.372034864 123.524383082 151.079670977 c 0
 141.562025629 160.699747002 163.437934652 168 190 168 c 0
 224.692121386 168 250.055091742 153.6109418 266.211669128 138.697178059 c 0
 279.775691838 126.366248323 294 106.759952572 294 80 c 0
 294 70.5014496172 291.533876944 61.3273041638 289.986767857 56.202505311 c 0
 289.89763277 53.6253067997 289.253462732 50.6932614801 288.520234804 48.7030713881 c 0
 278.643676093 21.8952691725 257.549361921 4.62796513579 236.475616918 -7.07967097683 c 0
 218.437974371 -16.6997470021 196.562065348 -24 170 -24 c 0
 142.07771677 -24 119.632669734 -13.9328566933 104.687195291 -3.96920706411 c 0
 85.5494197489 8.78930996366 66 31.6277803977 66 64 c 0
 66 73.4985503828 68.4661230558 82.6726958362 70.0132321434 87.797494689 c 0
117.916852869 82.0037245579 m 0
 117.811480677 80.760718132 117.347041958 78.146462031 116.768399153 76.4105336156 c 0
 115.011195647 71.1389230973 114 66.4827463614 114 64 c 0
 114 52.3722196023 120.450580251 43.2106900363 131.312804709 35.9692070641 c 0
 140.367330266 29.9328566933 153.92228323 24 170 24 c 0
 187.437934652 24 201.562025629 28.6997470021 213.524383082 35.0796709768 c 0
 226.819344661 42.4657607433 236.716779523 51.2649451581 242.083147131 61.9962754421 c 0
 242.188519323 63.239281868 242.652958042 65.853537969 243.231600847 67.5894663844 c 0
 244.988804353 72.8610769027 246 77.5172536386 246 80 c 0
 246 89.2400474283 242.224308162 95.6337516768 233.788330872 103.302821941 c 0
 223.944908258 112.3890582 211.307878614 120 190 120 c 0
 172.562065348 120 158.437974371 115.300252998 146.475616918 108.920329023 c 0
 133.180655339 101.534239257 123.283220477 92.7350548419 117.916852869 82.0037245579 c 0
70.0132321434 471.797494689 m 0
 70.1023672297 474.3746932 70.7465372678 477.30673852 71.4797651964 479.296928612 c 0
 81.3563239074 506.104730828 102.450638079 523.372034864 123.524383082 535.079670977 c 0
 141.562025629 544.699747002 163.437934652 552 190 552 c 0
 224.692121386 552 250.055091742 537.6109418 266.211669128 522.697178059 c 0
 279.775691838 510.366248323 294 490.759952572 294 464 c 0
 294 454.501449617 291.533876944 445.327304164 289.986767857 440.202505311 c 0
 289.89763277 437.6253068 289.253462732 434.69326148 288.520234804 432.703071388 c 0
 278.643676093 405.895269172 257.549361921 388.627965136 236.475616918 376.920329023 c 0
 218.437974371 367.300252998 196.562065348 360 170 360 c 0
 135.307878614 360 109.944908258 374.3890582 93.7883308717 389.302821941 c 0
 80.224308162 401.633751677 66 421.240047428 66 448 c 0
 66 457.498550383 68.4661230558 466.672695836 70.0132321434 471.797494689 c 0
117.916852869 466.003724558 m 0
 117.811480677 464.760718132 117.347041958 462.146462031 116.768399153 460.410533616 c 0
 115.011195647 455.138923097 114 450.482746361 114 448 c 0
 114 438.759952572 117.775691838 432.366248323 126.211669128 424.697178059 c 0
 136.055091742 415.6109418 148.692121386 408 170 408 c 0
 187.437934652 408 201.562025629 412.699747002 213.524383082 419.079670977 c 0
 226.819344661 426.465760743 236.716779523 435.264945158 242.083147131 445.996275442 c 0
 242.188519323 447.239281868 242.652958042 449.853537969 243.231600847 451.589466384 c 0
 244.988804353 456.861076903 246 461.517253639 246 464 c 0
 246 473.240047428 242.224308162 479.633751677 233.788330872 487.302821941 c 0
 223.944908258 496.3890582 211.307878614 504 190 504 c 0
 172.562065348 504 158.437974371 499.300252998 146.475616918 492.920329023 c 0
 133.180655339 485.534239257 123.283220477 476.735054842 117.916852869 466.003724558 c 0
EndSplineSet
EndChar

StartChar: semicolon
Encoding: 59 59 27
Width: 370
Flags: HW
LayerCount: 2
Back
SplineSet
190 96 m 0
 200 96 210 88.0009765625 210 79.9990234375 c 0
 210 64 190 48 170 48 c 0
 160.000976562 48 150 56 150 64 c 0
 150 80 170 96 190 96 c 0
 200 96 220 88 220 64 c 0
 220 24 177.5 -56 177.5 -56 c 1024
208.396484375 456 m 1
 203.26953125 443.068359375 186.634765625 432 170 432 c 0
 160 432 150 440 150 448 c 0
 150 450.692382812 150.56640625 453.383789062 151.603515625 456 c 1025
151.603515625 456 m 1
 156.73046875 468.931640625 173.365234375 480 190 480 c 0
 200 480 210 472 210 464 c 0
 210 461.307617188 209.43359375 458.616210938 208.396484375 456 c 1025
EndSplineSet
Fore
SplineSet
70.0132321434 471.797494689 m 0
 70.1023672297 474.3746932 70.7465372678 477.30673852 71.4797651964 479.296928612 c 0
 81.3563239074 506.104730828 102.450638079 523.372034864 123.524383082 535.079670977 c 0
 141.562025629 544.699747002 163.437934652 552 190 552 c 0
 224.692121386 552 250.055091742 537.6109418 266.211669128 522.697178059 c 0
 279.775691838 510.366248323 294 490.759952572 294 464 c 0
 294 454.501449617 291.533876944 445.327304164 289.986767857 440.202505311 c 0
 289.89763277 437.6253068 289.253462732 434.69326148 288.520234804 432.703071388 c 0
 278.643676093 405.895269172 257.549361921 388.627965136 236.475616918 376.920329023 c 0
 218.437974371 367.300252998 196.562065348 360 170 360 c 0
 135.307878614 360 109.944908258 374.3890582 93.7883308717 389.302821941 c 0
 80.224308162 401.633751677 66 421.240047428 66 448 c 0
 66 457.498550383 68.4661230558 466.672695836 70.0132321434 471.797494689 c 0
117.916852869 466.003724558 m 0
 117.811480677 464.760718132 117.347041958 462.146462031 116.768399153 460.410533616 c 0
 115.011195647 455.138923097 114 450.482746361 114 448 c 0
 114 438.759952572 117.775691838 432.366248323 126.211669128 424.697178059 c 0
 136.055091742 415.6109418 148.692121386 408 170 408 c 0
 187.437934652 408 201.562025629 412.699747002 213.524383082 419.079670977 c 0
 226.819344661 426.465760743 236.716779523 435.264945158 242.083147131 445.996275442 c 0
 242.188519323 447.239281868 242.652958042 449.853537969 243.231600847 451.589466384 c 0
 244.988804353 456.861076903 246 461.517253639 246 464 c 0
 246 473.240047428 242.224308162 479.633751677 233.788330872 487.302821941 c 0
 223.944908258 496.3890582 211.307878614 504 190 504 c 0
 172.562065348 504 158.437974371 499.300252998 146.475616918 492.920329023 c 0
 133.180655339 485.534239257 123.283220477 476.735054842 117.916852869 466.003724558 c 0
304 64 m 0
 304 47.1617457323 300.324187012 33.3422130312 297.237947349 20.9972543814 c 0
 292.884132195 4.67044755294 287.602013323 -11.1881537604 281.096410091 -26.3678946341 c 0
 269.68080639 -53.5897188441 257.635640784 -78.4820584426 255.665465769 -82.9003799258 c 0
 255.022241516 -84.6573289615 254.722180194 -85.2635726862 254.210909992 -86.2293052901 c 0
 239.938738145 -113.187852112 208.990218463 -128 177 -128 c 0
 135.139621903 -128 93 -99.801597083 93 -56 c 0
 93 -44.0250501375 96.3490012031 -34.6363661338 100.75986909 -25.8146303595 c 0
 100.80690516 -25.7297011865 105.684109685 -16.7576610549 110.241001464 -7.47206026663 c 1
 102.591475071 -2.42427423736 98.8142360381 0.897106028457 94.0244316923 5.08818483106 c 0
 79.9940292934 17.8430961028 66 37.1546605433 66 64 c 0
 66 101.611264178 88.9361024584 128.23676433 112.737903752 144.007838836 c 0
 132.748117798 157.567520224 157.701036083 168 190 168 c 0
 203.450632794 168 214.295860539 165.664668619 224.299079609 163.163863851 c 0
 266.413452049 150.777283722 304 116.178689975 304 64 c 0
256 64 m 0
 256 89.6915505072 238.502641296 108.696085774 211.686320279 116.839289187 c 0
 205.70943142 118.305883977 196.550264904 120 190 120 c 0
 168.401106756 120 152.82264247 113.31583494 139.340445278 104.04682437 c 0
 123.082963521 93.4794612279 114 80.5782182474 114 64 c 0
 114 54.8312665011 117.376186282 48.8856122667 125.961668495 40.9232064873 c 0
 133.046687004 34.7623997727 140.001124015 29.5314841875 148.59330707 27.0765747434 c 0
 156.714358969 24.7562742006 165.894991302 14.8953634901 165.894991302 3.33617138385 c 0
 165.894991302 0.443473907313 165.320049792 -2.55557925752 164.00968135 -5.56942667395 c 0
 154.442058981 -27.5749581225 145.051900866 -44.8799877138 143.269528421 -48.1297086364 c 0
 141.657088789 -51.4700602819 141 -53.9136808158 141 -56 c 0
 141 -64.198402917 152.860378097 -80 177 -80 c 0
 193.8475252 -80 206.588291275 -72.0345030474 211.195394146 -64.8038160966 c 0
 213.699211034 -58.8789186355 225.071924168 -35.846077518 236.903589909 -7.63210536586 c 0
 242.397986677 5.18815376036 247.115867805 19.3295524471 250.762052651 33.0027456186 c 0
 253.675812988 44.6577869688 256 54.8382542677 256 64 c 0
EndSplineSet
EndChar

StartChar: less
Encoding: 60 60 28
Width: 800
Flags: HW
LayerCount: 2
Back
SplineSet
670 152 m 0
 130 368 l 1024
670 584 m 0
 130 368 l 1024
EndSplineSet
Fore
SplineSet
754 152 m 0
 754 108.200714569 711.856273244 80 670 80 c 0
 656.633210434 80 645.127660094 82.5701162287 634.321619186 86.6223815691 c 2
 98.853815354 301.206881806 l 2
 96.5830799437 301.517223217 94.3072982206 302.198365219 92.6866319986 302.880750997 c 0
 67.1498861875 313.633065022 46 337.174397489 46 368 c 0
 46 400.505155812 69.7017735895 425.149690781 97.8474947985 434.588073704 c 2
 634.325198989 649.378960857 l 2
 645.123350511 653.428267677 656.635249389 656 670 656 c 0
 711.860378097 656 754 627.801597083 754 584 c 0
 754 553.029954363 732.512143009 529.356068179 705.904501197 518.713011454 c 2
 328.686385823 368 l 1
 705.913376232 217.283440581 l 2
 732.505026323 206.646780545 754 182.969791253 754 152 c 0
706 152 m 0
 706 159.030208747 701.494973677 167.353219455 688.086623768 172.716559419 c 2
 255.095498803 345.713011454 l 2
 250.54342818 347.531737131 245.141236064 351.985349779 242.480332487 357.374374835 c 0
 240.833987559 360.708653517 240.060960307 364.264858532 240.060960307 367.781334983 c 0
 240.060960307 377.310647224 245.737745912 386.548209677 255.095498803 390.286988546 c 2
 688.095498803 563.286988546 l 2
 701.487856991 568.643931821 706 576.970045637 706 584 c 0
 706 592.198402917 694.139621903 608 670 608 c 0
 663.261367729 608 658.071345547 606.938888382 651.69896779 604.630714855 c 2
 114.920529365 389.719422004 l 2
 114.537364955 389.566013534 113.806100106 389.298167021 113.276887775 389.12978128 c 0
 99.0135131647 384.591434813 94 375.779850549 94 368 c 0
 94 361.394355704 97.7095388045 354.215707574 108.080104659 348.651036676 c 0
 109.160449944 348.458303071 111.430704016 347.87761507 112.927626687 347.277735112 c 2
 651.701127794 131.368502758 l 2
 656.885569724 129.490617913 663.349284766 128 670 128 c 0
 694.143726756 128 706 143.799285431 706 152 c 0
EndSplineSet
EndChar

StartChar: equal
Encoding: 61 61 29
Width: 800
Flags: HW
AnchorPoint: "middle" 400 368 basechar 0
LayerCount: 2
Back
SplineSet
130 248 m 0
 670 248 l 1024
130 488 m 0
 670 488 l 1024
EndSplineSet
Fore
SplineSet
130 416 m 2
 88.1396219031 416 46 444.198402917 46 488 c 0
 46 531.799285431 88.1437267555 560 130 560 c 2
 670 560 l 2
 711.860378097 560 754 531.801597083 754 488 c 0
 754 444.200714569 711.856273244 416 670 416 c 2
 130 416 l 2
130 464 m 2
 670 464 l 2
 694.143726756 464 706 479.799285431 706 488 c 0
 706 496.198402917 694.139621903 512 670 512 c 2
 130 512 l 2
 105.856273244 512 94 496.200714569 94 488 c 0
 94 479.801597083 105.860378097 464 130 464 c 2
130 176 m 2
 88.1396219031 176 46 204.198402917 46 248 c 0
 46 291.799285431 88.1437267555 320 130 320 c 2
 670 320 l 2
 711.860378097 320 754 291.801597083 754 248 c 0
 754 204.200714569 711.856273244 176 670 176 c 2
 130 176 l 2
130 224 m 2
 670 224 l 2
 694.143726756 224 706 239.799285431 706 248 c 0
 706 256.198402917 694.139621903 272 670 272 c 2
 130 272 l 2
 105.856273244 272 94 256.200714569 94 248 c 0
 94 239.801597083 105.860378097 224 130 224 c 2
EndSplineSet
EndChar

StartChar: greater
Encoding: 62 62 30
Width: 800
Flags: HW
LayerCount: 2
Back
SplineSet
130 152 m 0
 670 368 l 1024
130 584 m 0
 670 368 l 1024
EndSplineSet
Fore
SplineSet
130 80 m 0
 88.1396219031 80 46 108.198402917 46 152 c 0
 46 182.970045637 67.4878569912 206.643931821 94.0954988028 217.286988546 c 2
 471.313614177 368 l 1
 94.0866237675 518.716559419 l 2
 67.4949736771 529.353219455 46 553.030208747 46 584 c 0
 46 627.799285431 88.1437267555 656 130 656 c 0
 143.366789566 656 154.872339906 653.429883771 165.678380814 649.377618431 c 2
 701.146184646 434.793118194 l 2
 703.416920056 434.482776783 705.692701779 433.801634781 707.313368001 433.119249003 c 0
 732.850113812 422.366934978 754 398.825602511 754 368 c 0
 754 335.494844188 730.298226411 310.850309219 702.152505201 301.411926296 c 2
 165.674801011 86.621039143 l 2
 154.876649489 82.5717323226 143.364750611 80 130 80 c 0
130 128 m 0
 136.738632271 128 141.928654453 129.061111618 148.30103221 131.369285145 c 2
 685.079470635 346.280577996 l 2
 685.462635045 346.433986466 686.193899894 346.701832979 686.723112225 346.87021872 c 0
 700.986486835 351.408565187 706 360.220149451 706 368 c 0
 706 374.605644296 702.290461196 381.784292426 691.919895341 387.348963324 c 0
 690.839550056 387.541696929 688.569295984 388.12238493 687.072373313 388.722264888 c 2
 148.298872206 604.631497242 l 2
 143.114430276 606.509382087 136.650715234 608 130 608 c 0
 105.856273244 608 94 592.200714569 94 584 c 0
 94 576.969791253 98.5050263229 568.646780545 111.913376232 563.283440581 c 2
 544.904501197 390.286988546 l 2
 549.45657182 388.468262869 554.858763936 384.014650221 557.519667513 378.625625165 c 0
 559.166012441 375.291346483 559.939039693 371.735141468 559.939039693 368.218665017 c 0
 559.939039693 358.689352776 554.262254088 349.451790323 544.904501197 345.713011454 c 2
 111.904501197 172.713011454 l 2
 98.5121430088 167.356068179 94 159.029954363 94 152 c 0
 94 143.801597083 105.860378097 128 130 128 c 0
EndSplineSet
EndChar

StartChar: question
Encoding: 63 63 31
Width: 800
Flags: HW
LayerCount: 2
Back
SplineSet
408.396484375 72 m 1
 403.26953125 59.068359375 386.634765625 48 370 48 c 0
 360 48 350 56 350 64 c 0
 350 66.6923828125 350.56640625 69.3837890625 351.603515625 72 c 1025
351.603515625 72 m 1
 356.73046875 84.931640625 373.365234375 96 390 96 c 0
 400 96 410 88 410 80 c 0
 410 77.3076171875 409.43359375 74.6162109375 408.396484375 72 c 1025
140 536 m 0
 140 642.828125 245.303710938 696 380 696 c 0
 520 696 620 648 620 560 c 0
 620 490.232421875 576.1640625 459.178710938 500 424 c 0
 405.630859375 380.413085938 380 344 380 240 c 1024
EndSplineSet
Fore
SplineSet
270.013232143 87.797494689 m 0
 270.10236723 90.3746932003 270.746537268 93.3067385199 271.479765196 95.2969286119 c 0
 281.356323907 122.104730828 302.450638079 139.372034864 323.524383082 151.079670977 c 0
 341.562025629 160.699747002 363.437934652 168 390 168 c 0
 417.92228323 168 440.367330266 157.932856693 455.312804709 147.969207064 c 0
 474.450580251 135.210690036 494 112.372219602 494 80 c 0
 494 70.5014496172 491.533876944 61.3273041638 489.986767857 56.202505311 c 0
 489.89763277 53.6253067997 489.253462732 50.6932614801 488.520234804 48.7030713881 c 0
 478.643676093 21.8952691725 457.549361921 4.62796513579 436.475616918 -7.07967097683 c 0
 418.437974371 -16.6997470021 396.562065348 -24 370 -24 c 0
 342.07771677 -24 319.632669734 -13.9328566934 304.687195291 -3.96920706411 c 0
 285.549419749 8.78930996366 266 31.6277803977 266 64 c 0
 266 73.4985503828 268.466123056 82.6726958362 270.013232143 87.797494689 c 0
317.916852869 82.0037245579 m 0
 317.811480677 80.760718132 317.347041958 78.146462031 316.768399153 76.4105336156 c 0
 315.011195647 71.1389230973 314 66.4827463614 314 64 c 0
 314 52.3722196023 320.450580251 43.2106900363 331.312804709 35.9692070641 c 0
 340.367330266 29.9328566933 353.92228323 24 370 24 c 0
 387.437934652 24 401.562025629 28.6997470021 413.524383082 35.0796709768 c 0
 426.819344661 42.4657607433 436.716779523 51.2649451581 442.083147131 61.9962754421 c 0
 442.188519323 63.239281868 442.652958042 65.853537969 443.231600847 67.5894663844 c 0
 444.988804353 72.8610769027 446 77.5172536386 446 80 c 0
 446 91.6277803977 439.549419749 100.789309964 428.687195291 108.030792936 c 0
 419.632669734 114.067143307 406.07771677 120 390 120 c 0
 372.562065348 120 358.437974371 115.300252998 346.475616918 108.920329023 c 0
 333.180655339 101.534239257 323.283220477 92.7350548419 317.916852869 82.0037245579 c 0
224 536 m 0
 224 492.200714569 181.856273244 464 140 464 c 0
 98.1396219031 464 56 492.198402917 56 536 c 0
 56 627.80407198 111.650416955 691.658024208 181.266873708 726.466252584 c 0
 239.615521285 755.640576373 308.289969641 768 380 768 c 0
 489.404589373 768 582.188528783 742.803923352 641.805397761 691.060980466 c 0
 680.193508392 657.189118145 704 611.661802572 704 560 c 0
 704 517.435513841 691.335712044 476.180152889 663.352618269 443.533210152 c 0
 630.46553937 403.841908032 584.4790907 380.400213648 539.880772947 360.128251033 c 0
 491.812172659 338.546430496 481.833777651 327.353992209 475.082030855 314.525673297 c 0
 469.29462576 304.236953128 464 282.667265603 464 240 c 0
 464 196.200714569 421.856273244 168 380 168 c 0
 338.139621903 168 296 196.198402917 296 240 c 0
 296 301.692384669 304.394564387 356.948972337 342.22545184 403.950984021 c 0
 371.780497494 441.46315735 413.786679643 466.251829739 459.776573722 487.713780308 c 0
 498.880436795 506.288115268 519.460770064 520.251938734 526.617361358 528.43263901 c 0
 533.018160362 536.389071193 536 540.510890087 536 560 c 0
 536 574.277700657 531.993694321 581.5383953 522.331220091 589.820516069 c 0
 500.116634447 609.07315696 445.451473673 624 380 624 c 0
 331.662667762 624 292.259225353 615.217125857 267.880148522 602.607258531 c 0
 250.099622037 593.716995289 238.936226632 583.933132454 232.686778843 572.823003053 c 0
 226.987824393 563.562202072 224 553.065947385 224 536 c 0
176 536 m 0
 176 558.985156122 180.157007436 578.531019406 191.296392345 597.151790796 c 0
 203.425602244 618.051189449 223.6958354 634.18073343 246.119851478 645.392741469 c 0
 279.740774647 662.782874143 326.337332238 672 380 672 c 0
 450.548526327 672 515.883365553 658.92684304 553.668779909 626.179483931 c 0
 572.006305679 610.4616047 584 587.722299343 584 560 c 0
 584 531.62122776 575.420180895 512.279766685 563.400978445 497.589630357 c 0
 546.411832738 477.768960365 521.183581022 463.742293195 480.223426278 444.286219692 c 0
 436.213320357 423.748170261 402.219502506 402.53684265 379.77454816 374.049015979 c 0
 351.605435613 339.051027663 344 298.307615331 344 240 c 0
 344 231.801597083 355.860378097 216 380 216 c 0
 404.143726756 216 416 231.799285431 416 240 c 0
 416 285.247618351 420.122929086 314.175700107 432.932352719 337.502586909 c 0
 446.387231775 362.593588164 470.057112154 381.394881053 520.119227053 403.871748967 c 0
 563.5209093 423.599786352 601.53446063 444.158091968 626.647381731 474.466789848 c 0
 646.664287956 497.819847111 656 526.564486159 656 560 c 0
 656 596.338197428 639.806491608 628.810881855 610.194602239 654.939019534 c 0
 563.811471217 695.196076648 482.595410627 720 380 720 c 0
 313.710030359 720 252.384478715 708.359423627 202.733126292 683.533747416 c 0
 144.349583045 654.341975792 104 606.19592802 104 536 c 0
 104 527.801597083 115.860378097 512 140 512 c 0
 164.143726756 512 176 527.799285431 176 536 c 0
EndSplineSet
EndChar

StartChar: at
Encoding: 64 64 32
Width: 1100
Flags: HW
LayerCount: 2
Back
SplineSet
695.772460938 444.380859375 m 0
 667.713867188 504.428710938 607.59765625 545.881835938 537.940429688 545.881835938 c 0
 441.454101562 545.881835938 363.234375 466.2421875 363.234375 368 c 0
 363.234375 269.7578125 441.454101562 190.118164062 537.940429688 190.118164062 c 0
 607.577148438 190.118164062 667.697265625 231.599609375 695.766601562 291.619140625 c 1024
722.807617188 70.470703125 m 0
 670.293945312 50.9169921875 611.740234375 40 550 40 c 0
 323.563476562 40 140 186.850585938 140 368 c 0
 140 549.149414062 323.563476562 696 550 696 c 0
 776.436523438 696 960 549.149414062 960 368 c 0
 960 325.0078125 957.1328125 282.721679688 930.864257812 246.32421875 c 0
 910.017578125 217.439453125 860 200 820 200 c 0
 759.37109375 200 696.765625 231.52734375 696.765625 272 c 0
 696.765625 539.529296875 l 1024
EndSplineSet
Fore
SplineSet
613 426.689817785 m 1
 593.03890822 459.609521567 563.06304699 474 538 474 c 0
 524.574489136 474 512.137805572 470.530827386 498.168483038 462.313578836 c 0
 471.495616423 446.623657298 447 411.045476684 447 368 c 0
 447 324.954083058 471.494625113 289.376925825 498.168483038 273.686421164 c 0
 512.137712301 265.469227479 524.574690906 262 538 262 c 0
 563.319332499 262 593.648410777 277.395666118 613 309.310182215 c 1
 613 426.689817785 l 1
658.162831406 444.319654008 m 0
 659.93824795 441.000396991 661 436.933177839 661 433 c 2
 661 303 l 2
 661 299.235750931 660.017923585 295.148561804 658.162831406 291.680345992 c 0
 631.310101688 241.477416518 583.646031649 214 538 214 c 0
 515.425309094 214 493.862287699 220.530772521 473.831516962 232.313578836 c 0
 432.505374887 256.623074175 399 307.045916942 399 368 c 0
 399 428.954523316 432.504383577 479.376342702 473.831516962 503.686421164 c 0
 493.862194428 515.469172614 515.425510864 522 538 522 c 0
 583.645980104 522 631.310110761 494.522566519 658.162831406 444.319654008 c 0
723 95 m 0
 717.628513213 95 712.816578592 93.924205736 706.426962598 91.5280997383 c 0
 658.658404281 73.4821999297 605.688385449 64 550 64 c 0
 348.363411559 64 176 195.207653737 176 368 c 0
 176 540.792449548 348.363315836 672 550 672 c 0
 623.035386373 672 691.414660303 655.036260796 749.345924028 625.3946899 c 0
 852.382857895 572.673993272 924 478.386861142 924 368 c 0
 924 325.233321764 920.371487351 286.885560016 898.780856028 256.404668736 c 0
 891.534083837 245.534510449 882.591292543 241.462830542 870.397797943 235.366083241 c 0
 852.401026858 227.059881202 834.354316183 224 820 224 c 0
 803.367588463 224 787.276843059 227.609497699 773.410533616 232.231600847 c 0
 772.887797619 232.405846179 771.926583775 232.769008629 771.252676815 233.068522833 c 0
 759.735807672 238.187131341 751.187231715 244.359576214 746.6 247.8 c 0
 738.747564245 253.689326816 733.583346397 266.574347856 733.354917884 267.887811806 c 0
 733.180533953 268.890519412 733 270.673112027 733 272 c 2
 733 540 l 2
 733 545.581518295 728.782853033 553.887829733 717.270899214 559.488322097 c 0
 711.576759732 562.258484763 704.596852169 564 697 564 c 0
 683.254442525 564 671.584439064 558.211052223 665.691699365 551.782608916 c 0
 658.674101987 544.12704814 646.819980213 541.757194163 637.266873708 546.533747416 c 0
 608.30425053 561.015059005 575.062173109 570 538 570 c 0
 496.528240357 570 457.693204719 558.227353736 426.34789813 539.420169783 c 0
 363.169249312 501.512980492 327 438.418763663 327 368 c 0
 327 297.581262536 363.169246777 234.487021029 426.34789813 196.579830217 c 0
 457.693202236 177.772647754 496.528241845 166 538 166 c 0
 590.363722189 166 635.127144985 183.915439773 670.36694174 211.022975739 c 0
 677.742168158 216.696226829 690.613602096 217.961018942 699.63305826 211.022975739 c 0
 710.55063483 202.624839916 723.148413389 195.826356215 737.60183061 190.406324757 c 0
 744.906164167 187.536765146 751.720927831 185.339160716 759.218048291 183.377761458 c 0
 778.236216653 178.402221649 798.742791169 176 820 176 c 0
 850.684242681 176 881.457674265 182.379364664 909.061025775 194.845394378 c 0
 930.584647034 204.710387455 951.022222521 218.834967493 963.624471917 236.163060412 c 0
 994.625559753 278.358985522 996 324.069049193 996 368 c 0
 996 558.247597847 801.344919182 720 550 720 c 0
 298.654723186 720 104 558.247972428 104 368 c 0
 104 177.752402153 298.655080818 16 550 16 c 0
 617.982724694 16 682.456473692 28.5298461809 739.596670232 49.4812515788 c 0
 753.666925871 54.8413489652 759 64.5589239773 759 71 c 0
 759 77.6125174412 752.132618663 88.9575979017 735.381471943 93.4075090072 c 0
 731.540830335 94.4277683379 727.373822599 95 723 95 c 0
666.49598782 607.121675101 m 1
 630.337998418 617.946398623 590.835651954 624 550 624 c 0
 365.636684164 624 224 505.207550452 224 368 c 0
 224 230.792346263 365.636588441 112 550 112 c 0
 600.29890709 112 647.370529153 120.528806418 689.545699364 136.461648498 c 0
 699.216297102 140.088122649 710.355942329 143 723 143 c 0
 724.350516135 143 726.108035379 142.955128094 727.650465463 142.891574038 c 1
 725.263219876 143.739561559 722.370917561 144.818667033 720.39816939 145.593675243 c 0
 708.75710471 149.959074498 694.803323949 156.842270916 685.30909938 162.681738685 c 1
 644.104927445 135.163150392 594.722361354 118 538 118 c 0
 487.471758155 118 440.306797764 132.227352246 401.65210187 155.420169783 c 0
 324.830753223 201.512978971 279 280.418737464 279 368 c 0
 279 455.581236337 324.830750688 534.487019508 401.65210187 580.579830217 c 0
 440.306795281 603.772646264 487.471759643 618 538 618 c 0
 576.895400931 618 613.453950205 609.343434722 644.225507867 596.201043451 c 1
 652.32191903 601.585136243 658.301607947 604.362713053 666.49598782 607.121675101 c 1
766.132047656 132.719237234 m 1
 788.593333816 120.999480944 807 98.808260635 807 71 c 0
 807 39.4410760227 784.333074129 15.1586510348 756.403329768 4.51874842122 c 0
 693.543526308 -18.5298461809 624.017275306 -32 550 -32 c 0
 281.344919182 -32 56 142.247597847 56 368 c 0
 56 593.752027572 281.345276814 768 550 768 c 0
 818.655080818 768 1044 593.752402153 1044 368 c 0
 1044 323.930950807 1043.37444025 263.641014478 1002.37552808 207.836939588 c 0
 982.977777479 181.165032507 955.415352966 163.289612545 928.938974225 151.154605622 c 0
 894.542325735 135.620635336 857.315757319 128 820 128 c 0
 801.823621894 128 783.73762642 129.50618495 766.132047656 132.719237234 c 1
780.350752098 548.992745617 m 1
 780.730068012 546.03298826 781 542.636092678 781 540 c 2
 781 282.264242749 l 2
 784.652104876 279.939703465 786.756102118 278.818501332 789.710914645 277.399571021 c 0
 800.405812623 273.982992992 810.86660033 272 820 272 c 0
 825.738152331 272 841.455633448 275.018593387 849.647311494 278.654412601 c 0
 855.964743348 281.896543162 858.665580404 283.809168643 860.160783326 284.944938092 c 0
 871.984934071 302.737144358 876 327.929987869 876 368 c 0
 876 437.762164635 840.353596543 501.828340586 780.350752098 548.992745617 c 1
EndSplineSet
EndChar

StartChar: A
Encoding: 65 65 33
Width: 860
Flags: HW
HStem: -0 21G<103.45 133.16 726.84 756.55> 144 96<265.957 594.043> 716 20G<394.934 477.755>
LayerCount: 2
Back
SplineSet
185 192 m 4
 675 192 l 1028
120 48 m 0
 395 688 l 0
 465 688 l 0
 740 48 l 1024
EndSplineSet
Fore
SplineSet
302.421963312 264 m 1
 557.578036688 264 l 1
 430 561.1634757 l 1
 302.421963312 264 l 1
266 216 m 2
 265.120610704 216 260.660665211 216.468098076 258.291442315 217.271644617 c 0
 248.325075695 220.651841323 242.049355481 230.234164063 242.049355481 240.216573304 c 0
 242.049355481 243.319819723 242.655847875 246.461730935 243.946495924 249.467996514 c 2
 407.946495924 631.467996514 l 2
 409.988737778 636.22492571 413.962164173 640.682771414 418.830935008 643.24269256 c 0
 422.313023482 645.073518495 426.068263074 645.933510011 429.783908045 645.933510011 c 0
 439.09791871 645.933510011 448.163134613 640.529710751 452.053504076 631.467996514 c 2
 616.053504076 249.467996514 l 2
 616.613560065 248.163475855 617.998331894 243.173097412 617.998331894 240.044917584 c 0
 617.998331894 227.067208887 607.177423954 216 594 216 c 2
 266 216 l 2
120 -24 m 0
 78.1396219031 -24 36 4.19840291703 36 48 c 0
 36 56.2494168905 37.1833827399 64.0804345352 40.8294440756 73.1955878745 c 2
 315.914800111 713.394234648 l 2
 328.72766709 743.824793723 361.995626777 760 395 760 c 2
 465 760 l 2
 498.113879945 760 531.262440067 743.848289224 544.085199889 713.394234648 c 2
 819.170555924 73.1955878745 l 2
 822.81661726 64.0804345352 824 56.2494168905 824 48 c 0
 824 4.20071456879 781.856273244 -24 740 -24 c 0
 706.885472271 -24 673.740190233 -7.8545361876 660.910411104 22.6161892449 c 2
 619.174492208 120 l 1
 240.825507792 120 l 1
 199.089588896 22.6161892449 l 2
 186.268485473 -7.83393138499 153.005923136 -24 120 -24 c 0
120 24 m 0
 138.994076864 24 151.731514527 33.833931385 154.910411104 41.3838107551 c 2
 202.94051928 153.454063166 l 2
 206.284602041 161.256922943 215.131507887 168 225 168 c 2
 635 168 l 2
 643.48925852 168 653.172091229 162.524638645 657.05948072 153.454063166 c 2
 705.089588896 41.3838107551 l 2
 708.259809767 33.8545361876 721.114527729 24 740 24 c 0
 764.143726756 24 776 39.7992854312 776 48 c 0
 776 49.8168801996 775.470270114 53.0424337321 774.796954581 54.8800240408 c 2
 499.914800111 694.605765352 l 2
 496.737559933 702.151710776 483.886120055 712 465 712 c 2
 395 712 l 2
 376.004373223 712 363.27233291 702.175206277 360.085199889 694.605765352 c 2
 85.2030454193 54.8800240408 l 2
 84.81208384 53.8130247306 84 49.8052917733 84 48 c 0
 84 39.801597083 95.8603780969 24 120 24 c 0
EndSplineSet
EndChar

StartChar: B
Encoding: 66 66 34
Width: 870
Flags: HW
AnchorPoint: "above" 435 784 basechar 0
LayerCount: 2
Back
SplineSet
200 388 m 0
 500 388 l 0
 620 388 700 458 700 538 c 0
 700 618 620 688 500 688 c 0
 180 688 l 0
 180 48 l 0
 520 48 l 0
 650 48 720 138 720 218 c 0
 720 298 650 388 520 388 c 1024
EndSplineSet
Fore
SplineSet
240 664 m 2
 500 664 l 2
 543.989840479 664 580.637839616 653.019558966 608.131542943 635.088882883 c 0
 642.855806317 612.338503431 664 576.967284302 664 538 c 0
 664 499.035135299 642.854331107 463.660530052 608.131542943 440.911117117 c 0
 580.637708681 422.980355642 543.989940125 412 500 412 c 2
 240 412 l 2
 225.472763659 412 216 425.699291841 216 436 c 2
 216 640 l 2
 216 654.527236341 229.699291841 664 240 664 c 2
264 616 m 1
 264 460 l 1
 500 460 l 2
 536.020274403 460 563.339286726 469.004641362 581.889573267 481.102654324 c 0
 605.127373847 496.327420222 616 516.969329846 616 538 c 0
 616 559.037616412 605.163499289 579.648848068 581.847369825 594.92493289 c 0
 563.385092451 606.965548569 535.999989433 616 500 616 c 2
 264 616 l 1
216 96 m 2
 216 340 l 2
 216 354.527236341 229.699291841 364 240 364 c 2
 500 364 l 1
 514 364 l 1
 520 364 l 2
 559.314404729 364 589.965663565 353.67631654 614.836553984 338.280051043 c 0
 634.461125331 325.581798995 651.276106365 310.266018196 663.728574756 289.09682193 c 0
 676.727885148 266.643467618 684 242.01448912 684 218 c 0
 684 193.988392197 676.725528949 169.352462584 663.728574756 146.90317807 c 0
 651.285998432 125.750798319 634.430414735 110.398329443 614.836553984 97.719948957 c 0
 589.963411052 82.3222890471 559.316147691 72 520 72 c 2
 240 72 l 2
 225.472763659 72 216 85.6992918406 216 96 c 2
264 120 m 1
 520 120 l 2
 550.648077851 120 570.854288041 127.087311397 589.177325131 138.287748328 c 0
 603.537789029 147.69399622 614.68766925 158.20443674 622.271425244 171.09682193 c 0
 631.274471051 186.647537416 636 204.011607803 636 218 c 0
 636 231.98551088 631.272114852 249.356532382 622.271425244 264.90317807 c 0
 614.63368826 277.887330942 604.764797354 287.50230102 589.177325131 297.712251672 c 0
 571.91906479 308.261815892 550.767422781 316 520 316 c 2
 514 316 l 1
 500 316 l 1
 264 316 l 1
 264 120 l 1
756 218 m 0
 756 283.104955206 717.738954277 338.240664192 665.932695796 371.869288119 c 0
 658.891929344 376.439610202 655.098308759 384.256073048 655.098308759 392.142213198 c 0
 655.098308759 397.216898161 656.669189026 402.32043543 659.956563803 406.606421115 c 0
 661.409574984 408.500815746 663.638927408 410.525418137 665.085879481 411.554980189 c 0
 711.703890964 444.725488359 736 490.610841895 736 538 c 0
 736 587.651847138 708.406278226 635.519724696 657.728453807 669.003287258 c 0
 617.227256084 696.00408574 563.010150981 712 500 712 c 2
 180 712 l 2
 155.936143456 712 144 697.742127455 144 688 c 2
 144 48 l 2
 144 39.7992854312 155.856273244 24 180 24 c 2
 520 24 l 2
 576.820389724 24 626.425977499 38.9817092682 663.13098176 62.2580534337 c 0
 692.818421756 81.1500607036 715.403398234 105.615025855 730.423794433 130.354501948 c 0
 747.380402652 158.913000002 756 188.809166766 756 218 c 0
804 218 m 0
 804 179.190833234 792.619597348 141.086999998 771.576205567 105.645498052 c 0
 752.601443202 74.3929482733 725.162942208 44.8380800007 688.885011813 21.7521242944 c 0
 643.556506222 -6.99278169005 585.187417677 -24 520 -24 c 2
 180 -24 l 2
 138.143726756 -24 96 4.20071456879 96 48 c 2
 96 688 l 2
 96 734.257872545 140.063856544 760 180 760 c 2
 500 760 l 2
 571.009588537 760 634.728095995 742.025679541 684.312804709 708.969207064 c 0
 745.559182955 668.502850009 784 606.340299599 784 538 c 0
 784 483.597834235 760.449703373 432.647533982 718.07173133 392.946860596 c 1
 766.351164683 352.605935549 804 290.94640741 804 218 c 0
EndSplineSet
EndChar

StartChar: C
Encoding: 67 67 35
Width: 855
Flags: HW
AnchorPoint: "bottom" 460 40 basechar 0
AnchorPoint: "above" 460 784 basechar 0
LayerCount: 2
Back
SplineSet
705 200 m 0
 705 176 630 40 460 40 c 0
 290 40 150 186.850585938 150 368 c 0
 150 549.149414062 288.791015625 696 460 696 c 0
 630 696 685 576 685 576 c 1024
EndSplineSet
Fore
SplineSet
705 272 m 0
 746.860378097 272 789 243.801597083 789 200 c 0
 789 186.249323873 785.323160043 174.23877403 782.671871261 167.106167639 c 0
 777.562879392 152.545098093 772.110028141 144.581861913 765.904406398 133.204888719 c 0
 750.01481833 105.965594888 725.676598365 75.4532086906 690.166009149 46.3990902411 c 0
 638.318205794 4.27275001527 560.916351391 -32 460 -32 c 0
 383.29133438 -32 312.908881045 -9.595593071 254.380269659 26.5857303309 c 0
 137.255800464 98.9899476514 66 226.854098885 66 368 c 0
 66 509.145898542 137.255796544 637.010049925 254.380269659 709.414269669 c 0
 312.908891415 745.595599482 383.291320532 768 460 768 c 0
 532.69028038 768 592.824115266 751.07838235 638.470065425 726.081790596 c 0
 678.18222073 704.615760701 707.180800099 678.897664015 726.928650211 656.955608336 c 0
 750.936842615 629.673571513 760.714643772 608.804984401 763.47296732 601.441734438 c 0
 766.301874317 594.182837667 769 586.958532168 769 576 c 0
 769 532.200714569 726.856273244 504 685 504 c 0
 651.691835688 504 621.229564306 520.523559771 608.006780483 547.23437418 c 0
 605.003684919 552.141167156 597.672289221 565.386585282 584.195799329 578.863075174 c 0
 561.929862586 600.272629735 526.515337013 624 460 624 c 0
 422.610333984 624 386.087234922 613.389767554 352.670418907 592.617152193 c 0
 285.892666331 551.106657349 234 467.679730085 234 368 c 0
 234 268.490866971 286.766967064 184.971480034 353.670418907 143.382847807 c 0
 387.241338682 122.514438217 422.64904724 112 460 112 c 0
 524.385692084 112 566.791467238 139.927891466 594.553692937 169.4812285 c 0
 608.946212329 184.631248912 618.686068642 201.884319642 621.521798209 208.065406419 c 0
 627.612188997 248.794478242 665.712175319 272 705 272 c 0
663.317452213 184.233944696 m 2
 657.258844282 172.118329172 646.184586653 154.138013174 629.446307063 136.5187715 c 0
 595.208532762 100.072108534 539.614307916 64 460 64 c 0
 413.35095276 64 368.758661318 77.4855617826 328.329581093 102.617152193 c 0
 247.233032936 153.028519966 186 251.509133029 186 368 c 0
 186 484.320269915 246.107333669 582.893342651 327.329581093 633.382847807 c 0
 367.912765078 658.610232446 413.389666016 672 460 672 c 0
 539.484662987 672 588.070137414 641.727370265 617.804200671 613.136924826 c 0
 635.74590349 595.195222007 645.491157226 578.062110274 648.640827317 572.797163591 c 0
 649.432666152 571.634063088 650.30618898 570.154221606 650.931477167 568.747323185 c 0
 654.066179056 561.694243934 666.337673269 552 685 552 c 0
 709.143726756 552 721 567.799285431 721 576 c 0
 721 576.737058446 720.332951953 580.045642431 718.716559419 584.086623768 c 0
 718.643110134 584.27024698 718.507548237 584.621018328 718.377182518 584.986874522 c 0
 717.353222442 587.402035841 709.02344448 604.644284061 691.071349789 625.044391664 c 0
 674.819199901 643.102335985 649.81777927 665.384239299 615.529934575 683.918209404 c 0
 577.175884734 704.92161765 525.30971962 720 460 720 c 0
 392.708679468 720 331.091108585 700.404400518 279.619730341 668.585730331 c 0
 176.744203456 604.989950075 114 492.854101458 114 368 c 0
 114 243.145901115 176.744199536 131.010052349 279.619730341 67.4142696691 c 0
 331.091118955 35.595593071 392.70866562 16 460 16 c 0
 549.097956023 16 615.648846959 47.700480346 659.865776998 83.6267360028 c 0
 690.289735479 108.519065669 711.178210814 134.829416445 724.087058718 156.780577554 c 0
 730.164164506 167.86564282 735.419642465 177.153591239 737.372098355 183.010958911 c 0
 740.605589895 191.633603016 741 191.807352586 741 200 c 0
 741 208.198402917 729.139621903 224 705 224 c 0
 680.856273244 224 669 208.200714569 669 200 c 0
 669 199 663.317452213 184.233944696 663.317452213 184.233944696 c 2
EndSplineSet
EndChar

StartChar: D
Encoding: 68 68 36
Width: 870
Flags: HW
AnchorPoint: "above" 435 784 basechar 0
LayerCount: 2
Back
SplineSet
180 48 m 0
 180 688 l 0
 440 688 l 0
 520 688 720 624 720 368 c 0
 720 111.98046875 520 48 440 48 c 0
 180 48 l 0
EndSplineSet
Fore
SplineSet
96 688 m 2
 96 734.253177713 140.068481915 760 180 760 c 2
 440 760 l 2
 479.433163898 760 527.344870492 751.345971868 576.089680425 731.212246026 c 0
 615.857507369 715.090154021 656.523584583 689.349295643 692.700418569 654.236486186 c 0
 758.313300263 590.774846514 804 496.813207799 804 368 c 0
 804 239.186645766 758.313873798 145.225708216 692.700418569 81.7635138144 c 0
 656.523199656 46.6503307519 615.85845449 20.9102299465 576.089680425 4.78775397421 c 0
 527.345371838 -15.34576479 479.432810025 -24 440 -24 c 2
 180 -24 l 2
 138.139621903 -24 96 4.19840291703 96 48 c 2
 96 688 l 2
144 688 m 2
 144 48 l 2
 144 39.801597083 155.860378097 24 180 24 c 2
 440 24 l 2
 472.567189975 24 514.654628162 31.34576479 557.910319575 49.2122460258 c 0
 592.131367598 63.0856438729 627.494801317 85.3671407805 659.284590948 116.221936599 c 0
 715.700465752 170.78811059 756 250.807834232 756 368 c 0
 756 485.180970463 715.672010133 565.239361463 659.31459722 619.748990346 c 0
 627.458693077 650.667956132 592.152429736 672.905817423 557.910319575 686.787753974 c 0
 514.655129508 704.654028132 472.566836102 712 440 712 c 2
 180 712 l 2
 155.931518085 712 144 697.746822287 144 688 c 2
264 616 m 1
 264 120 l 1
 440 120 l 2
 448.906858948 120 474.761766317 123.453217763 501.61285847 135.088691029 c 0
 523.581794211 144.242414255 545.668725562 157.503296721 566.434731137 177.366432489 c 0
 602.768547089 211.927867174 636 268.733272914 636 368 c 0
 636 467.266250935 602.762668091 524.077725043 566.434731137 558.633567511 c 0
 545.669524536 578.495939044 523.580053521 591.758311033 501.61285847 600.911308971 c 0
 474.628558717 612.604505531 449.068564299 616 440 616 c 2
 264 616 l 1
216 640 m 2
 216 650.300708159 225.472763659 664 240 664 c 2
 440 664 l 2
 456.931435701 664 487.371441283 659.395494469 520.38714153 645.088691029 c 0
 546.436571835 634.234761735 574.301181067 617.532081684 599.589343503 593.343404572 c 0
 645.216141105 549.942304413 684 478.726313507 684 368 c 0
 684 257.257440083 645.255045192 186.094574264 599.541130384 142.610606519 c 0
 574.360153621 118.524454833 546.401930644 101.750804435 520.38714153 90.9113089709 c 0
 487.238233683 76.5467822372 457.093141052 72 440 72 c 2
 240 72 l 2
 229.699291841 72 216 81.4727636587 216 96 c 2
 216 640 l 2
EndSplineSet
EndChar

StartChar: E
Encoding: 69 69 37
Width: 870
Flags: HW
AnchorPoint: "above" 435 784 basechar 0
AnchorPoint: "bottom" 435 48 basechar 0
LayerCount: 2
Back
SplineSet
182.5 388 m 0
 540 388 l 1024
700 688 m 0
 180 688 l 0
 180 48 l 0
 720 48 l 1024
EndSplineSet
Fore
SplineSet
96 688 m 2
 96 734.253177713 140.068481915 760 180 760 c 2
 700 760 l 2
 741.860378097 760 784 731.801597083 784 688 c 0
 784 644.200714569 741.856273244 616 700 616 c 2
 264 616 l 1
 264 460 l 1
 540 460 l 2
 581.860378097 460 624 431.801597083 624 388 c 0
 624 344.200714569 581.856273244 316 540 316 c 2
 264 316 l 1
 264 120 l 1
 720 120 l 2
 761.860378097 120 804 91.801597083 804 48 c 0
 804 4.20071456879 761.856273244 -24 720 -24 c 2
 180 -24 l 2
 138.139621903 -24 96 4.19840291703 96 48 c 2
 96 688 l 2
144 688 m 2
 144 48 l 2
 144 39.801597083 155.860378097 24 180 24 c 2
 720 24 l 2
 744.143726756 24 756 39.7992854312 756 48 c 0
 756 56.198402917 744.139621903 72 720 72 c 2
 240 72 l 2
 229.699291841 72 216 81.4727636587 216 96 c 2
 216 340 l 2
 216 350.300708159 225.472763659 364 240 364 c 2
 540 364 l 2
 564.143726756 364 576 379.799285431 576 388 c 0
 576 396.198402917 564.139621903 412 540 412 c 2
 240 412 l 2
 229.699291841 412 216 421.472763659 216 436 c 2
 216 640 l 2
 216 650.300708159 225.472763659 664 240 664 c 2
 700 664 l 2
 724.143726756 664 736 679.799285431 736 688 c 0
 736 696.198402917 724.139621903 712 700 712 c 2
 180 712 l 2
 155.931518085 712 144 697.746822287 144 688 c 2
EndSplineSet
EndChar

StartChar: F
Encoding: 70 70 38
Width: 830
Flags: HW
AnchorPoint: "above" 415 784 basechar 0
LayerCount: 2
Back
SplineSet
180 48 m 0
 180 688 l 0
 680 688 l 1024
182.5 388 m 0
 550 388 l 1024
EndSplineSet
Fore
SplineSet
96 688 m 2
 96 734.253177713 140.068481915 760 180 760 c 2
 680 760 l 2
 721.860378097 760 764 731.801597083 764 688 c 0
 764 644.200714569 721.856273244 616 680 616 c 2
 264 616 l 1
 264 460 l 1
 550 460 l 2
 591.860378097 460 634 431.801597083 634 388 c 0
 634 344.200714569 591.856273244 316 550 316 c 2
 264 316 l 1
 264 48 l 2
 264 4.20071456879 221.856273244 -24 180 -24 c 0
 138.139621903 -24 96 4.19840291703 96 48 c 2
 96 688 l 2
144 688 m 2
 144 48 l 2
 144 39.801597083 155.860378097 24 180 24 c 0
 204.143726756 24 216 39.7992854312 216 48 c 2
 216 340 l 2
 216 350.300708159 225.472763659 364 240 364 c 2
 550 364 l 2
 574.143726756 364 586 379.799285431 586 388 c 0
 586 396.198402917 574.139621903 412 550 412 c 2
 240 412 l 2
 229.699291841 412 216 421.472763659 216 436 c 2
 216 640 l 2
 216 650.300708159 225.472763659 664 240 664 c 2
 680 664 l 2
 704.143726756 664 716 679.799285431 716 688 c 0
 716 696.198402917 704.139621903 712 680 712 c 2
 180 712 l 2
 155.931518085 712 144 697.746822287 144 688 c 2
EndSplineSet
EndChar

StartChar: G
Encoding: 71 71 39
Width: 840
Flags: HW
AnchorPoint: "above" 460 784 basechar 0
LayerCount: 2
Back
SplineSet
685 576 m 0
 685 576 630 696 460 696 c 0
 288.791015625 696 150 549.149414062 150 368 c 0
 150 186.850585938 290 40 460 40 c 0
 620 40 690 152 690 152 c 0
 690 344 l 0
 480 344 l 1024
EndSplineSet
Fore
SplineSet
690 416 m 2
 735.963399197 416 774 384.559272484 774 344 c 2
 774 152 l 2
 774 140.053784962 770.58776979 129.601660997 764.681064155 118.772700668 c 0
 760.251838809 110.471451083 721.115903586 49.6717374406 632.423058893 6.38118229296 c 0
 587.368395452 -15.0734193459 529.0295106 -32 460 -32 c 0
 383.29133438 -32 312.908881045 -9.595593071 254.380269659 26.5857303309 c 0
 137.255800464 98.9899476514 66 226.854098885 66 368 c 0
 66 509.145898542 137.255796544 637.010049925 254.380269659 709.414269669 c 0
 312.908891415 745.595599482 383.291320532 768 460 768 c 0
 532.69028038 768 592.824115266 751.07838235 638.470065425 726.081790596 c 0
 678.18222073 704.615760701 707.180800099 678.897664015 726.928650211 656.955608336 c 0
 750.936842615 629.673571513 760.714643772 608.804984401 763.47296732 601.441734438 c 0
 766.301874317 594.182837667 769 586.958532168 769 576 c 0
 769 532.200714569 726.856273244 504 685 504 c 0
 651.263203297 504 622.413309448 520.887848763 608.316441275 546.737548728 c 0
 605.183083971 551.737586978 598.104025439 564.954849064 584.195799329 578.863075174 c 0
 561.929862586 600.272629735 526.515337013 624 460 624 c 0
 422.610333984 624 386.087234922 613.389767554 352.670418907 592.617152193 c 0
 285.892666331 551.106657349 234 467.679730085 234 368 c 0
 234 268.490866971 286.766967064 184.971480034 353.670418907 143.382847807 c 0
 387.241338682 122.514438217 422.64904724 112 460 112 c 0
 521.766110064 112 560.775600347 134.053998993 587.635574408 156.43731071 c 0
 595.127405803 162.68050354 601.739065756 169.4542849 606 174.122583601 c 1
 606 272 l 1
 480 272 l 2
 438.139621903 272 396 300.198402917 396 344 c 0
 396 387.799285431 438.143726756 416 480 416 c 2
 690 416 l 2
690 368 m 2
 480 368 l 2
 455.856273244 368 444 352.200714569 444 344 c 0
 444 335.801597083 455.860378097 320 480 320 c 2
 630 320 l 2
 640.300708159 320 654 310.527236341 654 296 c 2
 654 165 l 2
 654 159.436465864 651.883282682 153.563251707 648.061840673 149.195889411 c 0
 640.964118504 141.084206932 631.769052144 130.733211416 618.364425592 119.56268929 c 0
 585.224399653 91.9460010072 534.233889936 64 460 64 c 0
 413.35095276 64 368.758661318 77.4855617826 328.329581093 102.617152193 c 0
 247.233032936 153.028519966 186 251.509133029 186 368 c 0
 186 484.320269915 246.107333669 582.893342651 327.329581093 633.382847807 c 0
 367.912765078 658.610232446 413.389666016 672 460 672 c 0
 539.484662987 672 588.070137414 641.727370265 617.804200671 613.136924826 c 0
 635.759088632 595.182036865 645.470878147 578.096008514 648.656843427 572.770391274 c 0
 649.050535638 572.202224306 649.967370453 570.730890554 650.466252584 569.733126292 c 0
 654.819892016 561.025847428 666.846165565 552 685 552 c 0
 709.143726756 552 721 567.799285431 721 576 c 0
 721 576.737058446 720.332951953 580.045642431 718.716559419 584.086623768 c 0
 718.643110134 584.27024698 718.507548237 584.621018328 718.377182518 584.986874522 c 0
 717.353222442 587.402035841 709.02344448 604.644284061 691.071349789 625.044391664 c 0
 674.819199901 643.102335985 649.81777927 665.384239299 615.529934575 683.918209404 c 0
 577.175884734 704.92161765 525.30971962 720 460 720 c 0
 392.708679468 720 331.091108585 700.404400518 279.619730341 668.585730331 c 0
 176.744203456 604.989950075 114 492.854101458 114 368 c 0
 114 243.145901115 176.744199536 131.010052349 279.619730341 67.4142696691 c 0
 331.091118955 35.595593071 392.70866562 16 460 16 c 0
 520.9704894 16 572.631604548 31.0734193459 611.576941107 49.618817707 c 0
 685.797405076 85.8454727399 719.727492772 137.020361338 722.776912671 142.206477279 c 0
 722.903014994 142.443672512 723.029726008 142.675567005 723.162164589 142.907334521 c 0
 725.457359463 146.92392555 726 149.658670269 726 152 c 2
 726 344 l 2
 726 351.440727516 716.036600803 368 690 368 c 2
EndSplineSet
EndChar

StartChar: H
Encoding: 72 72 40
Width: 890
Flags: HW
AnchorPoint: "above" 445 784 basechar 0
LayerCount: 2
Back
SplineSet
182.5 388 m 0
 707.5 388 l 1024
710 688 m 0
 710 48 l 1024
180 48 m 0
 180 688 l 1024
EndSplineSet
Fore
SplineSet
626 688 m 2
 626 731.799285431 668.143726756 760 710 760 c 0
 751.860378097 760 794 731.801597083 794 688 c 2
 794 48 l 2
 794 4.20071456879 751.856273244 -24 710 -24 c 0
 668.139621903 -24 626 4.19840291703 626 48 c 2
 626 316 l 1
 264 316 l 1
 264 48 l 2
 264 4.20071456879 221.856273244 -24 180 -24 c 0
 138.139621903 -24 96 4.19840291703 96 48 c 2
 96 688 l 2
 96 731.799285431 138.143726756 760 180 760 c 0
 221.860378097 760 264 731.801597083 264 688 c 2
 264 460 l 1
 626 460 l 1
 626 688 l 2
674 688 m 2
 674 436 l 2
 674 425.699291841 664.527236341 412 650 412 c 2
 240 412 l 2
 229.699291841 412 216 421.472763659 216 436 c 2
 216 688 l 2
 216 696.198402917 204.139621903 712 180 712 c 0
 155.856273244 712 144 696.200714569 144 688 c 2
 144 48 l 2
 144 39.801597083 155.860378097 24 180 24 c 0
 204.143726756 24 216 39.7992854312 216 48 c 2
 216 340 l 2
 216 350.300708159 225.472763659 364 240 364 c 2
 650 364 l 2
 660.300708159 364 674 354.527236341 674 340 c 2
 674 48 l 2
 674 39.801597083 685.860378097 24 710 24 c 0
 734.143726756 24 746 39.7992854312 746 48 c 2
 746 688 l 2
 746 696.198402917 734.139621903 712 710 712 c 0
 685.856273244 712 674 696.200714569 674 688 c 2
EndSplineSet
EndChar

StartChar: I
Encoding: 73 73 41
Width: 420
Flags: HW
HStem: 0 21G<193.442 226.558> 716 20G<193.442 226.558>
VStem: 150 120<7.56638 728.434>
AnchorPoint: "above" 210 784 basechar 0
LayerCount: 2
Back
SplineSet
210 688 m 0
 210 48 l 1024
EndSplineSet
Fore
SplineSet
126 688 m 2
 126 731.799285431 168.143726756 760 210 760 c 0
 251.860378097 760 294 731.801597083 294 688 c 2
 294 48 l 2
 294 4.20071456879 251.856273244 -24 210 -24 c 0
 168.139621903 -24 126 4.19840291703 126 48 c 2
 126 688 l 2
174 688 m 2
 174 48 l 2
 174 39.801597083 185.860378097 24 210 24 c 0
 234.143726756 24 246 39.7992854312 246 48 c 2
 246 688 l 2
 246 696.198402917 234.139621903 712 210 712 c 0
 185.856273244 712 174 696.200714569 174 688 c 2
EndSplineSet
EndChar

StartChar: J
Encoding: 74 74 42
Width: 680
Flags: HW
AnchorPoint: "above" 340 784 basechar 0
LayerCount: 2
Back
SplineSet
120 280 m 0
 120 216 l 0
 120 216 l 0
 120 118.797851562 205.06640625 40 310 40 c 0
 414.93359375 40 500 129.54296875 500 240 c 0
 500 688 l 1024
EndSplineSet
Fore
SplineSet
36 280 m 2
 36 323.799285431 78.1437267555 352 120 352 c 0
 161.860378097 352 204 323.801597083 204 280 c 2
 204 216 l 2
 204 175.869163827 228.36795477 142.541498588 259.402538094 125.118621165 c 0
 276.376707238 116.323601298 292.400349053 112 310 112 c 0
 325.965634633 112 341.151976195 115.797717665 356.184168207 125.291733673 c 0
 387.244816863 144.908985456 416 187.702106026 416 240 c 2
 416 688 l 2
 416 731.799285431 458.143726756 760 500 760 c 0
 541.860378097 760 584 731.801597083 584 688 c 2
 584 240 l 2
 584 145.695771522 535.594617855 58.9213839713 454.670418907 8.61715219306 c 0
 413.969295499 -16.6835461414 364.514940894 -32 310 -32 c 0
 258.036201782 -32 209.123137996 -19.0240627155 168.646647934 2.85512110206 c 0
 86.6466832836 46.5884355821 36 126.651328757 36 216 c 2
 36 280 l 2
84 280 m 2
 84 216 l 2
 84 145.348671243 123.353316716 81.4115644179 191.353352066 45.1448788979 c 0
 224.876862004 27.0240627155 265.963798218 16 310 16 c 0
 355.485059106 16 396.030704501 28.6835461414 429.329581093 49.3828478069 c 0
 496.405382145 91.0786160287 536 162.304228478 536 240 c 2
 536 688 l 2
 536 696.198402917 524.139621903 712 500 712 c 0
 475.856273244 712 464 696.200714569 464 688 c 2
 464 240 l 2
 464 170.297893974 426.755183137 113.091014544 381.815831793 84.7082663273 c 0
 358.848023805 70.2022823347 334.034365367 64 310 64 c 0
 283.477733829 64 258.996895201 71.0910102478 236.60562596 82.8758887957 c 0
 191.683403645 107.701327443 156 155.950570364 156 216 c 2
 156 280 l 2
 156 288.198402917 144.139621903 304 120 304 c 0
 95.8562732445 304 84 288.200714569 84 280 c 2
EndSplineSet
EndChar

StartChar: K
Encoding: 75 75 43
Width: 840
Flags: HW
AnchorPoint: "above" 420 784 basechar 0
LayerCount: 2
Back
SplineSet
720 48 m 0
 377.5 434 l 1024
700 688 m 0
 182.5 282 l 1024
180 688 m 0
 180 48 l 1024
EndSplineSet
Fore
SplineSet
804 48 m 0
 804 4.20071456879 761.856273244 -24 720 -24 c 0
 693.694987856 -24 669.543845434 -13.9288945019 653.169410859 3.93412503518 c 2
 366.009490939 328.177610772 l 1
 264 248.309714766 l 1
 264 48 l 2
 264 4.20071456879 221.856273244 -24 180 -24 c 0
 138.139621903 -24 96 4.19840291703 96 48 c 2
 96 688 l 2
 96 731.799285431 138.143726756 760 180 760 c 0
 221.860378097 760 264 731.801597083 264 688 c 2
 264 443.3393287 l 1
 643.529237802 741.151744966 l 2
 658.887499555 752.321389878 677.834207614 760 700 760 c 0
 741.860378097 760 784 731.801597083 784 688 c 0
 784 665.965108315 772.382970157 647.849331066 757.019912143 635.279556327 c 2
 490.845368435 425.876506208 l 1
 787.009843664 91.8635357424 l 2
 797.606408261 79.7531762022 804 64.4422749325 804 48 c 0
756 48 m 0
 756 51.5577250675 754.393591739 56.2468237978 750.990156336 60.1364642576 c 2
 438.042543245 413.077382537 l 2
 434.174940624 417.439247473 432.191872747 423.185973598 432.191872747 428.974960583 c 0
 432.191872747 436.01233691 435.122455469 443.112166444 441.160634623 447.862482212 c 2
 726.980087857 672.720443673 l 2
 733.617029843 678.150668934 736 684.034891685 736 688 c 0
 736 696.198402917 724.139621903 712 700 712 c 0
 690.14590421 712 680.117125461 708.260313446 672.441135986 702.825007672 c 2
 254.815744939 375.118959194 l 2
 251.218949014 372.296593014 246.580739412 370.443693129 241.882970051 370.073980193 c 0
 241.266711785 370.025480866 240.653712538 370.001668106 240.044917584 370.001668106 c 0
 227.067208887 370.001668106 216 380.822576046 216 394 c 2
 216 688 l 2
 216 696.198402917 204.139621903 712 180 712 c 0
 155.856273244 712 144 696.200714569 144 688 c 2
 144 48 l 2
 144 39.801597083 155.860378097 24 180 24 c 0
 204.143726756 24 216 39.7992854312 216 48 c 2
 216 260 l 2
 216 265.936595454 219.196283388 274.192801686 225.204652175 278.89702841 c 2
 354.204652175 379.89702841 l 2
 358.220628102 383.04131964 363.552079902 384.750683512 368.994438619 384.750683512 c 0
 375.517197925 384.750683512 382.199268688 382.295279847 386.966863492 376.912002271 c 2
 688.830589141 36.0658749648 l 2
 694.456154566 29.9288945019 706.305012144 24 720 24 c 0
 744.143726756 24 756 39.7992854312 756 48 c 0
EndSplineSet
EndChar

StartChar: L
Encoding: 76 76 44
Width: 820
Flags: HW
AnchorPoint: "above" 410 784 basechar 0
LayerCount: 2
Back
SplineSet
180 688 m 0
 180 48 l 0
 700 48 l 1024
EndSplineSet
Fore
SplineSet
96 688 m 2
 96 731.799285431 138.143726756 760 180 760 c 0
 221.860378097 760 264 731.801597083 264 688 c 2
 264 120 l 1
 700 120 l 2
 741.860378097 120 784 91.801597083 784 48 c 0
 784 4.20071456879 741.856273244 -24 700 -24 c 2
 180 -24 l 2
 138.139621903 -24 96 4.19840291703 96 48 c 2
 96 688 l 2
144 688 m 2
 144 48 l 2
 144 39.801597083 155.860378097 24 180 24 c 2
 700 24 l 2
 724.143726756 24 736 39.7992854312 736 48 c 0
 736 56.198402917 724.139621903 72 700 72 c 2
 240 72 l 2
 229.699291841 72 216 81.4727636587 216 96 c 2
 216 688 l 2
 216 696.198402917 204.139621903 712 180 712 c 0
 155.856273244 712 144 696.200714569 144 688 c 2
EndSplineSet
EndChar

StartChar: M
Encoding: 77 77 45
Width: 1037
Flags: HW
AnchorPoint: "above" 519 784 basechar 0
LayerCount: 2
Back
SplineSet
180 48 m 0
 180 688 l 0
 230 688 l 0
 520 48 l 0
 810 688 l 0
 860 688 l 0
 860 48 l 1024
EndSplineSet
Fore
SplineSet
96 688 m 2
 96 734.253177713 140.068481915 760 180 760 c 2
 230 760 l 2
 262.919573017 760 293.969048401 743.239909486 307.77135295 714.101710994 c 2
 520 247.017295478 l 1
 732.22864705 714.101710994 l 2
 746.051691564 743.283693857 777.107547682 760 810 760 c 2
 860 760 l 2
 880.286494848 760 900.170842982 753.371867763 916.4 741.2 c 0
 934.22398255 727.832013087 944 707.909509001 944 688 c 2
 944 48 l 2
 944 4.20071456879 901.856273244 -24 860 -24 c 0
 818.139621903 -24 776 4.19840291703 776 48 c 2
 776 414.160442225 l 1
 597.89126763 22.1622053564 l 2
 585.516859212 -5.68021358387 555.079694122 -24 520 -24 c 0
 486.077319922 -24 455.351015592 -7.61513983459 441.656258169 23.1580525927 c 2
 264 414.160442225 l 1
 264 48 l 2
 264 4.20071456879 221.856273244 -24 180 -24 c 0
 138.139621903 -24 96 4.19840291703 96 48 c 2
 96 688 l 2
144 688 m 2
 144 48 l 2
 144 39.801597083 155.860378097 24 180 24 c 0
 204.143726756 24 216 39.7992854312 216 48 c 2
 216 525 l 2
 216 533.313905422 220.722307426 541.766028035 228.388359766 546.004042731 c 0
 231.987460459 547.993729334 235.907207232 548.929020394 239.78777447 548.929020394 c 0
 248.924871715 548.929020394 257.844756192 543.743732765 261.850313051 534.927931285 c 2
 485.989075907 41.6225291041 l 2
 489.518534031 33.2400660614 501.38842581 24 520 24 c 0
 538.920305878 24 550.483140788 33.6802135839 554.10873237 41.8377946436 c 2
 778.149686949 534.927931285 l 2
 781.588848688 542.497157791 789.384514859 548.238773682 798.117029949 548.926019807 c 0
 798.733288215 548.974519134 799.346287462 548.998331894 799.955082416 548.998331894 c 0
 812.932791113 548.998331894 824 538.177423954 824 525 c 2
 824 48 l 2
 824 39.801597083 835.860378097 24 860 24 c 0
 884.143726756 24 896 39.7992854312 896 48 c 2
 896 688 l 2
 896 692.090490999 893.77601745 698.167986913 887.6 702.8 c 0
 879.829157018 708.628132237 869.713505152 712 860 712 c 2
 810 712 l 2
 792.892452318 712 779.948308436 702.716306143 775.77135295 693.898289006 c 2
 541.850248228 179.071926048 l 2
 539.745607963 174.439918629 536.104705261 170.479891424 531.611777376 167.996033085 c 0
 528.012640924 166.006296032 524.09284282 165.070980992 520.212224081 165.070980992 c 0
 511.075181898 165.070980992 502.155343149 170.256201436 498.149751772 179.071926048 c 2
 264.22864705 693.898289006 l 2
 260.030951599 702.760090514 247.080426983 712 230 712 c 2
 180 712 l 2
 155.931518085 712 144 697.746822287 144 688 c 2
EndSplineSet
EndChar

StartChar: N
Encoding: 78 78 46
Width: 900
Flags: HW
AnchorPoint: "above" 450 784 basechar 0
LayerCount: 2
Back
SplineSet
180 48 m 0
 180 688 l 0
 230 688 l 0
 680 48 l 0
 720 48 l 0
 720 688 l 1024
EndSplineSet
Fore
SplineSet
96 688 m 2
 96 734.253177713 140.068481915 760 180 760 c 2
 230 760 l 2
 259.318316858 760 285.459770821 746.866294854 301.491415795 725.004960799 c 2
 636 249.790384824 l 1
 636 688 l 2
 636 731.799285431 678.143726756 760 720 760 c 0
 761.860378097 760 804 731.801597083 804 688 c 2
 804 48 l 2
 804 4.20071456879 761.856273244 -24 720 -24 c 2
 680 -24 l 2
 650.682103558 -24 624.539114112 -10.8647743073 608.509835062 10.9933334872 c 2
 264 500.232815754 l 1
 264 48 l 2
 264 4.20071456879 221.856273244 -24 180 -24 c 0
 138.139621903 -24 96 4.19840291703 96 48 c 2
 96 688 l 2
144 688 m 2
 144 48 l 2
 144 39.801597083 155.860378097 24 180 24 c 0
 204.143726756 24 216 39.7992854312 216 48 c 2
 216 576 l 2
 216 582.591723272 219.145278636 589.887038766 224.685013923 594.478398238 c 0
 229.098012465 598.135912833 234.503865499 599.896833013 239.885449213 599.896833013 c 0
 247.45684279 599.896833013 254.980197909 596.411284639 259.623007598 589.81801624 c 2
 647.490164938 39.0066665128 l 2
 653.460885888 30.8647743073 665.317896442 24 680 24 c 2
 720 24 l 2
 744.143726756 24 756 39.7992854312 756 48 c 2
 756 688 l 2
 756 696.198402917 744.139621903 712 720 712 c 0
 695.856273244 712 684 696.200714569 684 688 c 2
 684 174 l 2
 684 167.392370734 680.851080883 160.108297746 675.311729005 155.518902769 c 0
 670.899274573 151.863150858 665.494834479 150.103146785 660.114687054 150.103146785 c 0
 652.541825701 150.103146785 645.017093352 153.590093667 640.374557269 160.185442547 c 2
 262.508584205 696.995039201 l 2
 256.540229179 705.133705146 244.681683142 712 230 712 c 2
 180 712 l 2
 155.931518085 712 144 697.746822287 144 688 c 2
EndSplineSet
EndChar

StartChar: O
Encoding: 79 79 47
Width: 920
Flags: HW
HStem: -8 96<363.179 556.821> 648 96<363.179 556.821>
VStem: 90 120<242.362 493.638> 710 120<242.362 493.638>
AnchorPoint: "above" 460 784 basechar 0
AnchorPoint: "middle" 460 368 basechar 0
LayerCount: 2
Back
SplineSet
770 368 m 0
 770 186.850585938 631.208984375 40 460 40 c 0
 288.791015625 40 150 186.850585938 150 368 c 0
 150 549.149414062 288.791015625 696 460 696 c 0
 631.208984375 696 770 549.149414062 770 368 c 0
EndSplineSet
Fore
SplineSet
854 368 m 0
 854 226.854101458 782.744203456 98.9899500748 665.619730341 26.5857303309 c 0
 607.091108585 -9.59559948171 536.708679468 -32 460 -32 c 0
 383.29133438 -32 312.908881045 -9.595593071 254.380269659 26.5857303309 c 0
 137.255800464 98.9899476514 66 226.854098885 66 368 c 0
 66 509.145898542 137.255796544 637.010049925 254.380269659 709.414269669 c 0
 312.908891415 745.595599482 383.291320532 768 460 768 c 0
 536.70866562 768 607.091118955 745.595593071 665.619730341 709.414269669 c 0
 782.744199536 637.010052349 854 509.145901115 854 368 c 0
806 368 m 0
 806 492.854098885 743.255800464 604.989947651 640.380269659 668.585730331 c 0
 588.908881045 700.404406929 527.29133438 720 460 720 c 0
 392.708679468 720 331.091108585 700.404400518 279.619730341 668.585730331 c 0
 176.744203456 604.989950075 114 492.854101458 114 368 c 0
 114 243.145901115 176.744199536 131.010052349 279.619730341 67.4142696691 c 0
 331.091118955 35.595593071 392.70866562 16 460 16 c 0
 527.291320532 16 588.908891415 35.5955994817 640.380269659 67.4142696691 c 0
 743.255796544 131.010049925 806 243.145898542 806 368 c 0
686 368 m 0
 686 467.679842433 634.107553617 551.106520624 567.329581093 592.617152193 c 0
 533.912760777 613.389770227 497.389680934 624 460 624 c 0
 422.610333984 624 386.087234922 613.389767554 352.670418907 592.617152193 c 0
 285.892666331 551.106657349 234 467.679730085 234 368 c 0
 234 268.320157567 285.892446383 184.893479376 352.670418907 143.382847807 c 0
 386.087239223 122.610229773 422.610319066 112 460 112 c 0
 497.389666016 112 533.912765078 122.610232446 567.329581093 143.382847807 c 0
 634.107333669 184.893342651 686 268.320269915 686 368 c 0
734 368 m 0
 734 251.679730085 673.892666331 153.106657349 592.670418907 102.617152193 c 0
 552.087234922 77.3897675538 506.610333984 64 460 64 c 0
 413.389680934 64 367.912760777 77.3897702271 327.329581093 102.617152193 c 0
 246.107553617 153.106520624 186 251.679842433 186 368 c 0
 186 484.320269915 246.107333669 582.893342651 327.329581093 633.382847807 c 0
 367.912765078 658.610232446 413.389666016 672 460 672 c 0
 506.610319066 672 552.087239223 658.610229773 592.670418907 633.382847807 c 0
 673.892446383 582.893479376 734 484.320157567 734 368 c 0
EndSplineSet
EndChar

StartChar: P
Encoding: 80 80 48
Width: 850
Flags: HW
AnchorPoint: "above" 425 784 basechar 0
LayerCount: 2
Back
SplineSet
180 48 m 0
 180 688 l 0
 480 688 l 0
 600 688 700 632 700 520 c 0
 700 408 600 352 480 352 c 0
 181.25 352 l 1024
EndSplineSet
Fore
SplineSet
240 664 m 2
 480 664 l 2
 526.24993517 664 567.186519828 654.561608301 597.975146677 636.798938965 c 0
 637.302105854 614.156144287 664 575.182008499 664 520 c 0
 664 464.82271581 637.28624646 425.834735145 597.993338884 403.211545935 c 0
 567.166985273 385.42711116 526.256046867 376 480 376 c 2
 240 376 l 2
 225.472763659 376 216 389.699291841 216 400 c 2
 216 640 l 2
 216 654.527236341 229.699291841 664 240 664 c 2
264 616 m 1
 264 424 l 1
 480 424 l 2
 519.743953133 424 552.833014727 432.57288884 574.006661116 444.788454065 c 0
 600.71375354 460.165264855 616 481.17728419 616 520 c 0
 616 558.817991501 600.697894146 579.843855713 574.024853323 595.201061035 c 0
 552.813480172 607.438391699 519.75006483 616 480 616 c 2
 264 616 l 1
180 712 m 2
 155.936143456 712 144 697.742127455 144 688 c 2
 144 48 l 2
 144 39.7992854312 155.856273244 24 180 24 c 0
 204.139621903 24 216 39.801597083 216 48 c 2
 216 304 l 2
 216 318.527236341 229.699291841 328 240 328 c 2
 480 328 l 2
 540.767446326 328 597.761742955 340.492862735 644.021555851 366.797462225 c 0
 698.227791512 398.417766361 736 448.697480745 736 520 c 0
 736 591.306445976 698.231957473 641.579803495 644.021555851 673.202537775 c 0
 597.765132656 699.505209788 540.764956522 712 480 712 c 2
 180 712 l 2
180 760 m 2
 480 760 l 2
 547.235043478 760 612.234867344 746.494790212 667.978444149 714.797462225 c 0
 733.768042527 676.420196505 784 610.693554024 784 520 c 0
 784 429.302519255 733.772208488 363.582233639 667.978444149 325.202537775 c 0
 612.238257045 293.507137265 547.232553674 280 480 280 c 2
 264 280 l 1
 264 48 l 2
 264 4.19840291703 221.860378097 -24 180 -24 c 0
 138.143726756 -24 96 4.20071456879 96 48 c 2
 96 688 l 2
 96 734.257872545 140.063856544 760 180 760 c 2
EndSplineSet
EndChar

StartChar: Q
Encoding: 81 81 49
Width: 920
Flags: HW
AnchorPoint: "above" 460 784 basechar 0
LayerCount: 2
Back
SplineSet
526.444335938 170.032226562 m 0
 605 136 580 16 712.5 3 c 1024
770 368 m 0
 770 186.850585938 631.208984375 40 460 40 c 0
 288.791015625 40 150 186.850585938 150 368 c 0
 150 549.149414062 288.791015625 696 460 696 c 0
 631.208984375 696 770 549.149414062 770 368 c 0
EndSplineSet
Fore
SplineSet
572.132098813 -15.5051236862 m 0
 535.021417189 -26.7150892265 499.36157876 -32 460 -32 c 0
 383.29133438 -32 312.908881045 -9.595593071 254.380269659 26.5857303309 c 0
 137.255800464 98.9899476514 66 226.854098885 66 368 c 0
 66 509.145898542 137.255796544 637.010049925 254.380269659 709.414269669 c 0
 312.908891415 745.595599482 383.291320532 768 460 768 c 0
 536.70866562 768 607.091118955 745.595593071 665.619730341 709.414269669 c 0
 782.744199536 637.010052349 854 509.145901115 854 368 c 0
 854 253.707276346 806.854927396 147.756279615 728.266246879 74.1145688797 c 1
 765.255451128 67.77433484 797 41.0296602823 797 3 c 0
 797 -41.3296043102 753.459929359 -69 712 -69 c 2
 705 -69 l 2
 704.189177311 -69 703.065089252 -68.9295844016 702.46113469 -68.8653339163 c 0
 651.530939909 -63.4472280885 608.882825155 -45.8999163794 577.923280856 -20.6736210245 c 0
 576.004182835 -19.1383426076 572.429009828 -15.7926936797 572.132098813 -15.5051236862 c 0
571.04433612 34.6430433516 m 0
 579.534496055 37.6260725179 589.475953055 35.4651724418 595.970562748 28.9705627485 c 0
 601.224491947 23.7166335504 605.674641302 18.5952832977 608.076719144 16.6736210245 c 0
 631.012553989 -2.01483699698 662.48538076 -15.9794429499 706.289307983 -21 c 1
 712 -21 l 2
 736.540070641 -21 749 -4.67039568978 749 3 c 0
 749 10.6955342832 739.114528819 24.9688456275 717.719480149 27.1083504944 c 0
 692.982393471 29.357176556 676.711749809 37.1528499236 665.265425276 46.055546783 c 0
 664.111519992 46.9530286699 662.940129039 48.050308816 661.934934921 49.1995752049 c 0
 658.008134003 53.6891958997 656.105931308 59.308188852 656.105931308 64.9066564756 c 0
 656.105931308 72.256943899 659.384823175 79.5718511109 665.665612496 84.2490346482 c 0
 753.519294086 149.671989024 806 253.405353782 806 368 c 0
 806 492.854098885 743.255800464 604.989947651 640.380269659 668.585730331 c 0
 588.908881045 700.404406929 527.29133438 720 460 720 c 0
 392.708679468 720 331.091108585 700.404400518 279.619730341 668.585730331 c 0
 176.744203456 604.989950075 114 492.854101458 114 368 c 0
 114 243.145901115 176.744199536 131.010052349 279.619730341 67.4142696691 c 0
 331.091118955 35.595593071 392.70866562 16 460 16 c 0
 499.330435072 16 536.607960274 22.5437761627 571.04433612 34.6430433516 c 0
442 170 m 0
 442 213.799285431 484.143726756 242 526 242 c 0
 539.228478586 242 552.746662077 239.611422032 565.69981348 233.50011958 c 0
 590.923921803 221.897840616 609.065626468 207.354254068 623.102135552 192.284116388 c 1
 660.904931839 237.284265632 686 299.073747814 686 368 c 0
 686 467.679842433 634.107553617 551.106520624 567.329581093 592.617152193 c 0
 533.912760777 613.389770227 497.389680934 624 460 624 c 0
 422.610333984 624 386.087234922 613.389767554 352.670418907 592.617152193 c 0
 285.892666331 551.106657349 234 467.679730085 234 368 c 0
 234 268.320157567 285.892446383 184.893479376 352.670418907 143.382847807 c 0
 386.087239223 122.610229773 422.610319066 112 460 112 c 0
 465.235362607 112 471.396487444 112.265662807 475.826437036 112.588313455 c 1
 455.830435374 125.542978291 442 145.252658065 442 170 c 0
490 170 m 0
 490 164.300509224 494.839240841 155.371513071 507.114111659 150.203146411 c 0
 517.39426967 146.091083206 526.806614226 136.984456074 534.436002166 126.085330445 c 0
 538.046403155 121.27146246 542.097404532 114.470822395 545.466252584 107.733126292 c 0
 546.741834538 105.181962385 547.457866622 101.786155337 547.457866622 98.1130496287 c 0
 547.457866622 88.6678772707 542.72324362 77.389121414 530.59330707 73.9234252566 c 0
 507.555630599 67.3412319792 484.189882017 64 460 64 c 0
 413.389680934 64 367.912760777 77.3897702271 327.329581093 102.617152193 c 0
 246.107553617 153.106520624 186 251.679842433 186 368 c 0
 186 484.320269915 246.107333669 582.893342651 327.329581093 633.382847807 c 0
 367.912765078 658.610232446 413.389666016 672 460 672 c 0
 506.610319066 672 552.087239223 658.610229773 592.670418907 633.382847807 c 0
 673.892446383 582.893479376 734 484.320157567 734 368 c 0
 734 275.271216229 695.303896609 193.189705883 638.63460919 138.700006442 c 0
 634.454582025 134.680749553 628.184862083 132.293868216 621.756796606 132.293868216 c 0
 615.805932978 132.293868216 609.719361419 134.339513084 605.029437252 139.029437252 c 2
 602.029437252 142.029437252 l 2
 601.248879506 142.809994997 600.000533197 144.266798189 599.19262573 145.447586026 c 0
 588.12964256 161.616561429 572.21898421 177.889721167 544.690384834 190.321991853 c 0
 540.565362934 192.384502803 533.157440263 194 526 194 c 0
 501.856273244 194 490 178.200714569 490 170 c 0
EndSplineSet
EndChar

StartChar: R
Encoding: 82 82 50
Width: 880
Flags: HW
AnchorPoint: "above" 440 784 basechar 0
LayerCount: 2
Back
SplineSet
180 48 m 0
 180 688 l 0
 510 688 l 0
 630 688 730 648 730 536 c 0
 730 424 630 384 510 384 c 0
 181.25 384 l 1024
715 48 m 0
 535 383 l 1024
EndSplineSet
Fore
SplineSet
264 616 m 1
 264 456 l 1
 510 456 l 2
 553.307033266 456 589.272353802 463.872345103 609.697510941 473.676420529 c 0
 622.958356762 479.916818563 630.752981049 487.235916907 637.343951094 498.220866981 c 0
 641.953158235 506.122364939 646 517.721833807 646 536 c 0
 646 554.282028421 641.956138359 565.872526278 637.343951094 573.779133019 c 0
 630.757036361 584.75732424 622.951818247 592.086258385 609.697510941 598.323579471 c 0
 589.264878582 608.131243003 553.316611916 616 510 616 c 2
 264 616 l 1
216 640 m 2
 216 650.300708159 225.472763659 664 240 664 c 2
 510 664 l 2
 558.683388084 664 600.735121418 655.868756997 630.302489059 641.676420529 c 0
 651.048181753 631.913741615 667.242963639 617.24267576 678.656048906 598.220866981 c 0
 688.043861641 582.127473722 694 561.717971579 694 536 c 0
 694 510.278166193 688.046841765 489.877635061 678.656048906 473.779133019 c 0
 667.247018951 454.764083093 651.041643238 440.083181437 630.302489059 430.323579471 c 0
 600.727646198 416.127654897 558.692966734 408 510 408 c 2
 240 408 l 2
 229.699291841 408 216 417.472763659 216 432 c 2
 216 640 l 2
180 760 m 2
 510 760 l 2
 572.89768652 760 636.86173411 751.855018472 692.406516388 724.627184022 c 0
 732.048126635 705.907534739 767.049530829 675.750416083 788.788454065 637.993338884 c 0
 806.321272202 607.60312078 814 572.33653335 814 536 c 0
 814 499.67239684 806.309715766 464.376866445 788.798938965 434.024853323 c 0
 767.033527931 396.221771001 732.031714433 366.084715055 692.491962885 347.413165712 c 0
 680.453118026 341.393743283 666.913918613 336.333455258 654.568525303 332.511801373 c 1
 791.308225381 78.0491806984 l 2
 795.573481548 69.5186683639 799 59.9040660745 799 48 c 0
 799 4.20071456879 756.856273244 -24 715 -24 c 0
 682.718665193 -24 652.788590284 -8.67280581279 638.824264992 17.7042530722 c 2
 480.652283745 312 l 1
 264 312 l 1
 264 48 l 2
 264 4.20071456879 221.856273244 -24 180 -24 c 0
 138.139621903 -24 96 4.19840291703 96 48 c 2
 96 688 l 2
 96 734.253177713 140.068481915 760 180 760 c 2
180 712 m 2
 155.931518085 712 144 697.746822287 144 688 c 2
 144 48 l 2
 144 39.801597083 155.860378097 24 180 24 c 0
 204.143726756 24 216 39.7992854312 216 48 c 2
 216 336 l 2
 216 346.300708159 225.472763659 360 240 360 c 2
 495 360 l 2
 502.926387414 360 511.872411995 355.302535806 516.14014447 347.361966898 c 2
 681.175735008 40.2957469278 l 2
 685.211409716 32.6728058128 697.281334807 24 715 24 c 0
 739.143726756 24 751 39.7992854312 751 48 c 0
 751 50.3167797713 750.799865489 51.5833070855 748.690052652 55.9540237575 c 2
 597.859038045 336.639554252 l 2
 597.168227177 337.925102952 596.540267724 339.404057154 596.086257879 340.861343123 c 0
 595.368169148 343.166272507 595.028263265 345.506177029 595.028263265 347.814613944 c 0
 595.028263265 358.697409451 602.582726238 368.88083234 613.681093514 371.403188539 c 0
 635.051343036 376.26006343 653.553137252 381.609384356 671.508037115 390.586834288 c 0
 703.968285567 405.915284945 730.966472069 429.778228999 747.201061035 457.975146677 c 0
 759.690284234 479.623133555 766 506.32760316 766 536 c 0
 766 565.66346665 759.678727798 592.39687922 747.211545935 614.006661116 c 0
 730.950469171 642.249583917 703.951873365 666.092465261 671.593483612 681.372815978 c 0
 625.13826589 704.144981528 569.10231348 712 510 712 c 2
 180 712 l 2
EndSplineSet
EndChar

StartChar: S
Encoding: 83 83 51
Width: 840
Flags: HW
AnchorPoint: "above" 420 784 basechar 0
AnchorPoint: "bottom" 420 40 basechar 0
LayerCount: 2
Back
SplineSet
670 576 m 0
 670 576 620 696 420 696 c 0
 280 696 170 640 170 544 c 0
 170 483.973632812 219.697265625 410.435546875 440 384 c 0
 640 360 690 283.774414062 690 216 c 0
 690 120 590 40 420 40 c 0
 220 40 150 168 150 168 c 1024
EndSplineSet
Fore
SplineSet
754 576 m 0
 754 532.200714569 711.856273244 504 670 504 c 0
 636.881094667 504 603.757965319 520.103247982 590.880750997 550.686631999 c 0
 590.586215797 551.386153097 590.10963598 552.78615763 590.040591875 553.008176636 c 0
 588.904621551 555.169675726 587.120567131 558.180545662 583.156463794 563.135674833 c 0
 577.087630356 570.938460681 567.919072112 580.930906164 554.463511669 590.181603969 c 0
 530.558251834 606.403030286 490.862161659 624 420 624 c 0
 352.177886917 624 296.993345593 606.760985121 271.99839789 584.109313765 c 0
 259.460307074 573.046292457 254 561.583321541 254 544 c 0
 254 537.207508486 254.978009428 533.058607705 258.024950035 527.574114614 c 0
 262.556598875 519.26609174 267.801118433 511.444844479 285.490806726 500.494085059 c 0
 311.110051073 485.122538451 362.112529275 465.559660651 451.91307326 454.822639087 c 0
 550.060206621 442.554247417 623.772401994 420.057902243 678.512653195 382.834531427 c 0
 747.807580906 335.537993465 774 271.575390866 774 216 c 0
 774 136.831622221 726.489966715 66.3411325305 648.950651264 22.1868001214 c 0
 587.580244721 -13.3434352458 509.246361225 -32 420 -32 c 0
 172.363231713 -32 79.6737600815 127.732204839 74.4049211335 136.67739341 c 0
 74.0471878912 137.278831378 73.7330958767 137.868176787 73.533747416 138.266873708 c 0
 69.6064131459 146.121542248 66 156.260434311 66 168 c 0
 66 211.799285431 108.143726756 240 150 240 c 0
 180.886226182 240 211.324047985 225.977462136 225.81680826 199.966347485 c 0
 234.706553133 185.647805876 254.847847545 163.711755964 275.987740597 150.182224411 c 0
 306.671317841 130.328145017 350.411914766 112 420 112 c 0
 481.573445547 112 527.663061589 125.469422512 555.950120676 141.755911077 c 0
 591.566326927 162.604422053 606 187.901658354 606 216 c 0
 606 236.671986943 601.486967834 252.164277907 574.687195291 270.030792936 c 0
 552.06424018 285.11276301 507.711913803 303.467082011 428.058924051 313.180861249 c 0
 322.227177364 326.409829585 243.971360932 348.760385539 187.453400527 383.540668865 c 0
 148.619659362 407.272399577 120.006124394 436.322119752 103.533747416 469.266873708 c 0
 90.690856065 494.95265641 86 520.814362739 86 544 c 0
 86 598.454222226 110.591710641 646.860048224 149.838833626 682.743132096 c 0
 210.012459562 737.345126001 305.938172291 768 420 768 c 0
 544.128328953 768 635.415783513 728.131217385 693.255032828 674.657194434 c 0
 731.579327882 639.526590634 746.503177714 605.827211157 748.486114553 601.69345305 c 0
 748.809598318 601.039713256 749.106851186 600.354849722 749.283440581 599.913376232 c 0
 752.308294634 592.351241101 754 584.221441638 754 576 c 0
706 576 m 0
 706 577.719847346 705.887927555 578.781281138 704.96457361 581.444802133 c 0
 702.765952694 586.111024185 692.539005001 610.198270891 660.744967172 639.342805566 c 0
 612.584216487 683.868782615 533.871671047 720 420 720 c 0
 314.047500541 720 230.021263687 690.685474725 182.127757756 647.226552677 c 0
 151.439962915 619.169140251 134 583.533986255 134 544 c 0
 134 527.185637261 137.309143935 509.04734359 146.466252584 490.733126292 c 0
 157.98671314 467.692205181 179.415558586 444.706078344 212.514800227 424.478764008 c 0
 260.080998875 395.207257148 331.712524254 373.597707713 433.97683363 360.814669041 c 0
 518.247104856 350.537806696 569.949794022 330.877880856 601.312804709 309.969207064 c 0
 640.513032166 283.835722093 654 249.328013057 654 216 c 0
 654 168.098341646 626.433673073 127.395577947 580.049879324 100.244088923 c 0
 542.336938411 78.5305774881 488.426554453 64 420 64 c 0
 341.588085234 64 287.328682159 85.6718549826 250.012259403 109.817775589 c 0
 221.433495161 128.108184704 197.746040866 153.84460998 184.521235992 175.485199773 c 0
 184.339398245 175.782752451 184.009070895 176.355175256 183.789090008 176.77069471 c 0
 180.30481569 183.352101755 167.515042863 192 150 192 c 0
 125.856273244 192 114 176.200714569 114 168 c 0
 114 165.676672223 114.071491889 164.844810225 116.122299703 160.427120274 c 0
 121.573732291 151.173479054 201.052230676 16 420 16 c 0
 502.753638775 16 572.419755279 33.3434352458 625.049348736 63.8131998786 c 0
 691.510033285 101.658867469 726 157.168377779 726 216 c 0
 726 256.428792946 708.208213405 304.451226291 651.470154453 343.177203036 c 0
 606.246151457 373.929525074 539.93102905 395.446848124 446.08692674 407.177360913 c 0
 351.887470725 418.440339349 294.889948927 438.877461549 260.509193274 459.505914941 c 0
 236.198881567 474.555155521 223.443401125 490.73390826 215.975049965 504.425885386 c 0
 209.021990572 516.941392295 206 530.792491514 206 544 c 0
 206 574.416678459 218.539692926 600.953707543 240.00160211 619.890686235 c 0
 279.006654407 655.239014879 345.822113083 672 420 672 c 0
 499.137838341 672 549.441748166 651.596969714 581.536488331 629.818396031 c 0
 600.080927888 617.069093836 612.912369644 603.061539319 620.843536206 592.864325167 c 0
 629.075992299 582.573755051 633.124503033 575.629045247 635.638590028 568.201060943 c 0
 639.25866445 561.27895125 651.907498495 552 670 552 c 0
 694.143726756 552 706 567.799285431 706 576 c 0
EndSplineSet
EndChar

StartChar: T
Encoding: 84 84 52
Width: 860
Flags: HW
AnchorPoint: "above" 430 784 basechar 0
AnchorPoint: "bottom" 430 48 basechar 0
LayerCount: 2
Back
SplineSet
430 686 m 0
 430 48 l 1024
120 688 m 0
 740 688 l 1024
EndSplineSet
Fore
SplineSet
120 616 m 2
 78.1396219031 616 36 644.198402917 36 688 c 0
 36 731.799285431 78.1437267555 760 120 760 c 2
 740 760 l 2
 781.860378097 760 824 731.801597083 824 688 c 0
 824 644.200714569 781.856273244 616 740 616 c 2
 514 616 l 1
 514 48 l 2
 514 4.20071456879 471.856273244 -24 430 -24 c 0
 388.139621903 -24 346 4.19840291703 346 48 c 2
 346 616 l 1
 120 616 l 2
120 664 m 2
 370 664 l 2
 380.300708159 664 394 654.527236341 394 640 c 2
 394 48 l 2
 394 39.801597083 405.860378097 24 430 24 c 0
 454.143726756 24 466 39.7992854312 466 48 c 2
 466 640 l 2
 466 650.300708159 475.472763659 664 490 664 c 2
 740 664 l 2
 764.143726756 664 776 679.799285431 776 688 c 0
 776 696.198402917 764.139621903 712 740 712 c 2
 120 712 l 2
 95.8562732445 712 84 696.200714569 84 688 c 0
 84 679.801597083 95.8603780969 664 120 664 c 2
EndSplineSet
EndChar

StartChar: U
Encoding: 85 85 53
Width: 890
Flags: HW
AnchorPoint: "above" 445 784 basechar 0
LayerCount: 2
Back
SplineSet
710 688 m 0
 710 216 l 0
 710 118.797851562 591.35546875 40 445 40 c 0
 298.64453125 40 180 118.797851562 180 216 c 0
 180 216 l 0
 180 688 l 1024
EndSplineSet
Fore
SplineSet
626 688 m 2
 626 731.799285431 668.143726756 760 710 760 c 0
 751.860378097 760 794 731.801597083 794 688 c 2
 794 216 l 2
 794 166.109525068 773.074184564 120.623664566 741.011790367 84.1388711695 c 0
 676.093076933 10.417620321 565.30628359 -32 445 -32 c 0
 324.685053618 -32 213.921139179 10.4014954869 148.972042437 84.1572494145 c 0
 116.942059236 120.605161333 96 166.117284306 96 216 c 2
 96 688 l 2
 96 731.799285431 138.143726756 760 180 760 c 0
 221.860378097 760 264 731.801597083 264 688 c 2
 264 216 l 2
 264 200.166687951 268.964070654 186.562647012 283.00428014 170.870648175 c 0
 310.065293421 139.709481366 370.309997415 112 445 112 c 0
 519.689380222 112 579.935439972 139.710325879 606.99571986 170.870648175 c 0
 621.061422138 186.591138956 626 200.16282602 626 216 c 2
 626 688 l 2
674 688 m 2
 674 216 l 2
 674 187.83717398 662.938577862 161.408861044 643.00428014 139.129351825 c 0
 604.064560028 94.289674121 530.310619778 64 445 64 c 0
 359.690002585 64 285.934706579 94.290518634 246.99571986 139.129351825 c 0
 227.035929346 161.437352988 216 187.833312049 216 216 c 2
 216 688 l 2
 216 696.198402917 204.139621903 712 180 712 c 0
 155.856273244 712 144 696.200714569 144 688 c 2
 144 216 l 2
 144 179.882715694 159.057940764 145.394838667 185.027957563 115.842750585 c 0
 238.078860821 55.5985045131 335.314946382 16 445 16 c 0
 554.69371641 16 651.906923067 55.582379679 704.988209633 115.861128831 c 0
 730.925815436 145.376335434 746 179.890474932 746 216 c 2
 746 688 l 2
 746 696.198402917 734.139621903 712 710 712 c 0
 685.856273244 712 674 696.200714569 674 688 c 2
EndSplineSet
EndChar

StartChar: V
Encoding: 86 86 54
Width: 860
Flags: HW
AnchorPoint: "above" 430 784 basechar 0
LayerCount: 2
Back
SplineSet
120 688 m 0
 420 48 l 0
 440 48 l 0
 740 688 l 1024
EndSplineSet
Fore
SplineSet
36 688 m 0
 36 731.799285431 78.1437267555 760 120 760 c 0
 153.869941307 760 183.731898908 743.201833644 197.602600642 715.460430176 c 2
 430 219.55731816 l 1
 662.397399358 715.460430176 l 2
 676.298696128 743.263023717 706.120930196 760 740 760 c 0
 781.860378097 760 824 731.801597083 824 688 c 0
 824 676.737058446 820.667048047 668.045642431 818.283440581 662.086623768 c 0
 818.119680512 661.677223594 817.869737491 661.109529429 817.731014463 660.81358697 c 2
 517.710449783 20.769715653 l 2
 503.744301882 -8.71437435941 472.088009893 -24 440 -24 c 2
 420 -24 l 2
 387.864752543 -24 356.26103311 -8.72563712163 342.289550217 20.7697156531 c 2
 42.268985537 660.81358697 l 2
 42.0818367327 661.212837753 41.8379456745 661.783158128 41.7165594188 662.086623768 c 0
 39.3329519534 668.045642431 36 676.737058446 36 688 c 0
84 688 m 0
 84 687.273421805 84.5196698815 684.429716072 86.0431142263 680.520600201 c 2
 385.731014463 41.1864130295 l 2
 389.72542901 32.753760096 402.139030088 24 420 24 c 2
 440 24 l 2
 457.919303049 24 470.237357358 32.6756549789 474.310291867 41.2740722737 c 2
 773.956885774 680.520600201 l 2
 775.022845254 683.255822618 776 687.584471243 776 688 c 0
 776 696.198402917 764.139621903 712 740 712 c 0
 722.073250246 712 710.204504939 703.34284656 705.585073426 694.50216923 c 2
 451.731977438 152.81564157 l 2
 450.2624276 149.679830497 446.230187374 144.618737934 441.857992674 142.134046637 c 0
 438.195179494 140.052492485 434.182859553 139.073460608 430.209368 139.073460608 c 0
 421.171438731 139.073460608 412.334392216 144.138585065 408.268022562 152.81564157 c 2
 154.414926574 694.50216923 l 2
 150.086870579 702.785211506 138.258583848 712 120 712 c 0
 95.8562732445 712 84 696.200714569 84 688 c 0
EndSplineSet
EndChar

StartChar: W
Encoding: 87 87 55
Width: 1090
Flags: HW
AnchorPoint: "above" 545 784 basechar 0
LayerCount: 2
Back
SplineSet
120 688 m 0
 330 48 l 0
 350 48 l 0
 540 688 l 0
 550 688 l 0
 740 48 l 0
 760 48 l 0
 970 688 l 1024
EndSplineSet
Fore
SplineSet
36 688 m 0
 36 731.799285431 78.1437267555 760 120 760 c 0
 156.009993048 760 189.730428613 740.703378006 200.782471045 707.547250709 c 2
 336.817905164 294.339619572 l 1
 458.916286429 705.573750915 l 2
 468.510398903 740.752163318 504.485337663 760 540 760 c 2
 550 760 l 2
 585.514814079 760 621.489404004 740.752885994 631.083713571 705.573750915 c 2
 753.182094836 294.339619572 l 1
 889.217528955 707.547250709 l 2
 900.261447913 740.679007582 934.105209041 760 970 760 c 0
 1011.8603781 760 1054 731.801597083 1054 688 c 0
 1054 680.009166714 1052.27046367 674.127319682 1051.28342 670.179144999 c 0
 1051.15002341 669.645558632 1050.93120114 668.9058437 1050.80377914 668.51750997 c 2
 840.786214704 28.4639802674 l 2
 829.612569837 -5.05695433443 794.790057372 -24 760 -24 c 2
 740 -24 l 2
 704.485991285 -24 668.508337339 -4.74460425129 658.918952319 30.4164741553 c 2
 545 412.918065884 l 1
 431.081047681 30.4164741553 l 2
 421.491867142 -4.74385448744 385.513851433 -24 350 -24 c 2
 330 -24 l 2
 295.026078049 -24 260.375778792 -5.02200021994 249.213785296 28.4639802675 c 2
 39.1962208624 668.51750997 l 2
 39.0247445642 669.040104403 38.8157054229 669.782643293 38.7165799965 670.179144999 c 0
 37.7295363259 674.127319682 36 680.009166714 36 688 c 0
84 688 m 0
 84 687.924627442 84.1537262774 686.366700803 85.0749223291 682.656148875 c 2
 294.786214704 43.5360197325 l 2
 297.624221208 35.0220002199 310.973921951 24 330 24 c 2
 350 24 l 2
 370.486148567 24 382.508132858 34.7438544874 384.918952319 43.5835258447 c 2
 521.998452535 503.850460876 l 2
 523.93132243 510.34038899 529.353597566 516.689447343 536.366021351 519.393177816 c 0
 539.126642432 520.457570894 541.977133647 520.958647574 544.79081275 520.958647574 c 0
 555.096487893 520.958647574 564.908313681 514.23650132 568.001547465 503.850460876 c 2
 705.081047681 43.5835258447 l 2
 707.491662661 34.7446042513 719.514008715 24 740 24 c 2
 760 24 l 2
 779.209942628 24 792.387430163 35.0569543344 795.213785296 43.5360197326 c 2
 1004.92507767 682.656148875 l 2
 1005.55360268 685.187830034 1006 688 1006 688 c 2
 1006 696.198402917 994.139621903 712 970 712 c 0
 949.889687879 712 937.750775907 701.357663878 934.768399153 692.410533616 c 2
 774.796386293 206.495016858 l 2
 772.863101181 200.62266333 767.477674271 194.238853868 760.615070834 191.599541198 c 0
 757.860097107 190.539996212 755.016152078 190.041175919 752.208967177 190.041175919 c 0
 741.895982862 190.041175919 732.079137926 196.773589528 728.992677445 207.168959901 c 2
 584.916286429 692.426249085 l 2
 582.510595996 701.247114006 570.485185921 712 550 712 c 2
 540 712 l 2
 519.514662337 712 507.489601097 701.247836682 505.083713571 692.426249085 c 2
 361.007322555 207.168959901 l 2
 359.247645302 201.242269151 354.052368243 194.702778151 347.270386998 191.862702855 c 0
 344.321683153 190.627880662 341.249311728 190.047424309 338.215245646 190.047424309 c 0
 328.15606237 190.047424309 318.517930125 196.427780738 315.203613707 206.495016858 c 2
 155.203613707 692.495016858 l 2
 152.276955058 701.274992805 139.988394285 712 120 712 c 0
 95.8562732445 712 84 696.200714569 84 688 c 0
EndSplineSet
EndChar

StartChar: X
Encoding: 88 88 56
Width: 790
Flags: HW
AnchorPoint: "above" 395 784 basechar 0
LayerCount: 2
Back
SplineSet
120 48 m 0
 670 688 l 1024
120 688 m 0
 670 48 l 1024
EndSplineSet
Fore
SplineSet
120 -24 m 0
 78.1396219031 -24 36 4.19840291703 36 48 c 0
 36 64.6752805286 43.1488945378 79.6163794011 52.8553065987 90.7094217564 c 2
 290.397747347 368 l 1
 52.8553065987 645.290578244 l 2
 43.1488945378 656.383620599 36 671.324719471 36 688 c 0
 36 731.799285431 78.1437267555 760 120 760 c 0
 147.15191303 760 171.4922358 749.209655216 187.247600892 730.589678289 c 2
 395 489.743976669 l 1
 602.752399108 730.589678289 l 2
 618.501229944 749.201932914 642.852298715 760 670 760 c 0
 711.860378097 760 754 731.801597083 754 688 c 0
 754 671.324719471 746.851105462 656.383620599 737.144693401 645.290578244 c 2
 499.602252653 368 l 1
 737.144693401 90.7094217564 l 2
 746.851105462 79.6163794011 754 64.6752805286 754 48 c 0
 754 4.20071456879 711.856273244 -24 670 -24 c 0
 641.860347708 -24 618.755805045 -12.0692140765 603.063511261 5.04965186885 c 2
 395 246.256023331 l 1
 186.936488739 5.04965186885 l 2
 171.224823732 -12.0903463206 148.155663816 -24 120 -24 c 0
120 24 m 0
 133.758018708 24 144.025909366 29.4859990137 151.084132744 36.9742544513 c 2
 376.826893196 298.676038693 l 2
 380.831939678 303.319057181 388.098244929 306.559529981 395.60317982 306.559529981 c 0
 401.88303972 306.559529981 408.329981918 304.290634799 413.173106804 298.676038693 c 2
 638.915867256 36.9742544513 l 2
 645.393912737 30.1015250543 656.034244802 24 670 24 c 0
 694.143726756 24 706 39.7992854312 706 48 c 0
 706 51.3247194714 705.148894538 54.3836205989 700.855306599 59.2905782436 c 2
 449.773451206 352.386130555 l 2
 446.093006787 356.68242623 444.143344373 362.345234173 444.143344373 368.068078239 c 0
 444.143344373 373.584218289 445.954710168 379.156135883 449.773451206 383.613869445 c 2
 700.855306599 676.709421756 l 2
 705.148894538 681.616379401 706 684.675280529 706 688 c 0
 706 696.198402917 694.139621903 712 670 712 c 0
 655.147701285 712 645.498770056 706.798067086 639.247600892 699.410321711 c 2
 413.173106804 437.323961307 l 2
 409.168060322 432.680942819 401.901755071 429.440470019 394.39682018 429.440470019 c 0
 388.11696028 429.440470019 381.670018082 431.709365201 376.826893196 437.323961307 c 2
 150.752399108 699.410321711 l 2
 144.5077642 706.790344784 134.84808697 712 120 712 c 0
 95.8562732445 712 84 696.200714569 84 688 c 0
 84 684.675280529 84.8511054622 681.616379401 89.1446934013 676.709421756 c 2
 340.226548794 383.613869445 l 2
 343.906993213 379.31757377 345.856655627 373.654765827 345.856655627 367.931921761 c 0
 345.856655627 362.415781711 344.045289832 356.843864117 340.226548794 352.386130555 c 2
 89.1446934013 59.2905782436 l 2
 84.8511054622 54.3836205989 84 51.3247194714 84 48 c 0
 84 39.801597083 95.8603780969 24 120 24 c 0
EndSplineSet
EndChar

StartChar: Y
Encoding: 89 89 57
Width: 820
Flags: HW
AnchorPoint: "above" 410 784 basechar 0
AnchorPoint: "middle" 410 368 basechar 0
LayerCount: 2
Back
SplineSet
410 384 m 0
 410 48 l 1024
120 688 m 0
 410 384 l 0
 700 688 l 1024
EndSplineSet
Fore
SplineSet
36 688 m 0
 36 731.799285431 78.1437267555 760 120 760 c 0
 144.52594724 760 169.24090676 751.16371029 185.535504309 733.387785691 c 2
 410 497.792819139 l 1
 634.824178218 733.765303715 l 2
 651.103028681 750.044154178 674.366271638 760 700 760 c 0
 741.860378097 760 784 731.801597083 784 688 c 0
 784 671.088839391 777.174893954 654.233768457 765.16440153 642.223276033 c 2
 494 358.378524791 l 1
 494 48 l 2
 494 4.20071456879 451.856273244 -24 410 -24 c 0
 368.139621903 -24 326 4.19840291703 326 48 c 2
 326 358.378524791 l 1
 54.8355984701 642.223276033 l 2
 42.8251060457 654.233768457 36 671.088839391 36 688 c 0
84 688 m 0
 84 682.911160609 85.1748939543 679.766231543 89.1644015299 675.776723967 c 2
 367.353762241 384.578508258 l 2
 370.766129904 381.006569446 374 374.306087768 374 368 c 2
 374 48 l 2
 374 39.801597083 385.860378097 24 410 24 c 0
 434.143726756 24 446 39.7992854312 446 48 c 2
 446 368 l 2
 446 372.939939266 448.290174086 380.018743766 452.646237759 384.578508258 c 2
 730.83559847 675.776723967 l 2
 734.825106046 679.766231543 736 682.911160609 736 688 c 0
 736 696.198402917 724.139621903 712 700 712 c 0
 687.736264089 712 675.695928815 706.539119506 669.159255208 700.217308228 c 2
 427.376056279 446.444859766 l 2
 422.94826556 441.797509176 416.435655243 439.227579231 409.831401957 439.227579231 c 0
 403.625143025 439.227579231 397.337953728 441.497097196 392.623943721 446.444859766 c 2
 150.464495691 700.612214309 l 2
 144.75909324 706.83628971 133.47405276 712 120 712 c 0
 95.8562732445 712 84 696.200714569 84 688 c 0
EndSplineSet
EndChar

StartChar: Z
Encoding: 90 90 58
Width: 790
Flags: HW
AnchorPoint: "above" 395 784 basechar 0
LayerCount: 2
Back
SplineSet
130 688 m 0
 660 688 l 0
 120 48 l 0
 670 48 l 1024
EndSplineSet
Fore
SplineSet
660 760 m 2
 705.963399197 760 744 728.559272484 744 688 c 0
 744 670.986957221 737.380506315 656.065746205 728.2805828 645.449168771 c 2
 284.671284563 120 l 1
 670 120 l 2
 711.860378097 120 754 91.801597083 754 48 c 0
 754 4.20071456879 711.856273244 -24 670 -24 c 2
 120 -24 l 2
 74.0366008025 -24 36 7.44072751589 36 48 c 0
 36 65.0130427786 42.6194936851 79.9342537951 51.7194172 90.5508312292 c 2
 495.328715437 616 l 1
 130 616 l 2
 88.1396219031 616 46 644.198402917 46 688 c 0
 46 731.799285431 88.1437267555 760 130 760 c 2
 660 760 l 2
660 712 m 2
 130 712 l 2
 105.856273244 712 94 696.200714569 94 688 c 0
 94 679.801597083 105.860378097 664 130 664 c 2
 547 664 l 2
 550.937972546 664 556.881147533 662.450318068 560.995725298 659.496658005 c 0
 567.481873198 654.840560318 570.895824442 647.388304218 570.895824442 639.892555898 c 0
 570.895824442 634.436887193 569.087304498 628.958178749 565.338495584 624.517765675 c 2
 88.2805828 59.4491687708 l 2
 85.3805063149 56.0657462049 84 52.9869572214 84 48 c 0
 84 40.5592724841 93.9633991975 24 120 24 c 2
 670 24 l 2
 694.143726756 24 706 39.7992854312 706 48 c 0
 706 56.198402917 694.139621903 72 670 72 c 2
 233 72 l 2
 229.062027454 72 223.118852467 73.5496819316 219.004274702 76.5033419947 c 0
 212.518126802 81.1594396818 209.104175558 88.6116957822 209.104175558 96.1074441016 c 0
 209.104175558 101.563112807 210.912695502 107.041821251 214.661504416 111.482234325 c 2
 691.7194172 676.550831229 l 2
 694.619493685 679.934253795 696 683.013042779 696 688 c 0
 696 695.440727516 686.036600803 712 660 712 c 2
EndSplineSet
EndChar

StartChar: bracketleft
Encoding: 91 91 59
Width: 390
Flags: HW
LayerCount: 2
Back
SplineSet
290 768 m 0
 140 768 l 0
 140 -32 l 0
 290 -32 l 1024
EndSplineSet
Fore
SplineSet
56 768 m 2
 56 813.209518223 99.6540349454 840 140 840 c 2
 290 840 l 2
 331.860378097 840 374 811.801597083 374 768 c 0
 374 724.200714569 331.856273244 696 290 696 c 2
 224 696 l 1
 224 40 l 1
 290 40 l 2
 331.860378097 40 374 11.801597083 374 -32 c 0
 374 -75.7992854312 331.856273244 -104 290 -104 c 2
 140 -104 l 2
 98.1396219031 -104 56 -75.801597083 56 -32 c 2
 56 768 l 2
104 768 m 2
 104 -32 l 2
 104 -40.198402917 115.860378097 -56 140 -56 c 2
 290 -56 l 2
 314.143726756 -56 326 -40.2007145688 326 -32 c 0
 326 -23.801597083 314.139621903 -8 290 -8 c 2
 200 -8 l 2
 189.699291841 -8 176 1.4727636587 176 16 c 2
 176 720 l 2
 176 730.300708159 185.472763659 744 200 744 c 2
 290 744 l 2
 314.143726756 744 326 759.799285431 326 768 c 0
 326 776.198402917 314.139621903 792 290 792 c 2
 140 792 l 2
 116.345965055 792 104 776.790481777 104 768 c 2
EndSplineSet
EndChar

StartChar: backslash
Encoding: 92 92 60
Width: 720
Flags: HW
LayerCount: 2
Back
SplineSet
580 48 m 0
 140 688 l 1024
EndSplineSet
Fore
SplineSet
664 48 m 0
 664 4.20071456879 621.856273244 -24 580 -24 c 0
 550.429471779 -24 522.365413041 -11.314734867 507.125879547 11.5445653739 c 2
 67.3451099418 651.2256848 l 2
 59.2473723031 662.562517494 56 676.124557783 56 688 c 0
 56 731.799285431 98.1437267555 760 140 760 c 0
 169.570528221 760 197.634586959 747.314734867 212.874120453 724.455434626 c 2
 652.654890058 84.7743152004 l 2
 660.752627697 73.4374825062 664 59.8754422168 664 48 c 0
616 48 m 0
 616 52.1245577832 615.247372303 54.5625174938 613.345109942 57.2256847996 c 2
 173.125879547 697.544565374 l 2
 168.365413041 704.685265133 156.429471779 712 140 712 c 0
 115.856273244 712 104 696.200714569 104 688 c 0
 104 683.875442217 104.752627697 681.437482506 106.654890058 678.7743152 c 2
 546.874120453 38.4554346261 l 2
 551.634586959 31.314734867 563.570528221 24 580 24 c 0
 604.143726756 24 616 39.7992854312 616 48 c 0
EndSplineSet
EndChar

StartChar: bracketright
Encoding: 93 93 61
Width: 390
Flags: HW
LayerCount: 2
Back
SplineSet
100 768 m 0
 250 768 l 0
 250 -32 l 0
 100 -32 l 1024
EndSplineSet
Fore
SplineSet
250 840 m 2
 295.963399197 840 334 808.559272484 334 768 c 2
 334 -32 l 2
 334 -75.7992854312 291.856273244 -104 250 -104 c 2
 100 -104 l 2
 58.1396219031 -104 16 -75.801597083 16 -32 c 0
 16 11.7992854312 58.1437267555 40 100 40 c 2
 166 40 l 1
 166 696 l 1
 100 696 l 2
 58.1396219031 696 16 724.198402917 16 768 c 0
 16 811.799285431 58.1437267555 840 100 840 c 2
 250 840 l 2
250 792 m 2
 100 792 l 2
 75.8562732445 792 64 776.200714569 64 768 c 0
 64 759.801597083 75.8603780969 744 100 744 c 2
 190 744 l 2
 200.300708159 744 214 734.527236341 214 720 c 2
 214 16 l 2
 214 5.69929184064 204.527236341 -8 190 -8 c 2
 100 -8 l 2
 75.8562732445 -8 64 -23.7992854312 64 -32 c 0
 64 -40.198402917 75.8603780969 -56 100 -56 c 2
 250 -56 l 2
 274.143726756 -56 286 -40.2007145688 286 -32 c 2
 286 768 l 2
 286 775.440727516 276.036600803 792 250 792 c 2
EndSplineSet
EndChar

StartChar: asciicircum
Encoding: 94 94 62
Width: 640
Flags: HW
LayerCount: 2
Back
SplineSet
140 448 m 0
 320 688 l 0
 500 448 l 1024
EndSplineSet
Fore
SplineSet
140 376 m 0
 98.1396219031 376 56 404.198402917 56 448 c 0
 56 464.157693793 62.3280019396 476.950363997 69.6325807729 487.176774364 c 2
 249.632580773 727.176774364 l 2
 264.84544128 748.474779074 291.83785115 760 320 760 c 0
 347.953048996 760 375.819037593 748.944508652 391.386058319 727.150679635 c 2
 570.386058319 487.150679635 l 2
 577.652281498 476.977967185 584 464.145689418 584 448 c 0
 584 404.200714569 541.856273244 376 500 376 c 0
 471.837139073 376 444.846414641 387.523858221 429.632580773 408.823225636 c 2
 320 555 l 1
 210.367419227 408.823225636 l 2
 195.15455872 387.525220926 168.16214885 376 140 376 c 0
140 424 m 0
 155.83785115 424 166.84544128 430.474779074 171.632580773 437.176774364 c 2
 300.8 609.4 l 2
 300.919787183 609.559716245 302.978028623 611.989457613 304.138012076 613.011033815 c 0
 308.636688747 616.972936045 314.283084736 618.893754911 319.909470066 618.893754911 c 0
 327.231371171 618.893754911 334.519383946 615.640821405 339.2 609.4 c 2
 468.367419227 437.176774364 l 2
 473.153585359 430.476141779 484.162860927 424 500 424 c 0
 524.143726756 424 536 439.799285431 536 448 c 0
 536 449.854310582 534.347718502 455.022032815 531.613941681 458.849320365 c 2
 352.613941681 698.849320365 l 2
 348.180962407 705.055491348 336.046951004 712 320 712 c 0
 304.16214885 712 293.15455872 705.525220926 288.367419227 698.823225636 c 2
 108.368445159 458.824593545 l 2
 105.72029425 454.980051158 104 449.894039443 104 448 c 0
 104 439.801597083 115.860378097 424 140 424 c 0
EndSplineSet
EndChar

StartChar: underscore
Encoding: 95 95 63
Width: 720
Flags: HW
LayerCount: 2
Back
SplineSet
60 -96 m 0
 660 -96 l 1024
EndSplineSet
Fore
SplineSet
60 -168 m 2
 18.1396219031 -168 -24 -139.801597083 -24 -96 c 0
 -24 -52.2007145688 18.1437267555 -24 60 -24 c 2
 660 -24 l 2
 701.860378097 -24 744 -52.198402917 744 -96 c 0
 744 -139.799285431 701.856273244 -168 660 -168 c 2
 60 -168 l 2
60 -120 m 2
 660 -120 l 2
 684.143726756 -120 696 -104.200714569 696 -96 c 0
 696 -87.801597083 684.139621903 -72 660 -72 c 2
 60 -72 l 2
 35.8562732445 -72 24 -87.7992854312 24 -96 c 0
 24 -104.198402917 35.8603780969 -120 60 -120 c 2
EndSplineSet
EndChar

StartChar: grave
Encoding: 96 96 64
Width: 480
Flags: HW
LayerCount: 2
Back
SplineSet
140 688 m 0
 340 480 l 1024
EndSplineSet
Fore
SplineSet
56 688 m 0
 56 731.799285431 98.1437267555 760 140 760 c 0
 165.616399703 760 188.937373715 750.003751782 205.136924826 733.804200671 c 2
 405.136924826 525.804200671 l 2
 417.201870326 513.739255171 424 496.922234086 424 480 c 0
 424 436.200714569 381.856273244 408 340 408 c 0
 314.383600297 408 291.062626285 417.996248218 274.863075174 434.195799329 c 2
 74.863075174 642.195799329 l 2
 62.7981296742 654.260744829 56 671.077765914 56 688 c 0
104 688 m 0
 104 682.922234086 105.201870326 679.739255171 109.136924826 675.804200671 c 2
 309.136924826 467.804200671 l 2
 314.937373715 462.003751782 327.616399703 456 340 456 c 0
 364.143726756 456 376 471.799285431 376 480 c 0
 376 485.077765914 374.798129674 488.260744829 370.863075174 492.195799329 c 2
 170.863075174 700.195799329 l 2
 165.062626285 705.996248218 152.383600297 712 140 712 c 0
 115.856273244 712 104 696.200714569 104 688 c 0
EndSplineSet
EndChar

StartChar: a
Encoding: 97 97 65
Width: 735
Flags: HW
AnchorPoint: "above" 368 576 basechar 0
LayerCount: 2
Back
SplineSet
553.75 360.18359375 m 0
 518.41796875 435.798828125 442.715820312 488 355 488 c 0
 233.497070312 488 135 387.711914062 135 264 c 0
 135 140.288085938 233.497070312 40 355 40 c 0
 442.690429688 40 518.397460938 92.2373046875 553.7421875 167.81640625 c 1024
555 480 m 0
 555 48 l 1024
553.75 360.18359375 m 0
 518.41796875 435.798828125 442.715820312 488 355 488 c 0
 233.497070312 488 135 387.711914062 135 264 c 0
 135 140.288085938 233.497070312 40 355 40 c 0
 442.690429688 40 518.397460938 92.2373046875 553.7421875 167.81640625 c 1024
EndSplineSet
Fore
SplineSet
471 184.959431492 m 1
 471 343.040568508 l 1
 443.598734275 391.991049228 398.037934483 416 355 416 c 0
 333.285305661 416 311.69680255 410.197193863 292.381305058 398.43993452 c 0
 252.44037055 374.645335238 219 324.173175703 219 264 c 0
 219 203.828658252 252.443381799 153.352870826 292.381305058 129.56006548 c 0
 311.756227508 117.766634424 333.235225653 112 355 112 c 0
 398.3602458 112 444.18965146 137.064583771 471 184.959431492 c 1
519 179 m 2
 519 175.463868694 518.098873858 171.476486875 516.393243125 168.122079767 c 0
 482.475631272 101.417443123 418.439126981 64 355 64 c 0
 324.764774347 64 294.243772492 72.2333655763 267.618694942 88.4399345196 c 0
 213.556618201 120.647129174 171 186.171341748 171 264 c 0
 171 341.826824297 213.55962945 407.354664762 267.618694942 439.56006548 c 0
 294.30319745 455.802806137 324.714694339 464 355 464 c 0
 418.438868513 464 482.475778121 426.582268074 516.393243125 359.877920233 c 0
 517.995982886 356.725865369 519 352.763140078 519 349 c 2
 519 179 l 2
492.556109718 528.700298308 m 1
 510.265201838 544.828015484 531.310215918 552 555 552 c 0
 596.860378097 552 639 523.801597083 639 480 c 2
 639 48 l 2
 639 4.20071456879 596.856273244 -24 555 -24 c 0
 531.00023512 -24 508.782480562 -15.4776972845 492.556109718 -0.700298307792 c 1
 451.368232788 -20.9216569188 405.341934618 -32 355 -32 c 0
 295.581472345 -32 241.342853191 -15.7768779316 195.669956185 11.4093702862 c 0
 105.701096708 65.6074784048 51 159.41971782 51 264 c 0
 51 368.579911966 105.701706921 462.392889193 195.669956185 516.590629714 c 0
 241.354461312 543.783787527 295.571517154 560 355 560 c 0
 405.33430109 560 452.999123558 548.120964347 492.556109718 528.700298308 c 1
520.466252584 487.266873708 m 0
 516.381794685 479.09795791 507.661741594 474.099683514 498.698310671 474.099683514 c 0
 494.673999247 474.099683514 490.600629169 475.107205902 486.875699162 477.287652736 c 0
 449.567148081 499.126804588 404.831656352 512 355 512 c 0
 304.428482846 512 258.645538688 498.216212473 220.330043815 475.409370286 c 0
 144.298293079 429.607110807 99 351.420088034 99 264 c 0
 99 176.58028218 144.298903292 98.3925215952 220.330043815 52.5906297138 c 0
 258.657146809 29.7768779316 304.418527655 16 355 16 c 0
 404.83126028 16 449.567186104 28.8732176689 486.875699162 50.7123472643 c 0
 490.521991064 52.8467620359 494.628950634 53.8710582825 498.733484256 53.8710582825 c 0
 507.485051654 53.8710582825 516.22559032 49.2144508194 520.466252584 40.733126292 c 0
 524.360380627 32.9448702067 537.070197225 24 555 24 c 0
 579.143726756 24 591 39.7992854312 591 48 c 2
 591 480 l 2
 591 488.198402917 579.139621903 504 555 504 c 0
 537.025352624 504 524.362934063 495.060236667 520.466252584 487.266873708 c 0
EndSplineSet
EndChar

StartChar: b
Encoding: 98 98 66
Width: 735
Flags: HW
LayerCount: 2
Back
SplineSet
180 688 m 0
 180 144 l 0
 180 80 170 48 170 48 c 1024
181.25 360.18359375 m 0
 216.58203125 435.798828125 292.284179688 488 380 488 c 0
 501.502929688 488 600 387.711914062 600 264 c 0
 600 140.288085938 501.502929688 40 380 40 c 0
 292.309570312 40 216.602539062 92.2373046875 181.2578125 167.81640625 c 1024
EndSplineSet
Fore
SplineSet
264 343.040568508 m 1
 264 184.959431492 l 1
 291.401265725 136.008950772 336.962065517 112 380 112 c 0
 401.714694339 112 423.30319745 117.802806137 442.618694942 129.56006548 c 0
 482.55962945 153.354664762 516 203.826824297 516 264 c 0
 516 324.171341748 482.556618201 374.647129174 442.618694942 398.43993452 c 0
 423.243772492 410.233365576 401.764774347 416 380 416 c 0
 336.6397542 416 290.81034854 390.935416229 264 343.040568508 c 1
216 349 m 2
 216 352.536131306 216.901126142 356.523513125 218.606756875 359.877920233 c 0
 252.524368728 426.582556877 316.560873019 464 380 464 c 0
 410.235225653 464 440.756227508 455.766634424 467.381305058 439.56006548 c 0
 521.443381799 407.352870826 564 341.828658252 564 264 c 0
 564 186.173175703 521.44037055 120.645335238 467.381305058 88.4399345196 c 0
 440.69680255 72.1971938629 410.285305661 64 380 64 c 0
 316.561131487 64 252.524221879 101.417731926 218.606756875 168.122079767 c 0
 217.004017114 171.274134631 216 175.236859922 216 179 c 2
 216 349 l 2
96 688 m 2
 96 731.799285431 138.143726756 760 180 760 c 0
 221.860378097 760 264 731.801597083 264 688 c 2
 264 538.207543203 l 1
 299.994881103 552.561281273 338.566242131 560 380 560 c 0
 439.418527655 560 493.657146809 543.776877932 539.330043815 516.590629714 c 0
 629.298903292 462.392521595 684 368.58028218 684 264 c 0
 684 159.420088034 629.298293079 65.6071108071 539.330043815 11.4093702862 c 0
 493.645538688 -15.7837875271 439.428482846 -32 380 -32 c 0
 326.404844164 -32 277.527066061 -18.9254984048 235.800612951 2.84458547108 c 1
 218.740957631 -14.9891007386 195.916362098 -24 170 -24 c 0
 128.139621903 -24 86 4.19840291703 86 48 c 0
 86 55.2930670433 87.8508407446 61.4819975021 88.4153335822 63.64347435 c 0
 89.1277989543 67.8232712002 90.5037881532 73.3713625541 92.2253521594 86.2830926007 c 0
 94.1236154603 99.5709357069 96 118.102953026 96 144 c 2
 96 688 l 2
144 688 m 2
 144 144 l 2
 144 115.897046974 141.87638454 94.4290642931 139.774647841 79.7169073993 c 0
 138.14071819 67.4624350166 136.310548432 58.6275261664 135.821626032 56.0623891085 c 0
 135.682666441 55.0456855505 135.522703295 54.1362781633 135.283420003 53.1791449991 c 0
 134.363171056 49.4981492095 134.01093119 48.0599482601 133.997772411 47.9592951451 c 0
 134.171317951 39.8478624667 145.732635897 24 170 24 c 0
 190.220495895 24 202.555019231 34.9501810037 205.347399447 42.9284101935 c 0
 208.233520798 51.1744711951 218.036803437 58.8402761949 228.765226901 58.8402761949 c 0
 232.738868182 58.8402761949 236.839424579 57.788645459 240.762435181 55.3253597325 c 0
 280.110569419 30.6183917227 326.474370763 16 380 16 c 0
 430.571517154 16 476.354461312 29.7837875271 514.669956185 52.5906297138 c 0
 590.701706921 98.3928891929 636 176.579911966 636 264 c 0
 636 351.41971782 590.701096708 429.607478405 514.669956185 475.409370286 c 0
 476.342853191 498.223122068 430.581472345 512 380 512 c 0
 331.998895314 512 288.155554036 500.004790782 251.963306982 479.194248727 c 0
 250.099792607 478.122727961 245.386953368 476.349742552 241.882970051 476.073980193 c 0
 241.266711785 476.025480866 240.653712538 476.001668106 240.044917584 476.001668106 c 0
 227.067208887 476.001668106 216 486.822576046 216 500 c 2
 216 688 l 2
 216 696.198402917 204.139621903 712 180 712 c 0
 155.856273244 712 144 696.200714569 144 688 c 2
EndSplineSet
EndChar

StartChar: c
Encoding: 99 99 67
Width: 660
Flags: HW
AnchorPoint: "above" 350 576 basechar 0
AnchorPoint: "bottom" 350 40 basechar 0
AnchorPoint: "middle" 350 264 basechar 0
LayerCount: 2
Back
SplineSet
525 133.853515625 m 0
 486.00390625 77.0341796875 422.157226562 40 350 40 c 0
 231.258789062 40 135 140.288085938 135 264 c 0
 135 387.711914062 231.258789062 488 350 488 c 0
 416.280273438 488 475.560546875 456.751953125 515 407.625 c 1024
EndSplineSet
Fore
SplineSet
525 206 m 0
 566.860378097 206 609 177.801597083 609 134 c 0
 609 122.113380842 605.770998354 108.588236413 597.637506053 97.2013471925 c 0
 546.722931633 23.5377076064 457.456262919 -32 350 -32 c 0
 291.544614076 -32 237.249763916 -15.7742436446 192.505421818 11.5088917809 c 0
 103.356458616 65.8680156842 51 160.810244662 51 264 c 0
 51 367.189750153 103.35644576 462.131976477 192.505421818 516.491108219 c 0
 237.25055458 543.774725757 291.543841989 560 350 560 c 0
 448.667442245 560 532.571884338 513.11831924 584.422654567 449.385080834 c 0
 594.175307702 438.006985511 599 422.684053308 599 408 c 0
 599 364.200714569 556.856273244 336 515 336 c 0
 487.260485144 336 461.981108955 347.230937345 445.441126984 366.778188767 c 0
 418.280525402 400.947977854 383.56377411 416 350 416 c 0
 329.577561676 416 310.144235972 410.469544641 290.478726725 398.499234665 c 0
 251.668469103 374.87559959 219 325.443547298 219 264 c 0
 219 202.553495973 251.663590984 153.127369699 290.478726725 129.500765335 c 0
 310.144206716 117.530473167 329.594804552 112 350 112 c 0
 386.680029987 112 425.278505082 130.616398246 452.06407474 170.362727415 c 0
 467.416145909 193.39083417 495.414113077 206 525 206 c 0
525 158 m 0
 508.585886923 158 496.583854091 150.60916583 491.93592526 143.637272585 c 0
 456.721494918 91.3836017544 403.319970013 64 350 64 c 0
 320.405195448 64 291.855793284 72.4695268334 265.521273275 88.4992346653 c 0
 212.336409016 120.872630301 171 185.446504027 171 264 c 0
 171 342.556452702 212.331530897 407.12440041 265.521273275 439.500765335 c 0
 291.855764028 455.530455359 320.422438324 464 350 464 c 0
 398.365954888 464 446.309165401 442.263146072 482.545605696 397.240649476 c 0
 488.17695529 390.813024265 500.625557121 384 515 384 c 0
 539.143726756 384 551 399.799285431 551 408 c 0
 551 413.315946692 549.824692298 415.993014489 547.577345433 418.614919166 c 0
 503.428115662 472.88168076 433.332557755 512 350 512 c 0
 300.456158011 512 254.74944542 498.225274243 217.494578182 475.508891781 c 0
 142.64355424 429.868023523 99 350.810249847 99 264 c 0
 99 177.189755338 142.643541384 98.1319843158 217.494578182 52.4911082191 c 0
 254.750236084 29.7742436446 300.455385924 16 350 16 c 0
 440.543737081 16 515.277068367 62.4622923936 558.362493947 124.798652808 c 0
 560.229001646 127.411763587 561 129.886619158 561 134 c 0
 561 142.198402917 549.139621903 158 525 158 c 0
EndSplineSet
EndChar

StartChar: d
Encoding: 100 100 68
Width: 740
Flags: HW
AnchorPoint: "above" 370 784 basechar 0
LayerCount: 2
Back
SplineSet
560 688 m 0
 560 144 l 0
 560 80 570 48 570 48 c 1024
558.75 360.18359375 m 0
 523.41796875 435.798828125 447.715820312 488 360 488 c 0
 238.497070312 488 140 387.711914062 140 264 c 0
 140 140.288085938 238.497070312 40 360 40 c 0
 447.690429688 40 523.397460938 92.2373046875 558.7421875 167.81640625 c 1024
EndSplineSet
Fore
SplineSet
476 184.959431492 m 1
 476 343.040568508 l 1
 448.598734275 391.991049228 403.037934483 416 360 416 c 0
 338.285305661 416 316.69680255 410.197193863 297.381305058 398.43993452 c 0
 257.44037055 374.645335238 224 324.173175703 224 264 c 0
 224 203.828658252 257.443381799 153.352870826 297.381305058 129.56006548 c 0
 316.756227508 117.766634424 338.235225653 112 360 112 c 0
 403.3602458 112 449.18965146 137.064583771 476 184.959431492 c 1
524 179 m 2
 524 175.463868694 523.098873858 171.476486875 521.393243125 168.122079767 c 0
 487.475631272 101.417443123 423.439126981 64 360 64 c 0
 329.764774347 64 299.243772492 72.2333655763 272.618694942 88.4399345196 c 0
 218.556618201 120.647129174 176 186.171341748 176 264 c 0
 176 341.826824297 218.55962945 407.354664762 272.618694942 439.56006548 c 0
 299.30319745 455.802806137 329.714694339 464 360 464 c 0
 423.438868513 464 487.475778121 426.582268074 521.393243125 359.877920233 c 0
 522.995982886 356.725865369 524 352.763140078 524 349 c 2
 524 179 l 2
476 688 m 2
 476 731.799285431 518.143726756 760 560 760 c 0
 601.860378097 760 644 731.801597083 644 688 c 2
 644 144 l 2
 644 118.103854941 645.876556826 99.5697297034 647.774647841 86.2830926007 c 0
 649.531578416 73.1061132855 651.083727322 66.582317043 651.584666418 63.64347435 c 0
 652.734397781 59.2410841719 654 55.0562000047 654 48 c 0
 654 4.20071456879 611.856273244 -24 570 -24 c 0
 543.681730028 -24 519.934089325 -13.6040319092 504.199387049 2.84458547108 c 1
 460.893548712 -19.749516415 413.574640792 -32 360 -32 c 0
 300.581472345 -32 246.342853191 -15.7768779316 200.669956185 11.4093702862 c 0
 110.701096708 65.6074784048 56 159.41971782 56 264 c 0
 56 368.579911966 110.701706921 462.392889193 200.669956185 516.590629714 c 0
 246.354461312 543.783787527 300.571517154 560 360 560 c 0
 401.410335714 560 441.68123646 551.89289311 476 538.207543203 c 1
 476 688 l 2
524 688 m 2
 524 500 l 2
 524 497.850385481 523.187797953 492.88101341 521.680223576 489.705928613 c 0
 517.588591073 481.088589166 508.787382406 476.074515407 499.792009468 476.074515407 c 0
 495.778538745 476.074515407 491.726416093 477.072657958 488.036693018 479.194248727 c 0
 451.844477321 500.004772752 408.001075539 512 360 512 c 0
 309.428482846 512 263.645538688 498.216212473 225.330043815 475.409370286 c 0
 149.298293079 429.607110807 104 351.420088034 104 264 c 0
 104 176.58028218 149.298903292 98.3925215952 225.330043815 52.5906297138 c 0
 263.657146809 29.7768779316 309.418527655 16 360 16 c 0
 413.525586377 16 459.889425833 30.618388741 499.237564819 55.3253597325 c 0
 502.560515866 57.4118638781 506.901092769 58.536717475 511.434676184 58.536717475 c 0
 520.734425029 58.536717475 530.846314392 53.8035135111 534.652600553 42.9284101935 c 0
 537.445488766 34.9487295846 549.906824302 24 570 24 c 0
 593.831702219 24 605.817176323 39.3100904845 606.002227589 47.9592951451 c 2
 606.002227589 47.9592951451 605.792319498 48.8761869916 604.716579997 53.1791449991 c 0
 604.572427048 53.7557567939 604.364518026 54.6805127954 604.180750865 56.0499186924 c 0
 603.953153364 57.2440116299 601.914126879 67.0510970008 600.225352159 79.7169073992 c 0
 598.123443174 94.4302702966 596 115.896145059 596 144 c 2
 596 688 l 2
 596 696.198402917 584.139621903 712 560 712 c 0
 535.856273244 712 524 696.200714569 524 688 c 2
EndSplineSet
EndChar

StartChar: e
Encoding: 101 101 69
Width: 680
Flags: HW
AnchorPoint: "bottom" 340 40 basechar 0
AnchorPoint: "above" 340 576 basechar 0
LayerCount: 2
Back
SplineSet
545 128 m 0
 545 128 484.844726562 40 345 40 c 0
 229.01953125 40 135 135.870117188 135 264 c 0
 135 392.129882812 229.01953125 488 345 488 c 0
 408.53125 488 465.482421875 464.830078125 503.993164062 415.568359375 c 0
 535.7109375 374.998046875 545 336 545 288 c 0
 140 288 l 1024
EndSplineSet
Fore
SplineSet
345 416 m 0
 325.725937034 416 305.803912158 410.325368445 287.332929413 399.410696822 c 0
 272.75805991 390.56166891 258.290104194 376.785867689 246.932230797 360 c 1
 444.456736523 360 l 1
 441.195400865 365.546481179 438.089989012 370.078285267 434.156463794 375.135674833 c 0
 420.723692953 391.926638385 405.998750542 402.220224087 390.329466777 408.620363373 c 0
 376.555535065 413.668727485 362.563188294 416 345 416 c 0
345 464 m 0
 367.528916063 464 388.032481379 460.744830719 407.671193532 453.380313662 c 0
 432.005483775 443.646597564 453.226691528 428.135381015 471.843536206 404.864325167 c 0
 487.865604905 384.264522554 497.462828528 363.946288574 503.209788894 342.107839183 c 0
 503.567598239 340.748163674 503.998331894 338.082234252 503.998331894 336.044917584 c 0
 503.998331894 323.067208887 493.177423954 312 480 312 c 2
 208 312 l 2
 206.1034269 312 203.591380347 312.308125152 201.495518724 312.898231165 c 0
 190.944396367 315.86898108 184.038243841 325.769051963 184.038243841 336.20493329 c 0
 184.038243841 338.903283603 184.499959459 341.637455895 185.479765196 344.296928612 c 0
 201.328986216 387.316242809 229.545307312 420.479661189 262.667070587 440.589303178 c 0
 288.196087842 455.674631555 316.274062966 464 345 464 c 0
629 288 m 0
 629 244.200714569 586.856273244 216 545 216 c 2
 224.909776948 216 l 1
 236.320823457 174.38353233 260.718880951 144.96869638 287.394918888 128.552673033 c 0
 305.675891838 117.750279927 325.810138294 112 345 112 c 0
 388.4607056 112 416.921715201 123.489221846 437.694857973 135.606888463 c 0
 452.934754138 144.920158342 466.759305358 157.504841452 472.450622894 164.939030188 c 0
 488.634997943 188.23666666 515.726951578 200 545 200 c 0
 586.860378097 200 629 171.801597083 629 128 c 0
 629 116.051368876 625.872922528 102.730930258 617.541056024 91.0663171524 c 0
 610.557318958 81.4784018175 528.710352853 -32 345 -32 c 0
 287.842037421 -32 234.19704233 -16.8000948525 190.428156154 10.5554590078 c 0
 102.239729416 63.9040134543 51 159.207652682 51 264 c 0
 51 368.79277737 102.238765893 464.095403674 190.428156154 517.444540992 c 0
 234.176513875 544.787264568 287.857959294 560 345 560 c 0
 383.579061385 560 423.595389808 553.590879677 459.670514535 539.379466906 c 0
 505.368144924 521.970845805 544.253703518 493.124871361 573.778181269 455.945899378 c 0
 616.741884212 401.965862348 629 344.357979942 629 288 c 0
581 288 m 0
 581 337.642020058 571.258115788 382.034137652 536.221818731 426.054100622 c 0
 511.746296482 456.875128639 480.631855076 480.029154195 442.329485465 494.620533094 c 0
 412.404610192 506.409120323 378.420938615 512 345 512 c 0
 296.142040706 512 251.823486125 499.212735432 215.571843846 476.555459008 c 0
 141.761234107 431.904596326 99 353.20722263 99 264 c 0
 99 174.792347318 141.760270584 96.0959865457 215.571843846 51.4445409922 c 0
 251.80295767 28.8000948525 296.157962579 16 345 16 c 0
 507.334031037 16 575.527882783 114.92801243 578.578415799 119.101362624 c 0
 579.960051642 121.155246015 581 123.978106933 581 128 c 0
 581 136.198402917 569.139621903 152 545 152 c 0
 528.597772384 152 516.553306495 144.563344437 511.969207064 137.687195291 c 0
 511.79529935 137.42633372 511.453866126 136.938488168 511.2 136.6 c 0
 499.542455641 121.056607521 482.865800335 106.957958281 462.305142027 94.3931115366 c 0
 435.078284799 78.510778154 397.5392944 64 345 64 c 0
 316.189861706 64 288.324108162 72.2497200731 262.605081112 87.4473269666 c 0
 220.932565654 113.091951864 172.022959565 171.112633863 172.022959565 239.615824828 c 0
 172.022959565 251.436081389 181.896738344 264 196 264 c 2
 545 264 l 2
 569.143726756 264 581 279.799285431 581 288 c 0
EndSplineSet
EndChar

